<svg xmlns="http://www.w3.org/2000/svg" width="1080" height="620" viewBox="0 0 1080 620">
<rect width="100%" height="100%" fill="white"/>
<text x="540.0" y="32.0" font-size="22" text-anchor="middle" fill="#222">GPU ROAM-like fine-grained average timing</text>
<text x="22.0" y="287.0" font-size="14" text-anchor="middle" fill="#222" transform="rotate(-90.0 22.0 287.0)">Milliseconds</text>
<line x1="86" y1="502.0" x2="1046" y2="502.0" stroke="#E5E5E5"/>
<text x="76.0" y="506.0" font-size="12" text-anchor="end" fill="#222">0.00</text>
<line x1="86" y1="416.0" x2="1046" y2="416.0" stroke="#E5E5E5"/>
<text x="76.0" y="420.0" font-size="12" text-anchor="end" fill="#222">0.47</text>
<line x1="86" y1="330.0" x2="1046" y2="330.0" stroke="#E5E5E5"/>
<text x="76.0" y="334.0" font-size="12" text-anchor="end" fill="#222">0.94</text>
<line x1="86" y1="244.0" x2="1046" y2="244.0" stroke="#E5E5E5"/>
<text x="76.0" y="248.0" font-size="12" text-anchor="end" fill="#222">1.41</text>
<line x1="86" y1="158.0" x2="1046" y2="158.0" stroke="#E5E5E5"/>
<text x="76.0" y="162.0" font-size="12" text-anchor="end" fill="#222">1.87</text>
<line x1="86" y1="72.0" x2="1046" y2="72.0" stroke="#E5E5E5"/>
<text x="76.0" y="76.0" font-size="12" text-anchor="end" fill="#222">2.34</text>
<line x1="86" y1="72" x2="86" y2="502" stroke="#333"/>
<line x1="86" y1="502" x2="1046" y2="502" stroke="#333"/>
<rect x="214.0" y="397.0" width="34.0" height="105.0" fill="#4C78A8" rx="2"/>
<text x="231.0" y="392.0" font-size="10" text-anchor="middle" fill="#222">0.57</text>
<rect x="252.0" y="502.0" width="34.0" height="0.0" fill="#F58518" rx="2"/>
<text x="269.0" y="497.0" font-size="10" text-anchor="middle" fill="#222">0.00</text>
<rect x="290.0" y="474.6" width="34.0" height="27.4" fill="#E45756" rx="2"/>
<text x="307.0" y="469.6" font-size="10" text-anchor="middle" fill="#222">0.15</text>
<rect x="328.0" y="502.0" width="34.0" height="0.0" fill="#72B7B2" rx="2"/>
<text x="345.0" y="497.0" font-size="10" text-anchor="middle" fill="#222">0.00</text>
<rect x="366.0" y="394.3" width="34.0" height="107.7" fill="#B279A2" rx="2"/>
<text x="383.0" y="389.3" font-size="10" text-anchor="middle" fill="#222">0.59</text>
<rect x="404.0" y="438.6" width="34.0" height="63.4" fill="#54A24B" rx="2"/>
<text x="421.0" y="433.6" font-size="10" text-anchor="middle" fill="#222">0.35</text>
<text x="326.0" y="536.0" font-size="12" text-anchor="middle" fill="#222" transform="rotate(-25.0 326.0 536.0)">Peking513</text>
<rect x="694.0" y="190.8" width="34.0" height="311.2" fill="#4C78A8" rx="2"/>
<text x="711.0" y="185.8" font-size="10" text-anchor="middle" fill="#222">1.70</text>
<rect x="732.0" y="501.7" width="34.0" height="0.3" fill="#F58518" rx="2"/>
<text x="749.0" y="496.7" font-size="10" text-anchor="middle" fill="#222">0.00</text>
<rect x="770.0" y="454.4" width="34.0" height="47.6" fill="#E45756" rx="2"/>
<text x="787.0" y="449.4" font-size="10" text-anchor="middle" fill="#222">0.26</text>
<rect x="808.0" y="501.9" width="34.0" height="0.1" fill="#72B7B2" rx="2"/>
<text x="825.0" y="496.9" font-size="10" text-anchor="middle" fill="#222">0.00</text>
<rect x="846.0" y="137.6" width="34.0" height="364.4" fill="#B279A2" rx="2"/>
<text x="863.0" y="132.6" font-size="10" text-anchor="middle" fill="#222">1.99</text>
<rect x="884.0" y="377.3" width="34.0" height="124.7" fill="#54A24B" rx="2"/>
<text x="901.0" y="372.3" font-size="10" text-anchor="middle" fill="#222">0.68</text>
<text x="806.0" y="536.0" font-size="12" text-anchor="middle" fill="#222" transform="rotate(-25.0 806.0 536.0)">Test129</text>
<rect x="86" y="574" width="14" height="14" fill="#4C78A8" rx="2"/>
<text x="106.0" y="586.0" font-size="12" text-anchor="start" fill="#222">Snapshot</text>
<rect x="336" y="574" width="14" height="14" fill="#F58518" rx="2"/>
<text x="356.0" y="586.0" font-size="12" text-anchor="start" fill="#222">Buffer alloc</text>
<rect x="586" y="574" width="14" height="14" fill="#E45756" rx="2"/>
<text x="606.0" y="586.0" font-size="12" text-anchor="start" fill="#222">Dispatch wall</text>
<rect x="836" y="574" width="14" height="14" fill="#72B7B2" rx="2"/>
<text x="856.0" y="586.0" font-size="12" text-anchor="start" fill="#222">Query wait</text>
<rect x="1086" y="574" width="14" height="14" fill="#B279A2" rx="2"/>
<text x="1106.0" y="586.0" font-size="12" text-anchor="start" fill="#222">Readback wait</text>
<rect x="1336" y="574" width="14" height="14" fill="#54A24B" rx="2"/>
<text x="1356.0" y="586.0" font-size="12" text-anchor="start" fill="#222">GPU compute</text>
</svg>