<svg xmlns="http://www.w3.org/2000/svg" width="1080" height="620" viewBox="0 0 1080 620">
<rect width="100%" height="100%" fill="white"/>
<text x="540.0" y="32.0" font-size="22" text-anchor="middle" fill="#222">Average LOD cost by algorithm</text>
<text x="22.0" y="287.0" font-size="14" text-anchor="middle" fill="#222" transform="rotate(-90.0 22.0 287.0)">Avg LOD ms</text>
<line x1="86" y1="502.0" x2="1046" y2="502.0" stroke="#E5E5E5"/>
<text x="76.0" y="506.0" font-size="12" text-anchor="end" fill="#222">0.00</text>
<line x1="86" y1="416.0" x2="1046" y2="416.0" stroke="#E5E5E5"/>
<text x="76.0" y="420.0" font-size="12" text-anchor="end" fill="#222">6.10</text>
<line x1="86" y1="330.0" x2="1046" y2="330.0" stroke="#E5E5E5"/>
<text x="76.0" y="334.0" font-size="12" text-anchor="end" fill="#222">12.20</text>
<line x1="86" y1="244.0" x2="1046" y2="244.0" stroke="#E5E5E5"/>
<text x="76.0" y="248.0" font-size="12" text-anchor="end" fill="#222">18.30</text>
<line x1="86" y1="158.0" x2="1046" y2="158.0" stroke="#E5E5E5"/>
<text x="76.0" y="162.0" font-size="12" text-anchor="end" fill="#222">24.41</text>
<line x1="86" y1="72.0" x2="1046" y2="72.0" stroke="#E5E5E5"/>
<text x="76.0" y="76.0" font-size="12" text-anchor="end" fill="#222">30.51</text>
<line x1="86" y1="72" x2="86" y2="502" stroke="#333"/>
<line x1="86" y1="502" x2="1046" y2="502" stroke="#333"/>
<rect x="271.0" y="415.0" width="34.0" height="87.0" fill="#4C78A8" rx="2"/>
<text x="288.0" y="410.0" font-size="10" text-anchor="middle" fill="#222">6.17</text>
<rect x="309.0" y="454.8" width="34.0" height="47.2" fill="#F58518" rx="2"/>
<text x="326.0" y="449.8" font-size="10" text-anchor="middle" fill="#222">3.35</text>
<rect x="347.0" y="441.8" width="34.0" height="60.2" fill="#54A24B" rx="2"/>
<text x="364.0" y="436.8" font-size="10" text-anchor="middle" fill="#222">4.27</text>
<text x="326.0" y="536.0" font-size="12" text-anchor="middle" fill="#222" transform="rotate(-25.0 326.0 536.0)">Peking513</text>
<rect x="751.0" y="137.6" width="34.0" height="364.4" fill="#4C78A8" rx="2"/>
<text x="768.0" y="132.6" font-size="10" text-anchor="middle" fill="#222">25.85</text>
<rect x="789.0" y="364.6" width="34.0" height="137.4" fill="#F58518" rx="2"/>
<text x="806.0" y="359.6" font-size="10" text-anchor="middle" fill="#222">9.75</text>
<rect x="827.0" y="315.7" width="34.0" height="186.3" fill="#54A24B" rx="2"/>
<text x="844.0" y="310.7" font-size="10" text-anchor="middle" fill="#222">13.22</text>
<text x="806.0" y="536.0" font-size="12" text-anchor="middle" fill="#222" transform="rotate(-25.0 806.0 536.0)">Test129</text>
<rect x="86" y="574" width="14" height="14" fill="#4C78A8" rx="2"/>
<text x="106.0" y="586.0" font-size="12" text-anchor="start" fill="#222">Classic CPU ROAM</text>
<rect x="336" y="574" width="14" height="14" fill="#F58518" rx="2"/>
<text x="356.0" y="586.0" font-size="12" text-anchor="start" fill="#222">Data-Oriented CPU ROAM</text>
<rect x="586" y="574" width="14" height="14" fill="#54A24B" rx="2"/>
<text x="606.0" y="586.0" font-size="12" text-anchor="start" fill="#222">GPU ROAM-like</text>
</svg>