<svg xmlns="http://www.w3.org/2000/svg" width="1080" height="640" viewBox="0 0 1080 640">
<rect width="100%" height="100%" fill="white"/>
<style>text{font-family:Arial,"Microsoft YaHei",sans-serif;fill:#222}.small{font-size:12px}.axis{stroke:#333;stroke-width:1}.grid{stroke:#E5E5E5;stroke-width:1}</style>
<text x="540.0" y="34" font-size="22" text-anchor="middle">平均帧耗时对比</text>
<line class="grid" x1="92" y1="510.0" x2="1040" y2="510.0"/>
<text class="small" x="82" y="514.0" text-anchor="end">0.00</text>
<line class="grid" x1="92" y1="423.6" x2="1040" y2="423.6"/>
<text class="small" x="82" y="427.6" text-anchor="end">6.00</text>
<line class="grid" x1="92" y1="337.2" x2="1040" y2="337.2"/>
<text class="small" x="82" y="341.2" text-anchor="end">12.00</text>
<line class="grid" x1="92" y1="250.8" x2="1040" y2="250.8"/>
<text class="small" x="82" y="254.8" text-anchor="end">18.00</text>
<line class="grid" x1="92" y1="164.4" x2="1040" y2="164.4"/>
<text class="small" x="82" y="168.4" text-anchor="end">24.00</text>
<line class="grid" x1="92" y1="78.0" x2="1040" y2="78.0"/>
<text class="small" x="82" y="82.0" text-anchor="end">30.00</text>
<line class="axis" x1="92" y1="78" x2="92" y2="510"/>
<line class="axis" x1="92" y1="510" x2="1040" y2="510"/>
<text x="24" y="294.0" font-size="14" text-anchor="middle" transform="rotate(-90 24 294.0)">平均帧耗时（毫秒）</text>
<rect x="266.0" y="112.4" width="35.7" height="397.6" fill="#4C78A8" rx="2"/>
<text class="small" x="283.9" y="106.4" text-anchor="middle">27.61</text>
<rect x="308.0" y="356.0" width="35.7" height="154.0" fill="#F58518" rx="2"/>
<text class="small" x="325.9" y="350.0" text-anchor="middle">10.70</text>
<rect x="350.0" y="314.8" width="35.7" height="195.2" fill="#54A24B" rx="2"/>
<text class="small" x="367.9" y="308.8" text-anchor="middle">13.55</text>
<text class="small" x="329.0" y="546" text-anchor="middle">Test129 高度图</text>
<rect x="740.0" y="414.2" width="35.7" height="95.8" fill="#4C78A8" rx="2"/>
<text class="small" x="757.9" y="408.2" text-anchor="middle">6.66</text>
<rect x="782.0" y="456.4" width="35.7" height="53.6" fill="#F58518" rx="2"/>
<text class="small" x="799.9" y="450.4" text-anchor="middle">3.72</text>
<rect x="824.0" y="446.2" width="35.7" height="63.8" fill="#54A24B" rx="2"/>
<text class="small" x="841.9" y="440.2" text-anchor="middle">4.43</text>
<text class="small" x="803.0" y="546" text-anchor="middle">Peking513 高度图</text>
<rect x="92" y="580" width="14" height="14" fill="#4C78A8" rx="2"/>
<text class="small" x="112" y="592" text-anchor="start">经典 CPU ROAM</text>
<rect x="408" y="580" width="14" height="14" fill="#F58518" rx="2"/>
<text class="small" x="428" y="592" text-anchor="start">DOD CPU ROAM</text>
<rect x="724" y="580" width="14" height="14" fill="#54A24B" rx="2"/>
<text class="small" x="744" y="592" text-anchor="start">GPU 类 ROAM</text>
</svg>
