<svg xmlns="http://www.w3.org/2000/svg" width="1080" height="640" viewBox="0 0 1080 640">
<rect width="100%" height="100%" fill="white"/>
<style>text{font-family:Arial,"Microsoft YaHei",sans-serif;fill:#222}.small{font-size:12px}.axis{stroke:#333;stroke-width:1}.grid{stroke:#E5E5E5;stroke-width:1}</style>
<text x="540.0" y="34" font-size="22" text-anchor="middle">平均进程 CPU 利用率对比</text>
<line class="grid" x1="92" y1="510.0" x2="1040" y2="510.0"/>
<text class="small" x="82" y="514.0" text-anchor="end">0.00</text>
<line class="grid" x1="92" y1="423.6" x2="1040" y2="423.6"/>
<text class="small" x="82" y="427.6" text-anchor="end">120.00</text>
<line class="grid" x1="92" y1="337.2" x2="1040" y2="337.2"/>
<text class="small" x="82" y="341.2" text-anchor="end">240.00</text>
<line class="grid" x1="92" y1="250.8" x2="1040" y2="250.8"/>
<text class="small" x="82" y="254.8" text-anchor="end">360.00</text>
<line class="grid" x1="92" y1="164.4" x2="1040" y2="164.4"/>
<text class="small" x="82" y="168.4" text-anchor="end">480.00</text>
<line class="grid" x1="92" y1="78.0" x2="1040" y2="78.0"/>
<text class="small" x="82" y="82.0" text-anchor="end">600.00</text>
<line class="axis" x1="92" y1="78" x2="92" y2="510"/>
<line class="axis" x1="92" y1="510" x2="1040" y2="510"/>
<text x="24" y="294.0" font-size="14" text-anchor="middle" transform="rotate(-90 24 294.0)">CPU 利用率（%）</text>
<rect x="266.0" y="441.2" width="35.7" height="68.8" fill="#4C78A8" rx="2"/>
<text class="small" x="283.9" y="435.2" text-anchor="middle">95.61</text>
<rect x="308.0" y="272.6" width="35.7" height="237.4" fill="#F58518" rx="2"/>
<text class="small" x="325.9" y="266.6" text-anchor="middle">329.71</text>
<rect x="350.0" y="349.5" width="35.7" height="160.5" fill="#54A24B" rx="2"/>
<text class="small" x="367.9" y="343.5" text-anchor="middle">222.98</text>
<text class="small" x="329.0" y="546" text-anchor="middle">Test129 高度图</text>
<rect x="740.0" y="446.2" width="35.7" height="63.8" fill="#4C78A8" rx="2"/>
<text class="small" x="757.9" y="440.2" text-anchor="middle">88.55</text>
<rect x="782.0" y="293.3" width="35.7" height="216.7" fill="#F58518" rx="2"/>
<text class="small" x="799.9" y="287.3" text-anchor="middle">300.93</text>
<rect x="824.0" y="342.0" width="35.7" height="168.0" fill="#54A24B" rx="2"/>
<text class="small" x="841.9" y="336.0" text-anchor="middle">233.32</text>
<text class="small" x="803.0" y="546" text-anchor="middle">Peking513 高度图</text>
<rect x="92" y="580" width="14" height="14" fill="#4C78A8" rx="2"/>
<text class="small" x="112" y="592" text-anchor="start">经典 CPU ROAM</text>
<rect x="408" y="580" width="14" height="14" fill="#F58518" rx="2"/>
<text class="small" x="428" y="592" text-anchor="start">DOD CPU ROAM</text>
<rect x="724" y="580" width="14" height="14" fill="#54A24B" rx="2"/>
<text class="small" x="744" y="592" text-anchor="start">GPU 类 ROAM</text>
</svg>
