<svg xmlns="http://www.w3.org/2000/svg" width="1080" height="620" viewBox="0 0 1080 620">
<rect width="100%" height="100%" fill="white"/>
<text x="540.0" y="32.0" font-size="22" text-anchor="middle" fill="#222">Average frame time by algorithm</text>
<text x="22.0" y="287.0" font-size="14" text-anchor="middle" fill="#222" transform="rotate(-90.0 22.0 287.0)">Avg frame ms</text>
<line x1="86" y1="502.0" x2="1046" y2="502.0" stroke="#E5E5E5"/>
<text x="76.0" y="506.0" font-size="12" text-anchor="end" fill="#222">0.00</text>
<line x1="86" y1="416.0" x2="1046" y2="416.0" stroke="#E5E5E5"/>
<text x="76.0" y="420.0" font-size="12" text-anchor="end" fill="#222">6.52</text>
<line x1="86" y1="330.0" x2="1046" y2="330.0" stroke="#E5E5E5"/>
<text x="76.0" y="334.0" font-size="12" text-anchor="end" fill="#222">13.03</text>
<line x1="86" y1="244.0" x2="1046" y2="244.0" stroke="#E5E5E5"/>
<text x="76.0" y="248.0" font-size="12" text-anchor="end" fill="#222">19.55</text>
<line x1="86" y1="158.0" x2="1046" y2="158.0" stroke="#E5E5E5"/>
<text x="76.0" y="162.0" font-size="12" text-anchor="end" fill="#222">26.06</text>
<line x1="86" y1="72.0" x2="1046" y2="72.0" stroke="#E5E5E5"/>
<text x="76.0" y="76.0" font-size="12" text-anchor="end" fill="#222">32.58</text>
<line x1="86" y1="72" x2="86" y2="502" stroke="#333"/>
<line x1="86" y1="502" x2="1046" y2="502" stroke="#333"/>
<rect x="271.0" y="414.1" width="34.0" height="87.9" fill="#4C78A8" rx="2"/>
<text x="288.0" y="409.1" font-size="10" text-anchor="middle" fill="#222">6.66</text>
<rect x="309.0" y="452.8" width="34.0" height="49.2" fill="#F58518" rx="2"/>
<text x="326.0" y="447.8" font-size="10" text-anchor="middle" fill="#222">3.72</text>
<rect x="347.0" y="443.6" width="34.0" height="58.4" fill="#54A24B" rx="2"/>
<text x="364.0" y="438.6" font-size="10" text-anchor="middle" fill="#222">4.43</text>
<text x="326.0" y="536.0" font-size="12" text-anchor="middle" fill="#222" transform="rotate(-25.0 326.0 536.0)">Peking513</text>
<rect x="751.0" y="137.6" width="34.0" height="364.4" fill="#4C78A8" rx="2"/>
<text x="768.0" y="132.6" font-size="10" text-anchor="middle" fill="#222">27.61</text>
<rect x="789.0" y="360.8" width="34.0" height="141.2" fill="#F58518" rx="2"/>
<text x="806.0" y="355.8" font-size="10" text-anchor="middle" fill="#222">10.70</text>
<rect x="827.0" y="323.1" width="34.0" height="178.9" fill="#54A24B" rx="2"/>
<text x="844.0" y="318.1" font-size="10" text-anchor="middle" fill="#222">13.55</text>
<text x="806.0" y="536.0" font-size="12" text-anchor="middle" fill="#222" transform="rotate(-25.0 806.0 536.0)">Test129</text>
<rect x="86" y="574" width="14" height="14" fill="#4C78A8" rx="2"/>
<text x="106.0" y="586.0" font-size="12" text-anchor="start" fill="#222">Classic CPU ROAM</text>
<rect x="336" y="574" width="14" height="14" fill="#F58518" rx="2"/>
<text x="356.0" y="586.0" font-size="12" text-anchor="start" fill="#222">Data-Oriented CPU ROAM</text>
<rect x="586" y="574" width="14" height="14" fill="#54A24B" rx="2"/>
<text x="606.0" y="586.0" font-size="12" text-anchor="start" fill="#222">GPU ROAM-like</text>
</svg>