<svg xmlns="http://www.w3.org/2000/svg" width="1080" height="640" viewBox="0 0 1080 640">
<rect width="100%" height="100%" fill="white"/>
<style>text{font-family:Arial,"Microsoft YaHei",sans-serif;fill:#222}.small{font-size:12px}.axis{stroke:#333;stroke-width:1}.grid{stroke:#E5E5E5;stroke-width:1}</style>
<text x="540.0" y="34" font-size="22" text-anchor="middle">平均 LOD 耗时对比</text>
<line class="grid" x1="92" y1="510.0" x2="1040" y2="510.0"/>
<text class="small" x="82" y="514.0" text-anchor="end">0.00</text>
<line class="grid" x1="92" y1="423.6" x2="1040" y2="423.6"/>
<text class="small" x="82" y="427.6" text-anchor="end">6.00</text>
<line class="grid" x1="92" y1="337.2" x2="1040" y2="337.2"/>
<text class="small" x="82" y="341.2" text-anchor="end">12.00</text>
<line class="grid" x1="92" y1="250.8" x2="1040" y2="250.8"/>
<text class="small" x="82" y="254.8" text-anchor="end">18.00</text>
<line class="grid" x1="92" y1="164.4" x2="1040" y2="164.4"/>
<text class="small" x="82" y="168.4" text-anchor="end">24.00</text>
<line class="grid" x1="92" y1="78.0" x2="1040" y2="78.0"/>
<text class="small" x="82" y="82.0" text-anchor="end">30.00</text>
<line class="axis" x1="92" y1="78" x2="92" y2="510"/>
<line class="axis" x1="92" y1="510" x2="1040" y2="510"/>
<text x="24" y="294.0" font-size="14" text-anchor="middle" transform="rotate(-90 24 294.0)">平均 LOD 耗时（毫秒）</text>
<rect x="266.0" y="137.7" width="35.7" height="372.3" fill="#4C78A8" rx="2"/>
<text class="small" x="283.9" y="131.7" text-anchor="middle">25.85</text>
<rect x="308.0" y="369.6" width="35.7" height="140.4" fill="#F58518" rx="2"/>
<text class="small" x="325.9" y="363.6" text-anchor="middle">9.75</text>
<rect x="350.0" y="319.6" width="35.7" height="190.4" fill="#54A24B" rx="2"/>
<text class="small" x="367.9" y="313.6" text-anchor="middle">13.22</text>
<text class="small" x="329.0" y="546" text-anchor="middle">Test129 高度图</text>
<rect x="740.0" y="421.1" width="35.7" height="88.9" fill="#4C78A8" rx="2"/>
<text class="small" x="757.9" y="415.1" text-anchor="middle">6.17</text>
<rect x="782.0" y="461.8" width="35.7" height="48.2" fill="#F58518" rx="2"/>
<text class="small" x="799.9" y="455.8" text-anchor="middle">3.35</text>
<rect x="824.0" y="448.5" width="35.7" height="61.5" fill="#54A24B" rx="2"/>
<text class="small" x="841.9" y="442.5" text-anchor="middle">4.27</text>
<text class="small" x="803.0" y="546" text-anchor="middle">Peking513 高度图</text>
<rect x="92" y="580" width="14" height="14" fill="#4C78A8" rx="2"/>
<text class="small" x="112" y="592" text-anchor="start">经典 CPU ROAM</text>
<rect x="408" y="580" width="14" height="14" fill="#F58518" rx="2"/>
<text class="small" x="428" y="592" text-anchor="start">DOD CPU ROAM</text>
<rect x="724" y="580" width="14" height="14" fill="#54A24B" rx="2"/>
<text class="small" x="744" y="592" text-anchor="start">GPU 类 ROAM</text>
</svg>
