<svg xmlns="http://www.w3.org/2000/svg" width="1080" height="620" viewBox="0 0 1080 620">
<rect width="100%" height="100%" fill="white"/>
<text x="540.0" y="32.0" font-size="22" text-anchor="middle" fill="#222">Average generated triangles</text>
<text x="22.0" y="287.0" font-size="14" text-anchor="middle" fill="#222" transform="rotate(-90.0 22.0 287.0)">Triangles</text>
<line x1="86" y1="502.0" x2="1046" y2="502.0" stroke="#E5E5E5"/>
<text x="76.0" y="506.0" font-size="12" text-anchor="end" fill="#222">0.00</text>
<line x1="86" y1="416.0" x2="1046" y2="416.0" stroke="#E5E5E5"/>
<text x="76.0" y="420.0" font-size="12" text-anchor="end" fill="#222">7424.68</text>
<line x1="86" y1="330.0" x2="1046" y2="330.0" stroke="#E5E5E5"/>
<text x="76.0" y="334.0" font-size="12" text-anchor="end" fill="#222">14849.36</text>
<line x1="86" y1="244.0" x2="1046" y2="244.0" stroke="#E5E5E5"/>
<text x="76.0" y="248.0" font-size="12" text-anchor="end" fill="#222">22274.05</text>
<line x1="86" y1="158.0" x2="1046" y2="158.0" stroke="#E5E5E5"/>
<text x="76.0" y="162.0" font-size="12" text-anchor="end" fill="#222">29698.73</text>
<line x1="86" y1="72.0" x2="1046" y2="72.0" stroke="#E5E5E5"/>
<text x="76.0" y="76.0" font-size="12" text-anchor="end" fill="#222">37123.41</text>
<line x1="86" y1="72" x2="86" y2="502" stroke="#333"/>
<line x1="86" y1="502" x2="1046" y2="502" stroke="#333"/>
<rect x="271.0" y="376.9" width="34.0" height="125.1" fill="#4C78A8" rx="2"/>
<text x="288.0" y="371.9" font-size="10" text-anchor="middle" fill="#222">10798.52</text>
<rect x="309.0" y="376.6" width="34.0" height="125.4" fill="#F58518" rx="2"/>
<text x="326.0" y="371.6" font-size="10" text-anchor="middle" fill="#222">10824.17</text>
<rect x="347.0" y="376.5" width="34.0" height="125.5" fill="#54A24B" rx="2"/>
<text x="364.0" y="371.5" font-size="10" text-anchor="middle" fill="#222">10834.63</text>
<text x="326.0" y="536.0" font-size="12" text-anchor="middle" fill="#222" transform="rotate(-25.0 326.0 536.0)">Peking513</text>
<rect x="751.0" y="139.0" width="34.0" height="363.0" fill="#4C78A8" rx="2"/>
<text x="768.0" y="134.0" font-size="10" text-anchor="middle" fill="#222">31334.77</text>
<rect x="789.0" y="137.6" width="34.0" height="364.4" fill="#F58518" rx="2"/>
<text x="806.0" y="132.6" font-size="10" text-anchor="middle" fill="#222">31460.52</text>
<rect x="827.0" y="138.5" width="34.0" height="363.5" fill="#54A24B" rx="2"/>
<text x="844.0" y="133.5" font-size="10" text-anchor="middle" fill="#222">31384.48</text>
<text x="806.0" y="536.0" font-size="12" text-anchor="middle" fill="#222" transform="rotate(-25.0 806.0 536.0)">Test129</text>
<rect x="86" y="574" width="14" height="14" fill="#4C78A8" rx="2"/>
<text x="106.0" y="586.0" font-size="12" text-anchor="start" fill="#222">Classic CPU ROAM</text>
<rect x="336" y="574" width="14" height="14" fill="#F58518" rx="2"/>
<text x="356.0" y="586.0" font-size="12" text-anchor="start" fill="#222">Data-Oriented CPU ROAM</text>
<rect x="586" y="574" width="14" height="14" fill="#54A24B" rx="2"/>
<text x="606.0" y="586.0" font-size="12" text-anchor="start" fill="#222">GPU ROAM-like</text>
</svg>