<svg xmlns="http://www.w3.org/2000/svg" width="1080" height="640" viewBox="0 0 1080 640">
<rect width="100%" height="100%" fill="white"/>
<style>text{font-family:Arial,"Microsoft YaHei",sans-serif;fill:#222}.small{font-size:12px}.axis{stroke:#333;stroke-width:1}.grid{stroke:#E5E5E5;stroke-width:1}</style>
<text x="540.0" y="34" font-size="22" text-anchor="middle">实验1：LOD 耗时分布</text>
<line class="grid" x1="92" y1="510.0" x2="1040" y2="510.0"/>
<text class="small" x="82" y="514.0" text-anchor="end">0.00</text>
<line class="grid" x1="92" y1="423.6" x2="1040" y2="423.6"/>
<text class="small" x="82" y="427.6" text-anchor="end">12.00</text>
<line class="grid" x1="92" y1="337.2" x2="1040" y2="337.2"/>
<text class="small" x="82" y="341.2" text-anchor="end">24.00</text>
<line class="grid" x1="92" y1="250.8" x2="1040" y2="250.8"/>
<text class="small" x="82" y="254.8" text-anchor="end">36.00</text>
<line class="grid" x1="92" y1="164.4" x2="1040" y2="164.4"/>
<text class="small" x="82" y="168.4" text-anchor="end">48.00</text>
<line class="grid" x1="92" y1="78.0" x2="1040" y2="78.0"/>
<text class="small" x="82" y="82.0" text-anchor="end">60.00</text>
<line class="axis" x1="92" y1="78" x2="92" y2="510"/>
<line class="axis" x1="92" y1="510" x2="1040" y2="510"/>
<text x="24" y="294.0" font-size="14" text-anchor="middle" transform="rotate(-90 24 294.0)">毫秒</text>
<rect x="147.5" y="332.5" width="35.7" height="177.5" fill="#4C78A8" rx="2"/>
<text class="small" x="165.3" y="326.5" text-anchor="middle">24.65</text>
<rect x="189.5" y="434.9" width="35.7" height="75.1" fill="#F58518" rx="2"/>
<text class="small" x="207.3" y="428.9" text-anchor="middle">10.43</text>
<rect x="231.5" y="413.7" width="35.7" height="96.3" fill="#54A24B" rx="2"/>
<text class="small" x="249.3" y="407.7" text-anchor="middle">13.38</text>
<text class="small" x="210.5" y="546" text-anchor="middle">平均值</text>
<rect x="384.5" y="336.6" width="35.7" height="173.4" fill="#4C78A8" rx="2"/>
<text class="small" x="402.4" y="330.6" text-anchor="middle">24.09</text>
<rect x="426.5" y="435.2" width="35.7" height="74.8" fill="#F58518" rx="2"/>
<text class="small" x="444.4" y="429.2" text-anchor="middle">10.39</text>
<rect x="468.5" y="412.1" width="35.7" height="97.9" fill="#54A24B" rx="2"/>
<text class="small" x="486.4" y="406.1" text-anchor="middle">13.60</text>
<text class="small" x="447.5" y="546" text-anchor="middle">P50</text>
<rect x="621.5" y="280.8" width="35.7" height="229.2" fill="#4C78A8" rx="2"/>
<text class="small" x="639.4" y="274.8" text-anchor="middle">31.83</text>
<rect x="663.5" y="414.9" width="35.7" height="95.1" fill="#F58518" rx="2"/>
<text class="small" x="681.4" y="408.9" text-anchor="middle">13.20</text>
<rect x="705.5" y="393.7" width="35.7" height="116.3" fill="#54A24B" rx="2"/>
<text class="small" x="723.4" y="387.7" text-anchor="middle">16.15</text>
<text class="small" x="684.5" y="546" text-anchor="middle">P90</text>
<rect x="858.5" y="255.2" width="35.7" height="254.8" fill="#4C78A8" rx="2"/>
<text class="small" x="876.4" y="249.2" text-anchor="middle">35.39</text>
<rect x="900.5" y="408.6" width="35.7" height="101.4" fill="#F58518" rx="2"/>
<text class="small" x="918.4" y="402.6" text-anchor="middle">14.09</text>
<rect x="942.5" y="387.0" width="35.7" height="123.0" fill="#54A24B" rx="2"/>
<text class="small" x="960.4" y="381.0" text-anchor="middle">17.08</text>
<text class="small" x="921.5" y="546" text-anchor="middle">P95</text>
<rect x="92" y="580" width="14" height="14" fill="#4C78A8" rx="2"/>
<text class="small" x="112" y="592" text-anchor="start">经典 CPU ROAM</text>
<rect x="408" y="580" width="14" height="14" fill="#F58518" rx="2"/>
<text class="small" x="428" y="592" text-anchor="start">DOD CPU ROAM</text>
<rect x="724" y="580" width="14" height="14" fill="#54A24B" rx="2"/>
<text class="small" x="744" y="592" text-anchor="start">GPU 类 ROAM</text>
</svg>
