<svg xmlns="http://www.w3.org/2000/svg" width="1080" height="620" viewBox="0 0 1080 620">
<rect width="100%" height="100%" fill="white"/>
<text x="540.0" y="32.0" font-size="22" text-anchor="middle" fill="#222">Average frame time by algorithm</text>
<text x="22.0" y="287.0" font-size="14" text-anchor="middle" fill="#222" transform="rotate(-90.0 22.0 287.0)">Avg frame ms</text>
<line x1="86" y1="502.0" x2="1046" y2="502.0" stroke="#E5E5E5"/>
<text x="76.0" y="506.0" font-size="12" text-anchor="end" fill="#222">0.00</text>
<line x1="86" y1="416.0" x2="1046" y2="416.0" stroke="#E5E5E5"/>
<text x="76.0" y="420.0" font-size="12" text-anchor="end" fill="#222">6.25</text>
<line x1="86" y1="330.0" x2="1046" y2="330.0" stroke="#E5E5E5"/>
<text x="76.0" y="334.0" font-size="12" text-anchor="end" fill="#222">12.51</text>
<line x1="86" y1="244.0" x2="1046" y2="244.0" stroke="#E5E5E5"/>
<text x="76.0" y="248.0" font-size="12" text-anchor="end" fill="#222">18.76</text>
<line x1="86" y1="158.0" x2="1046" y2="158.0" stroke="#E5E5E5"/>
<text x="76.0" y="162.0" font-size="12" text-anchor="end" fill="#222">25.02</text>
<line x1="86" y1="72.0" x2="1046" y2="72.0" stroke="#E5E5E5"/>
<text x="76.0" y="76.0" font-size="12" text-anchor="end" fill="#222">31.27</text>
<line x1="86" y1="72" x2="86" y2="502" stroke="#333"/>
<line x1="86" y1="502" x2="1046" y2="502" stroke="#333"/>
<rect x="191.0" y="141.3" width="34.0" height="360.7" fill="#4C78A8" rx="2"/>
<text x="208.0" y="136.3" font-size="10" text-anchor="middle" fill="#222">26.23</text>
<rect x="229.0" y="330.0" width="34.0" height="172.0" fill="#F58518" rx="2"/>
<text x="246.0" y="325.0" font-size="10" text-anchor="middle" fill="#222">12.51</text>
<rect x="267.0" y="311.9" width="34.0" height="190.1" fill="#54A24B" rx="2"/>
<text x="284.0" y="306.9" font-size="10" text-anchor="middle" fill="#222">13.83</text>
<text x="246.0" y="536.0" font-size="12" text-anchor="middle" fill="#222" transform="rotate(-25.0 246.0 536.0)">r01</text>
<rect x="511.0" y="137.6" width="34.0" height="364.4" fill="#4C78A8" rx="2"/>
<text x="528.0" y="132.6" font-size="10" text-anchor="middle" fill="#222">26.50</text>
<rect x="549.0" y="350.3" width="34.0" height="151.7" fill="#F58518" rx="2"/>
<text x="566.0" y="345.3" font-size="10" text-anchor="middle" fill="#222">11.03</text>
<rect x="587.0" y="314.1" width="34.0" height="187.9" fill="#54A24B" rx="2"/>
<text x="604.0" y="309.1" font-size="10" text-anchor="middle" fill="#222">13.66</text>
<text x="566.0" y="536.0" font-size="12" text-anchor="middle" fill="#222" transform="rotate(-25.0 566.0 536.0)">r02</text>
<rect x="831.0" y="138.1" width="34.0" height="363.9" fill="#4C78A8" rx="2"/>
<text x="848.0" y="133.1" font-size="10" text-anchor="middle" fill="#222">26.46</text>
<rect x="869.0" y="355.0" width="34.0" height="147.0" fill="#F58518" rx="2"/>
<text x="886.0" y="350.0" font-size="10" text-anchor="middle" fill="#222">10.69</text>
<rect x="907.0" y="316.1" width="34.0" height="185.9" fill="#54A24B" rx="2"/>
<text x="924.0" y="311.1" font-size="10" text-anchor="middle" fill="#222">13.52</text>
<text x="886.0" y="536.0" font-size="12" text-anchor="middle" fill="#222" transform="rotate(-25.0 886.0 536.0)">r03</text>
<rect x="86" y="574" width="14" height="14" fill="#4C78A8" rx="2"/>
<text x="106.0" y="586.0" font-size="12" text-anchor="start" fill="#222">Classic CPU ROAM</text>
<rect x="336" y="574" width="14" height="14" fill="#F58518" rx="2"/>
<text x="356.0" y="586.0" font-size="12" text-anchor="start" fill="#222">Data-Oriented CPU ROAM</text>
<rect x="586" y="574" width="14" height="14" fill="#54A24B" rx="2"/>
<text x="606.0" y="586.0" font-size="12" text-anchor="start" fill="#222">GPU ROAM-like</text>
</svg>