<svg xmlns="http://www.w3.org/2000/svg" width="1080" height="620" viewBox="0 0 1080 620">
<rect width="100%" height="100%" fill="white"/>
<text x="540.0" y="32.0" font-size="22" text-anchor="middle" fill="#222">Average LOD cost by algorithm</text>
<text x="22.0" y="287.0" font-size="14" text-anchor="middle" fill="#222" transform="rotate(-90.0 22.0 287.0)">Avg LOD ms</text>
<line x1="86" y1="502.0" x2="1046" y2="502.0" stroke="#E5E5E5"/>
<text x="76.0" y="506.0" font-size="12" text-anchor="end" fill="#222">0.00</text>
<line x1="86" y1="416.0" x2="1046" y2="416.0" stroke="#E5E5E5"/>
<text x="76.0" y="420.0" font-size="12" text-anchor="end" fill="#222">5.85</text>
<line x1="86" y1="330.0" x2="1046" y2="330.0" stroke="#E5E5E5"/>
<text x="76.0" y="334.0" font-size="12" text-anchor="end" fill="#222">11.70</text>
<line x1="86" y1="244.0" x2="1046" y2="244.0" stroke="#E5E5E5"/>
<text x="76.0" y="248.0" font-size="12" text-anchor="end" fill="#222">17.55</text>
<line x1="86" y1="158.0" x2="1046" y2="158.0" stroke="#E5E5E5"/>
<text x="76.0" y="162.0" font-size="12" text-anchor="end" fill="#222">23.40</text>
<line x1="86" y1="72.0" x2="1046" y2="72.0" stroke="#E5E5E5"/>
<text x="76.0" y="76.0" font-size="12" text-anchor="end" fill="#222">29.25</text>
<line x1="86" y1="72" x2="86" y2="502" stroke="#333"/>
<line x1="86" y1="502" x2="1046" y2="502" stroke="#333"/>
<rect x="191.0" y="142.4" width="34.0" height="359.6" fill="#4C78A8" rx="2"/>
<text x="208.0" y="137.4" font-size="10" text-anchor="middle" fill="#222">24.46</text>
<rect x="229.0" y="330.5" width="34.0" height="171.5" fill="#F58518" rx="2"/>
<text x="246.0" y="325.5" font-size="10" text-anchor="middle" fill="#222">11.66</text>
<rect x="267.0" y="301.8" width="34.0" height="200.2" fill="#54A24B" rx="2"/>
<text x="284.0" y="296.8" font-size="10" text-anchor="middle" fill="#222">13.62</text>
<text x="246.0" y="536.0" font-size="12" text-anchor="middle" fill="#222" transform="rotate(-25.0 246.0 536.0)">r01</text>
<rect x="511.0" y="137.6" width="34.0" height="364.4" fill="#4C78A8" rx="2"/>
<text x="528.0" y="132.6" font-size="10" text-anchor="middle" fill="#222">24.79</text>
<rect x="549.0" y="354.0" width="34.0" height="148.0" fill="#F58518" rx="2"/>
<text x="566.0" y="349.0" font-size="10" text-anchor="middle" fill="#222">10.07</text>
<rect x="587.0" y="306.0" width="34.0" height="196.0" fill="#54A24B" rx="2"/>
<text x="604.0" y="301.0" font-size="10" text-anchor="middle" fill="#222">13.33</text>
<text x="566.0" y="536.0" font-size="12" text-anchor="middle" fill="#222" transform="rotate(-25.0 566.0 536.0)">r02</text>
<rect x="831.0" y="139.0" width="34.0" height="363.0" fill="#4C78A8" rx="2"/>
<text x="848.0" y="134.0" font-size="10" text-anchor="middle" fill="#222">24.69</text>
<rect x="869.0" y="359.0" width="34.0" height="143.0" fill="#F58518" rx="2"/>
<text x="886.0" y="354.0" font-size="10" text-anchor="middle" fill="#222">9.73</text>
<rect x="907.0" y="308.1" width="34.0" height="193.9" fill="#54A24B" rx="2"/>
<text x="924.0" y="303.1" font-size="10" text-anchor="middle" fill="#222">13.19</text>
<text x="886.0" y="536.0" font-size="12" text-anchor="middle" fill="#222" transform="rotate(-25.0 886.0 536.0)">r03</text>
<rect x="86" y="574" width="14" height="14" fill="#4C78A8" rx="2"/>
<text x="106.0" y="586.0" font-size="12" text-anchor="start" fill="#222">Classic CPU ROAM</text>
<rect x="336" y="574" width="14" height="14" fill="#F58518" rx="2"/>
<text x="356.0" y="586.0" font-size="12" text-anchor="start" fill="#222">Data-Oriented CPU ROAM</text>
<rect x="586" y="574" width="14" height="14" fill="#54A24B" rx="2"/>
<text x="606.0" y="586.0" font-size="12" text-anchor="start" fill="#222">GPU ROAM-like</text>
</svg>