<svg xmlns="http://www.w3.org/2000/svg" width="1080" height="640" viewBox="0 0 1080 640">
<rect width="100%" height="100%" fill="white"/>
<style>text{font-family:Arial,"Microsoft YaHei",sans-serif;fill:#222}.small{font-size:12px}.axis{stroke:#333;stroke-width:1}.grid{stroke:#E5E5E5;stroke-width:1}</style>
<text x="540.0" y="34" font-size="22" text-anchor="middle">实验2：最大深度对平均 LOD 耗时的影响</text>
<line class="grid" x1="92" y1="510.0" x2="1040" y2="510.0"/>
<text class="small" x="82" y="514.0" text-anchor="end">0.00</text>
<line class="grid" x1="92" y1="423.6" x2="1040" y2="423.6"/>
<text class="small" x="82" y="427.6" text-anchor="end">6.00</text>
<line class="grid" x1="92" y1="337.2" x2="1040" y2="337.2"/>
<text class="small" x="82" y="341.2" text-anchor="end">12.00</text>
<line class="grid" x1="92" y1="250.8" x2="1040" y2="250.8"/>
<text class="small" x="82" y="254.8" text-anchor="end">18.00</text>
<line class="grid" x1="92" y1="164.4" x2="1040" y2="164.4"/>
<text class="small" x="82" y="168.4" text-anchor="end">24.00</text>
<line class="grid" x1="92" y1="78.0" x2="1040" y2="78.0"/>
<text class="small" x="82" y="82.0" text-anchor="end">30.00</text>
<line class="axis" x1="92" y1="78" x2="92" y2="510"/>
<line class="axis" x1="92" y1="510" x2="1040" y2="510"/>
<text x="24" y="294.0" font-size="14" text-anchor="middle" transform="rotate(-90 24 294.0)">平均 LOD 耗时（毫秒）</text>
<line class="grid" x1="92.0" y1="510" x2="92.0" y2="515"/>
<text class="small" x="92.0" y="544" text-anchor="middle">12</text>
<line class="grid" x1="329.0" y1="510" x2="329.0" y2="515"/>
<text class="small" x="329.0" y="544" text-anchor="middle">14</text>
<line class="grid" x1="566.0" y1="510" x2="566.0" y2="515"/>
<text class="small" x="566.0" y="544" text-anchor="middle">16</text>
<line class="grid" x1="803.0" y1="510" x2="803.0" y2="515"/>
<text class="small" x="803.0" y="544" text-anchor="middle">18</text>
<line class="grid" x1="1040.0" y1="510" x2="1040.0" y2="515"/>
<text class="small" x="1040.0" y="544" text-anchor="middle">20</text>
<polyline points="92.0,457.4 329.0,266.9 566.0,162.5 803.0,146.2 1040.0,151.8" fill="none" stroke="#4C78A8" stroke-width="3"/>
<circle cx="92.0" cy="457.4" r="4" fill="#4C78A8"/>
<text class="small" x="92.0" y="449.4" text-anchor="middle">3.7</text>
<circle cx="329.0" cy="266.9" r="4" fill="#4C78A8"/>
<text class="small" x="329.0" y="258.9" text-anchor="middle">16.9</text>
<circle cx="566.0" cy="162.5" r="4" fill="#4C78A8"/>
<text class="small" x="566.0" y="154.5" text-anchor="middle">24.1</text>
<circle cx="803.0" cy="146.2" r="4" fill="#4C78A8"/>
<text class="small" x="803.0" y="138.2" text-anchor="middle">25.3</text>
<circle cx="1040.0" cy="151.8" r="4" fill="#4C78A8"/>
<text class="small" x="1040.0" y="143.8" text-anchor="middle">24.9</text>
<polyline points="92.0,477.7 329.0,401.4 566.0,368.9 803.0,367.4 1040.0,369.3" fill="none" stroke="#F58518" stroke-width="3"/>
<circle cx="92.0" cy="477.7" r="4" fill="#F58518"/>
<text class="small" x="92.0" y="469.7" text-anchor="middle">2.2</text>
<circle cx="329.0" cy="401.4" r="4" fill="#F58518"/>
<text class="small" x="329.0" y="393.4" text-anchor="middle">7.5</text>
<circle cx="566.0" cy="368.9" r="4" fill="#F58518"/>
<text class="small" x="566.0" y="360.9" text-anchor="middle">9.8</text>
<circle cx="803.0" cy="367.4" r="4" fill="#F58518"/>
<text class="small" x="803.0" y="359.4" text-anchor="middle">9.9</text>
<circle cx="1040.0" cy="369.3" r="4" fill="#F58518"/>
<text class="small" x="1040.0" y="361.3" text-anchor="middle">9.8</text>
<polyline points="92.0,465.2 329.0,364.7 566.0,319.6 803.0,314.3 1040.0,318.1" fill="none" stroke="#54A24B" stroke-width="3"/>
<circle cx="92.0" cy="465.2" r="4" fill="#54A24B"/>
<text class="small" x="92.0" y="457.2" text-anchor="middle">3.1</text>
<circle cx="329.0" cy="364.7" r="4" fill="#54A24B"/>
<text class="small" x="329.0" y="356.7" text-anchor="middle">10.1</text>
<circle cx="566.0" cy="319.6" r="4" fill="#54A24B"/>
<text class="small" x="566.0" y="311.6" text-anchor="middle">13.2</text>
<circle cx="803.0" cy="314.3" r="4" fill="#54A24B"/>
<text class="small" x="803.0" y="306.3" text-anchor="middle">13.6</text>
<circle cx="1040.0" cy="318.1" r="4" fill="#54A24B"/>
<text class="small" x="1040.0" y="310.1" text-anchor="middle">13.3</text>
<rect x="92" y="580" width="14" height="14" fill="#4C78A8" rx="2"/>
<text class="small" x="112" y="592" text-anchor="start">经典 CPU ROAM</text>
<rect x="408" y="580" width="14" height="14" fill="#F58518" rx="2"/>
<text class="small" x="428" y="592" text-anchor="start">DOD CPU ROAM</text>
<rect x="724" y="580" width="14" height="14" fill="#54A24B" rx="2"/>
<text class="small" x="744" y="592" text-anchor="start">GPU 类 ROAM</text>
</svg>
