<svg xmlns="http://www.w3.org/2000/svg" width="1080" height="640" viewBox="0 0 1080 640">
<rect width="100%" height="100%" fill="white"/>
<style>text{font-family:Arial,"Microsoft YaHei",sans-serif;fill:#222}.small{font-size:12px}.axis{stroke:#333;stroke-width:1}.grid{stroke:#E5E5E5;stroke-width:1}</style>
<text x="540.0" y="34" font-size="22" text-anchor="middle">平均帧耗时对比</text>
<line class="grid" x1="92" y1="510.0" x2="1040" y2="510.0"/>
<text class="small" x="82" y="514.0" text-anchor="end">0.00</text>
<line class="grid" x1="92" y1="423.6" x2="1040" y2="423.6"/>
<text class="small" x="82" y="427.6" text-anchor="end">6.00</text>
<line class="grid" x1="92" y1="337.2" x2="1040" y2="337.2"/>
<text class="small" x="82" y="341.2" text-anchor="end">12.00</text>
<line class="grid" x1="92" y1="250.8" x2="1040" y2="250.8"/>
<text class="small" x="82" y="254.8" text-anchor="end">18.00</text>
<line class="grid" x1="92" y1="164.4" x2="1040" y2="164.4"/>
<text class="small" x="82" y="168.4" text-anchor="end">24.00</text>
<line class="grid" x1="92" y1="78.0" x2="1040" y2="78.0"/>
<text class="small" x="82" y="82.0" text-anchor="end">30.00</text>
<line class="axis" x1="92" y1="78" x2="92" y2="510"/>
<line class="axis" x1="92" y1="510" x2="1040" y2="510"/>
<text x="24" y="294.0" font-size="14" text-anchor="middle" transform="rotate(-90 24 294.0)">平均帧耗时（毫秒）</text>
<rect x="123.8" y="452.5" width="35.7" height="57.5" fill="#4C78A8" rx="2"/>
<text class="small" x="141.7" y="446.5" text-anchor="middle">4.00</text>
<rect x="165.8" y="473.6" width="35.7" height="36.4" fill="#F58518" rx="2"/>
<text class="small" x="183.7" y="467.6" text-anchor="middle">2.53</text>
<rect x="207.8" y="463.4" width="35.7" height="46.6" fill="#54A24B" rx="2"/>
<text class="small" x="225.7" y="457.4" text-anchor="middle">3.23</text>
<text class="small" x="186.8" y="546" text-anchor="middle">最大深度 12</text>
<rect x="313.4" y="246.2" width="35.7" height="263.8" fill="#4C78A8" rx="2"/>
<text class="small" x="331.2" y="240.2" text-anchor="middle">18.32</text>
<rect x="355.4" y="390.6" width="35.7" height="119.4" fill="#F58518" rx="2"/>
<text class="small" x="373.2" y="384.6" text-anchor="middle">8.29</text>
<rect x="397.4" y="360.3" width="35.7" height="149.7" fill="#54A24B" rx="2"/>
<text class="small" x="415.2" y="354.3" text-anchor="middle">10.40</text>
<text class="small" x="376.4" y="546" text-anchor="middle">最大深度 14</text>
<rect x="503.0" y="137.8" width="35.7" height="372.2" fill="#4C78A8" rx="2"/>
<text class="small" x="520.9" y="131.8" text-anchor="middle">25.85</text>
<rect x="545.0" y="355.0" width="35.7" height="155.0" fill="#F58518" rx="2"/>
<text class="small" x="562.9" y="349.0" text-anchor="middle">10.77</text>
<rect x="587.0" y="314.9" width="35.7" height="195.1" fill="#54A24B" rx="2"/>
<text class="small" x="604.9" y="308.9" text-anchor="middle">13.55</text>
<text class="small" x="566.0" y="546" text-anchor="middle">最大深度 16</text>
<rect x="692.6" y="120.5" width="35.7" height="389.5" fill="#4C78A8" rx="2"/>
<text class="small" x="710.5" y="114.5" text-anchor="middle">27.05</text>
<rect x="734.6" y="353.4" width="35.7" height="156.6" fill="#F58518" rx="2"/>
<text class="small" x="752.5" y="347.4" text-anchor="middle">10.88</text>
<rect x="776.6" y="309.4" width="35.7" height="200.6" fill="#54A24B" rx="2"/>
<text class="small" x="794.5" y="303.4" text-anchor="middle">13.93</text>
<text class="small" x="755.6" y="546" text-anchor="middle">最大深度 18</text>
<rect x="882.2" y="127.0" width="35.7" height="383.0" fill="#4C78A8" rx="2"/>
<text class="small" x="900.0" y="121.0" text-anchor="middle">26.60</text>
<rect x="924.2" y="355.5" width="35.7" height="154.5" fill="#F58518" rx="2"/>
<text class="small" x="942.0" y="349.5" text-anchor="middle">10.73</text>
<rect x="966.2" y="313.4" width="35.7" height="196.6" fill="#54A24B" rx="2"/>
<text class="small" x="984.0" y="307.4" text-anchor="middle">13.65</text>
<text class="small" x="945.2" y="546" text-anchor="middle">最大深度 20</text>
<rect x="92" y="580" width="14" height="14" fill="#4C78A8" rx="2"/>
<text class="small" x="112" y="592" text-anchor="start">经典 CPU ROAM</text>
<rect x="408" y="580" width="14" height="14" fill="#F58518" rx="2"/>
<text class="small" x="428" y="592" text-anchor="start">DOD CPU ROAM</text>
<rect x="724" y="580" width="14" height="14" fill="#54A24B" rx="2"/>
<text class="small" x="744" y="592" text-anchor="start">GPU 类 ROAM</text>
</svg>
