<svg xmlns="http://www.w3.org/2000/svg" width="1080" height="620" viewBox="0 0 1080 620">
<rect width="100%" height="100%" fill="white"/>
<text x="540.0" y="32.0" font-size="22" text-anchor="middle" fill="#222">Average frame time by algorithm</text>
<text x="22.0" y="287.0" font-size="14" text-anchor="middle" fill="#222" transform="rotate(-90.0 22.0 287.0)">Avg frame ms</text>
<line x1="86" y1="502.0" x2="1046" y2="502.0" stroke="#E5E5E5"/>
<text x="76.0" y="506.0" font-size="12" text-anchor="end" fill="#222">0.00</text>
<line x1="86" y1="416.0" x2="1046" y2="416.0" stroke="#E5E5E5"/>
<text x="76.0" y="420.0" font-size="12" text-anchor="end" fill="#222">6.38</text>
<line x1="86" y1="330.0" x2="1046" y2="330.0" stroke="#E5E5E5"/>
<text x="76.0" y="334.0" font-size="12" text-anchor="end" fill="#222">12.77</text>
<line x1="86" y1="244.0" x2="1046" y2="244.0" stroke="#E5E5E5"/>
<text x="76.0" y="248.0" font-size="12" text-anchor="end" fill="#222">19.15</text>
<line x1="86" y1="158.0" x2="1046" y2="158.0" stroke="#E5E5E5"/>
<text x="76.0" y="162.0" font-size="12" text-anchor="end" fill="#222">25.53</text>
<line x1="86" y1="72.0" x2="1046" y2="72.0" stroke="#E5E5E5"/>
<text x="76.0" y="76.0" font-size="12" text-anchor="end" fill="#222">31.92</text>
<line x1="86" y1="72" x2="86" y2="502" stroke="#333"/>
<line x1="86" y1="502" x2="1046" y2="502" stroke="#333"/>
<rect x="127.0" y="448.2" width="34.0" height="53.8" fill="#4C78A8" rx="2"/>
<text x="144.0" y="443.2" font-size="10" text-anchor="middle" fill="#222">4.00</text>
<rect x="165.0" y="467.9" width="34.0" height="34.1" fill="#F58518" rx="2"/>
<text x="182.0" y="462.9" font-size="10" text-anchor="middle" fill="#222">2.53</text>
<rect x="203.0" y="458.4" width="34.0" height="43.6" fill="#54A24B" rx="2"/>
<text x="220.0" y="453.4" font-size="10" text-anchor="middle" fill="#222">3.23</text>
<text x="182.0" y="536.0" font-size="12" text-anchor="middle" fill="#222" transform="rotate(-25.0 182.0 536.0)">depth 12</text>
<rect x="319.0" y="255.2" width="34.0" height="246.8" fill="#4C78A8" rx="2"/>
<text x="336.0" y="250.2" font-size="10" text-anchor="middle" fill="#222">18.32</text>
<rect x="357.0" y="390.3" width="34.0" height="111.7" fill="#F58518" rx="2"/>
<text x="374.0" y="385.3" font-size="10" text-anchor="middle" fill="#222">8.29</text>
<rect x="395.0" y="361.9" width="34.0" height="140.1" fill="#54A24B" rx="2"/>
<text x="412.0" y="356.9" font-size="10" text-anchor="middle" fill="#222">10.40</text>
<text x="374.0" y="536.0" font-size="12" text-anchor="middle" fill="#222" transform="rotate(-25.0 374.0 536.0)">depth 14</text>
<rect x="511.0" y="153.8" width="34.0" height="348.2" fill="#4C78A8" rx="2"/>
<text x="528.0" y="148.8" font-size="10" text-anchor="middle" fill="#222">25.85</text>
<rect x="549.0" y="357.0" width="34.0" height="145.0" fill="#F58518" rx="2"/>
<text x="566.0" y="352.0" font-size="10" text-anchor="middle" fill="#222">10.77</text>
<rect x="587.0" y="319.4" width="34.0" height="182.6" fill="#54A24B" rx="2"/>
<text x="604.0" y="314.4" font-size="10" text-anchor="middle" fill="#222">13.55</text>
<text x="566.0" y="536.0" font-size="12" text-anchor="middle" fill="#222" transform="rotate(-25.0 566.0 536.0)">depth 16</text>
<rect x="703.0" y="137.6" width="34.0" height="364.4" fill="#4C78A8" rx="2"/>
<text x="720.0" y="132.6" font-size="10" text-anchor="middle" fill="#222">27.05</text>
<rect x="741.0" y="355.5" width="34.0" height="146.5" fill="#F58518" rx="2"/>
<text x="758.0" y="350.5" font-size="10" text-anchor="middle" fill="#222">10.88</text>
<rect x="779.0" y="314.3" width="34.0" height="187.7" fill="#54A24B" rx="2"/>
<text x="796.0" y="309.3" font-size="10" text-anchor="middle" fill="#222">13.93</text>
<text x="758.0" y="536.0" font-size="12" text-anchor="middle" fill="#222" transform="rotate(-25.0 758.0 536.0)">depth 18</text>
<rect x="895.0" y="143.7" width="34.0" height="358.3" fill="#4C78A8" rx="2"/>
<text x="912.0" y="138.7" font-size="10" text-anchor="middle" fill="#222">26.60</text>
<rect x="933.0" y="357.5" width="34.0" height="144.5" fill="#F58518" rx="2"/>
<text x="950.0" y="352.5" font-size="10" text-anchor="middle" fill="#222">10.73</text>
<rect x="971.0" y="318.1" width="34.0" height="183.9" fill="#54A24B" rx="2"/>
<text x="988.0" y="313.1" font-size="10" text-anchor="middle" fill="#222">13.65</text>
<text x="950.0" y="536.0" font-size="12" text-anchor="middle" fill="#222" transform="rotate(-25.0 950.0 536.0)">depth 20</text>
<rect x="86" y="574" width="14" height="14" fill="#4C78A8" rx="2"/>
<text x="106.0" y="586.0" font-size="12" text-anchor="start" fill="#222">Classic CPU ROAM</text>
<rect x="336" y="574" width="14" height="14" fill="#F58518" rx="2"/>
<text x="356.0" y="586.0" font-size="12" text-anchor="start" fill="#222">Data-Oriented CPU ROAM</text>
<rect x="586" y="574" width="14" height="14" fill="#54A24B" rx="2"/>
<text x="606.0" y="586.0" font-size="12" text-anchor="start" fill="#222">GPU ROAM-like</text>
</svg>