<svg xmlns="http://www.w3.org/2000/svg" width="1080" height="620" viewBox="0 0 1080 620">
<rect width="100%" height="100%" fill="white"/>
<text x="540.0" y="32.0" font-size="22" text-anchor="middle" fill="#222">GPU ROAM-like fine-grained average timing</text>
<text x="22.0" y="287.0" font-size="14" text-anchor="middle" fill="#222" transform="rotate(-90.0 22.0 287.0)">Milliseconds</text>
<line x1="86" y1="502.0" x2="1046" y2="502.0" stroke="#E5E5E5"/>
<text x="76.0" y="506.0" font-size="12" text-anchor="end" fill="#222">0.00</text>
<line x1="86" y1="416.0" x2="1046" y2="416.0" stroke="#E5E5E5"/>
<text x="76.0" y="420.0" font-size="12" text-anchor="end" fill="#222">0.47</text>
<line x1="86" y1="330.0" x2="1046" y2="330.0" stroke="#E5E5E5"/>
<text x="76.0" y="334.0" font-size="12" text-anchor="end" fill="#222">0.94</text>
<line x1="86" y1="244.0" x2="1046" y2="244.0" stroke="#E5E5E5"/>
<text x="76.0" y="248.0" font-size="12" text-anchor="end" fill="#222">1.40</text>
<line x1="86" y1="158.0" x2="1046" y2="158.0" stroke="#E5E5E5"/>
<text x="76.0" y="162.0" font-size="12" text-anchor="end" fill="#222">1.87</text>
<line x1="86" y1="72.0" x2="1046" y2="72.0" stroke="#E5E5E5"/>
<text x="76.0" y="76.0" font-size="12" text-anchor="end" fill="#222">2.34</text>
<line x1="86" y1="72" x2="86" y2="502" stroke="#333"/>
<line x1="86" y1="502" x2="1046" y2="502" stroke="#333"/>
<rect x="112.9" y="420.7" width="19.7" height="81.3" fill="#4C78A8" rx="2"/>
<text x="122.7" y="415.7" font-size="10" text-anchor="middle" fill="#222">0.44</text>
<rect x="136.6" y="502.0" width="19.7" height="0.0" fill="#F58518" rx="2"/>
<text x="146.4" y="497.0" font-size="10" text-anchor="middle" fill="#222">0.00</text>
<rect x="160.3" y="471.6" width="19.7" height="30.4" fill="#E45756" rx="2"/>
<text x="170.1" y="466.6" font-size="10" text-anchor="middle" fill="#222">0.17</text>
<rect x="184.0" y="502.0" width="19.7" height="0.0" fill="#72B7B2" rx="2"/>
<text x="193.9" y="497.0" font-size="10" text-anchor="middle" fill="#222">0.00</text>
<rect x="207.7" y="432.5" width="19.7" height="69.5" fill="#B279A2" rx="2"/>
<text x="217.6" y="427.5" font-size="10" text-anchor="middle" fill="#222">0.38</text>
<rect x="231.4" y="446.4" width="19.7" height="55.6" fill="#54A24B" rx="2"/>
<text x="241.3" y="441.4" font-size="10" text-anchor="middle" fill="#222">0.30</text>
<text x="182.0" y="536.0" font-size="12" text-anchor="middle" fill="#222" transform="rotate(-25.0 182.0 536.0)">depth 12</text>
<rect x="304.9" y="254.9" width="19.7" height="247.1" fill="#4C78A8" rx="2"/>
<text x="314.7" y="249.9" font-size="10" text-anchor="middle" fill="#222">1.34</text>
<rect x="328.6" y="501.8" width="19.7" height="0.2" fill="#F58518" rx="2"/>
<text x="338.4" y="496.8" font-size="10" text-anchor="middle" fill="#222">0.00</text>
<rect x="352.3" y="457.0" width="19.7" height="45.0" fill="#E45756" rx="2"/>
<text x="362.1" y="452.0" font-size="10" text-anchor="middle" fill="#222">0.24</text>
<rect x="376.0" y="501.9" width="19.7" height="0.1" fill="#72B7B2" rx="2"/>
<text x="385.9" y="496.9" font-size="10" text-anchor="middle" fill="#222">0.00</text>
<rect x="399.7" y="223.2" width="19.7" height="278.8" fill="#B279A2" rx="2"/>
<text x="409.6" y="218.2" font-size="10" text-anchor="middle" fill="#222">1.52</text>
<rect x="423.4" y="388.5" width="19.7" height="113.5" fill="#54A24B" rx="2"/>
<text x="433.3" y="383.5" font-size="10" text-anchor="middle" fill="#222">0.62</text>
<text x="374.0" y="536.0" font-size="12" text-anchor="middle" fill="#222" transform="rotate(-25.0 374.0 536.0)">depth 14</text>
<rect x="496.9" y="191.9" width="19.7" height="310.1" fill="#4C78A8" rx="2"/>
<text x="506.7" y="186.9" font-size="10" text-anchor="middle" fill="#222">1.69</text>
<rect x="520.6" y="501.8" width="19.7" height="0.2" fill="#F58518" rx="2"/>
<text x="530.4" y="496.8" font-size="10" text-anchor="middle" fill="#222">0.00</text>
<rect x="544.3" y="457.6" width="19.7" height="44.4" fill="#E45756" rx="2"/>
<text x="554.1" y="452.6" font-size="10" text-anchor="middle" fill="#222">0.24</text>
<rect x="568.0" y="501.9" width="19.7" height="0.1" fill="#72B7B2" rx="2"/>
<text x="577.9" y="496.9" font-size="10" text-anchor="middle" fill="#222">0.00</text>
<rect x="591.7" y="141.5" width="19.7" height="360.5" fill="#B279A2" rx="2"/>
<text x="601.6" y="136.5" font-size="10" text-anchor="middle" fill="#222">1.96</text>
<rect x="615.4" y="380.7" width="19.7" height="121.3" fill="#54A24B" rx="2"/>
<text x="625.3" y="375.7" font-size="10" text-anchor="middle" fill="#222">0.66</text>
<text x="566.0" y="536.0" font-size="12" text-anchor="middle" fill="#222" transform="rotate(-25.0 566.0 536.0)">depth 16</text>
<rect x="688.9" y="188.4" width="19.7" height="313.6" fill="#4C78A8" rx="2"/>
<text x="698.7" y="183.4" font-size="10" text-anchor="middle" fill="#222">1.71</text>
<rect x="712.6" y="501.7" width="19.7" height="0.3" fill="#F58518" rx="2"/>
<text x="722.4" y="496.7" font-size="10" text-anchor="middle" fill="#222">0.00</text>
<rect x="736.3" y="452.1" width="19.7" height="49.9" fill="#E45756" rx="2"/>
<text x="746.1" y="447.1" font-size="10" text-anchor="middle" fill="#222">0.27</text>
<rect x="760.0" y="501.9" width="19.7" height="0.1" fill="#72B7B2" rx="2"/>
<text x="769.9" y="496.9" font-size="10" text-anchor="middle" fill="#222">0.00</text>
<rect x="783.7" y="137.9" width="19.7" height="364.1" fill="#B279A2" rx="2"/>
<text x="793.6" y="132.9" font-size="10" text-anchor="middle" fill="#222">1.98</text>
<rect x="807.4" y="377.9" width="19.7" height="124.1" fill="#54A24B" rx="2"/>
<text x="817.3" y="372.9" font-size="10" text-anchor="middle" fill="#222">0.68</text>
<text x="758.0" y="536.0" font-size="12" text-anchor="middle" fill="#222" transform="rotate(-25.0 758.0 536.0)">depth 18</text>
<rect x="880.9" y="189.5" width="19.7" height="312.5" fill="#4C78A8" rx="2"/>
<text x="890.7" y="184.5" font-size="10" text-anchor="middle" fill="#222">1.70</text>
<rect x="904.6" y="501.7" width="19.7" height="0.3" fill="#F58518" rx="2"/>
<text x="914.4" y="496.7" font-size="10" text-anchor="middle" fill="#222">0.00</text>
<rect x="928.3" y="455.0" width="19.7" height="47.0" fill="#E45756" rx="2"/>
<text x="938.1" y="450.0" font-size="10" text-anchor="middle" fill="#222">0.26</text>
<rect x="952.0" y="501.9" width="19.7" height="0.1" fill="#72B7B2" rx="2"/>
<text x="961.9" y="496.9" font-size="10" text-anchor="middle" fill="#222">0.00</text>
<rect x="975.7" y="137.6" width="19.7" height="364.4" fill="#B279A2" rx="2"/>
<text x="985.6" y="132.6" font-size="10" text-anchor="middle" fill="#222">1.98</text>
<rect x="999.4" y="380.4" width="19.7" height="121.6" fill="#54A24B" rx="2"/>
<text x="1009.3" y="375.4" font-size="10" text-anchor="middle" fill="#222">0.66</text>
<text x="950.0" y="536.0" font-size="12" text-anchor="middle" fill="#222" transform="rotate(-25.0 950.0 536.0)">depth 20</text>
<rect x="86" y="574" width="14" height="14" fill="#4C78A8" rx="2"/>
<text x="106.0" y="586.0" font-size="12" text-anchor="start" fill="#222">Snapshot</text>
<rect x="336" y="574" width="14" height="14" fill="#F58518" rx="2"/>
<text x="356.0" y="586.0" font-size="12" text-anchor="start" fill="#222">Buffer alloc</text>
<rect x="586" y="574" width="14" height="14" fill="#E45756" rx="2"/>
<text x="606.0" y="586.0" font-size="12" text-anchor="start" fill="#222">Dispatch wall</text>
<rect x="836" y="574" width="14" height="14" fill="#72B7B2" rx="2"/>
<text x="856.0" y="586.0" font-size="12" text-anchor="start" fill="#222">Query wait</text>
<rect x="1086" y="574" width="14" height="14" fill="#B279A2" rx="2"/>
<text x="1106.0" y="586.0" font-size="12" text-anchor="start" fill="#222">Readback wait</text>
<rect x="1336" y="574" width="14" height="14" fill="#54A24B" rx="2"/>
<text x="1356.0" y="586.0" font-size="12" text-anchor="start" fill="#222">GPU compute</text>
</svg>