<svg xmlns="http://www.w3.org/2000/svg" width="1080" height="640" viewBox="0 0 1080 640">
<rect width="100%" height="100%" fill="white"/>
<style>text{font-family:Arial,"Microsoft YaHei",sans-serif;fill:#222}.small{font-size:12px}.axis{stroke:#333;stroke-width:1}.grid{stroke:#E5E5E5;stroke-width:1}</style>
<text x="540.0" y="34" font-size="22" text-anchor="middle">实验2：最大深度对 P95 LOD 耗时的影响</text>
<line class="grid" x1="92" y1="510.0" x2="1040" y2="510.0"/>
<text class="small" x="82" y="514.0" text-anchor="end">0.00</text>
<line class="grid" x1="92" y1="423.6" x2="1040" y2="423.6"/>
<text class="small" x="82" y="427.6" text-anchor="end">12.00</text>
<line class="grid" x1="92" y1="337.2" x2="1040" y2="337.2"/>
<text class="small" x="82" y="341.2" text-anchor="end">24.00</text>
<line class="grid" x1="92" y1="250.8" x2="1040" y2="250.8"/>
<text class="small" x="82" y="254.8" text-anchor="end">36.00</text>
<line class="grid" x1="92" y1="164.4" x2="1040" y2="164.4"/>
<text class="small" x="82" y="168.4" text-anchor="end">48.00</text>
<line class="grid" x1="92" y1="78.0" x2="1040" y2="78.0"/>
<text class="small" x="82" y="82.0" text-anchor="end">60.00</text>
<line class="axis" x1="92" y1="78" x2="92" y2="510"/>
<line class="axis" x1="92" y1="510" x2="1040" y2="510"/>
<text x="24" y="294.0" font-size="14" text-anchor="middle" transform="rotate(-90 24 294.0)">P95 LOD 耗时（毫秒）</text>
<line class="grid" x1="92.0" y1="510" x2="92.0" y2="515"/>
<text class="small" x="92.0" y="544" text-anchor="middle">12</text>
<line class="grid" x1="329.0" y1="510" x2="329.0" y2="515"/>
<text class="small" x="329.0" y="544" text-anchor="middle">14</text>
<line class="grid" x1="566.0" y1="510" x2="566.0" y2="515"/>
<text class="small" x="566.0" y="544" text-anchor="middle">16</text>
<line class="grid" x1="803.0" y1="510" x2="803.0" y2="515"/>
<text class="small" x="803.0" y="544" text-anchor="middle">18</text>
<line class="grid" x1="1040.0" y1="510" x2="1040.0" y2="515"/>
<text class="small" x="1040.0" y="544" text-anchor="middle">20</text>
<polyline points="92.0,480.2 329.0,358.6 566.0,268.3 803.0,259.6 1040.0,263.4" fill="none" stroke="#4C78A8" stroke-width="3"/>
<circle cx="92.0" cy="480.2" r="4" fill="#4C78A8"/>
<text class="small" x="92.0" y="472.2" text-anchor="middle">4.1</text>
<circle cx="329.0" cy="358.6" r="4" fill="#4C78A8"/>
<text class="small" x="329.0" y="350.6" text-anchor="middle">21.0</text>
<circle cx="566.0" cy="268.3" r="4" fill="#4C78A8"/>
<text class="small" x="566.0" y="260.3" text-anchor="middle">33.6</text>
<circle cx="803.0" cy="259.6" r="4" fill="#4C78A8"/>
<text class="small" x="803.0" y="251.6" text-anchor="middle">34.8</text>
<circle cx="1040.0" cy="263.4" r="4" fill="#4C78A8"/>
<text class="small" x="1040.0" y="255.4" text-anchor="middle">34.2</text>
<polyline points="92.0,491.1 329.0,444.4 566.0,420.8 803.0,418.1 1040.0,419.5" fill="none" stroke="#F58518" stroke-width="3"/>
<circle cx="92.0" cy="491.1" r="4" fill="#F58518"/>
<text class="small" x="92.0" y="483.1" text-anchor="middle">2.6</text>
<circle cx="329.0" cy="444.4" r="4" fill="#F58518"/>
<text class="small" x="329.0" y="436.4" text-anchor="middle">9.1</text>
<circle cx="566.0" cy="420.8" r="4" fill="#F58518"/>
<text class="small" x="566.0" y="412.8" text-anchor="middle">12.4</text>
<circle cx="803.0" cy="418.1" r="4" fill="#F58518"/>
<text class="small" x="803.0" y="410.1" text-anchor="middle">12.8</text>
<circle cx="1040.0" cy="419.5" r="4" fill="#F58518"/>
<text class="small" x="1040.0" y="411.5" text-anchor="middle">12.6</text>
<polyline points="92.0,481.5 329.0,422.9 566.0,386.9 803.0,384.1 1040.0,385.3" fill="none" stroke="#54A24B" stroke-width="3"/>
<circle cx="92.0" cy="481.5" r="4" fill="#54A24B"/>
<text class="small" x="92.0" y="473.5" text-anchor="middle">4.0</text>
<circle cx="329.0" cy="422.9" r="4" fill="#54A24B"/>
<text class="small" x="329.0" y="414.9" text-anchor="middle">12.1</text>
<circle cx="566.0" cy="386.9" r="4" fill="#54A24B"/>
<text class="small" x="566.0" y="378.9" text-anchor="middle">17.1</text>
<circle cx="803.0" cy="384.1" r="4" fill="#54A24B"/>
<text class="small" x="803.0" y="376.1" text-anchor="middle">17.5</text>
<circle cx="1040.0" cy="385.3" r="4" fill="#54A24B"/>
<text class="small" x="1040.0" y="377.3" text-anchor="middle">17.3</text>
<rect x="92" y="580" width="14" height="14" fill="#4C78A8" rx="2"/>
<text class="small" x="112" y="592" text-anchor="start">经典 CPU ROAM</text>
<rect x="408" y="580" width="14" height="14" fill="#F58518" rx="2"/>
<text class="small" x="428" y="592" text-anchor="start">DOD CPU ROAM</text>
<rect x="724" y="580" width="14" height="14" fill="#54A24B" rx="2"/>
<text class="small" x="744" y="592" text-anchor="start">GPU 类 ROAM</text>
</svg>
