<svg xmlns="http://www.w3.org/2000/svg" width="1080" height="660" viewBox="0 0 1080 660">
<rect width="100%" height="100%" fill="white"/>
<style>text{font-family:Arial,"Microsoft YaHei",sans-serif;fill:#222}.small{font-size:12px}.axis{stroke:#333;stroke-width:1}.grid{stroke:#E5E5E5;stroke-width:1}</style>
<text x="540.0" y="34" font-size="22" text-anchor="middle">GPU 类 ROAM 分项平均耗时</text>
<line class="grid" x1="92" y1="520.0" x2="1040" y2="520.0"/>
<text class="small" x="82" y="524.0" text-anchor="end">0.00</text>
<line class="grid" x1="92" y1="431.6" x2="1040" y2="431.6"/>
<text class="small" x="82" y="435.6" text-anchor="end">1.20</text>
<line class="grid" x1="92" y1="343.2" x2="1040" y2="343.2"/>
<text class="small" x="82" y="347.2" text-anchor="end">2.40</text>
<line class="grid" x1="92" y1="254.8" x2="1040" y2="254.8"/>
<text class="small" x="82" y="258.8" text-anchor="end">3.60</text>
<line class="grid" x1="92" y1="166.4" x2="1040" y2="166.4"/>
<text class="small" x="82" y="170.4" text-anchor="end">4.80</text>
<line class="grid" x1="92" y1="78.0" x2="1040" y2="78.0"/>
<text class="small" x="82" y="82.0" text-anchor="end">6.00</text>
<line class="axis" x1="92" y1="78" x2="92" y2="520"/>
<line class="axis" x1="92" y1="520" x2="1040" y2="520"/>
<text x="24" y="299.0" font-size="14" text-anchor="middle" transform="rotate(-90 24 299.0)">毫秒</text>
<rect x="147.0" y="487.4" width="79.6" height="32.6" fill="#B279A2" rx="1"/>
<rect x="147.0" y="487.4" width="79.6" height="0.0" fill="#FF9DA6" rx="1"/>
<rect x="147.0" y="475.2" width="79.6" height="12.2" fill="#E45756" rx="1"/>
<rect x="147.0" y="475.2" width="79.6" height="0.0" fill="#BAB0AC" rx="1"/>
<rect x="147.0" y="447.3" width="79.6" height="27.9" fill="#72B7B2" rx="1"/>
<rect x="147.0" y="425.0" width="79.6" height="22.3" fill="#54A24B" rx="1"/>
<text class="small" x="186.8" y="417.0" text-anchor="middle">1.29</text>
<text class="small" x="186.8" y="556" text-anchor="middle">最大深度 12</text>
<rect x="336.6" y="420.9" width="79.6" height="99.1" fill="#B279A2" rx="1"/>
<rect x="336.6" y="420.9" width="79.6" height="0.1" fill="#FF9DA6" rx="1"/>
<rect x="336.6" y="402.8" width="79.6" height="18.0" fill="#E45756" rx="1"/>
<rect x="336.6" y="402.8" width="79.6" height="0.0" fill="#BAB0AC" rx="1"/>
<rect x="336.6" y="291.0" width="79.6" height="111.8" fill="#72B7B2" rx="1"/>
<rect x="336.6" y="245.6" width="79.6" height="45.5" fill="#54A24B" rx="1"/>
<text class="small" x="376.4" y="237.6" text-anchor="middle">3.73</text>
<text class="small" x="376.4" y="556" text-anchor="middle">最大深度 14</text>
<rect x="526.2" y="395.7" width="79.6" height="124.3" fill="#B279A2" rx="1"/>
<rect x="526.2" y="395.6" width="79.6" height="0.1" fill="#FF9DA6" rx="1"/>
<rect x="526.2" y="377.8" width="79.6" height="17.8" fill="#E45756" rx="1"/>
<rect x="526.2" y="377.8" width="79.6" height="0.0" fill="#BAB0AC" rx="1"/>
<rect x="526.2" y="233.3" width="79.6" height="144.5" fill="#72B7B2" rx="1"/>
<rect x="526.2" y="184.6" width="79.6" height="48.6" fill="#54A24B" rx="1"/>
<text class="small" x="566.0" y="176.6" text-anchor="middle">4.55</text>
<text class="small" x="566.0" y="556" text-anchor="middle">最大深度 16</text>
<rect x="715.8" y="394.3" width="79.6" height="125.7" fill="#B279A2" rx="1"/>
<rect x="715.8" y="394.2" width="79.6" height="0.1" fill="#FF9DA6" rx="1"/>
<rect x="715.8" y="374.2" width="79.6" height="20.0" fill="#E45756" rx="1"/>
<rect x="715.8" y="374.1" width="79.6" height="0.1" fill="#BAB0AC" rx="1"/>
<rect x="715.8" y="228.2" width="79.6" height="146.0" fill="#72B7B2" rx="1"/>
<rect x="715.8" y="178.4" width="79.6" height="49.8" fill="#54A24B" rx="1"/>
<text class="small" x="755.6" y="170.4" text-anchor="middle">4.64</text>
<text class="small" x="755.6" y="556" text-anchor="middle">最大深度 18</text>
<rect x="905.4" y="394.7" width="79.6" height="125.3" fill="#B279A2" rx="1"/>
<rect x="905.4" y="394.6" width="79.6" height="0.1" fill="#FF9DA6" rx="1"/>
<rect x="905.4" y="375.8" width="79.6" height="18.8" fill="#E45756" rx="1"/>
<rect x="905.4" y="375.7" width="79.6" height="0.0" fill="#BAB0AC" rx="1"/>
<rect x="905.4" y="229.7" width="79.6" height="146.1" fill="#72B7B2" rx="1"/>
<rect x="905.4" y="180.9" width="79.6" height="48.7" fill="#54A24B" rx="1"/>
<text class="small" x="945.2" y="172.9" text-anchor="middle">4.60</text>
<text class="small" x="945.2" y="556" text-anchor="middle">最大深度 20</text>
<rect x="92" y="600" width="14" height="14" fill="#B279A2" rx="2"/>
<text class="small" x="112" y="612" text-anchor="start">GPU 快照</text>
<rect x="250" y="600" width="14" height="14" fill="#FF9DA6" rx="2"/>
<text class="small" x="270" y="612" text-anchor="start">GPU 分配</text>
<rect x="408" y="600" width="14" height="14" fill="#E45756" rx="2"/>
<text class="small" x="428" y="612" text-anchor="start">GPU 调度</text>
<rect x="566" y="600" width="14" height="14" fill="#BAB0AC" rx="2"/>
<text class="small" x="586" y="612" text-anchor="start">GPU 查询等待</text>
<rect x="724" y="600" width="14" height="14" fill="#72B7B2" rx="2"/>
<text class="small" x="744" y="612" text-anchor="start">GPU 读回</text>
<rect x="882" y="600" width="14" height="14" fill="#54A24B" rx="2"/>
<text class="small" x="902" y="612" text-anchor="start">GPU 计算</text>
</svg>
