<svg xmlns="http://www.w3.org/2000/svg" width="1080" height="620" viewBox="0 0 1080 620">
<rect width="100%" height="100%" fill="white"/>
<text x="540.0" y="32.0" font-size="22" text-anchor="middle" fill="#222">Average process CPU utilization</text>
<text x="22.0" y="287.0" font-size="14" text-anchor="middle" fill="#222" transform="rotate(-90.0 22.0 287.0)">CPU %</text>
<line x1="86" y1="502.0" x2="1046" y2="502.0" stroke="#E5E5E5"/>
<text x="76.0" y="506.0" font-size="12" text-anchor="end" fill="#222">0.00</text>
<line x1="86" y1="416.0" x2="1046" y2="416.0" stroke="#E5E5E5"/>
<text x="76.0" y="420.0" font-size="12" text-anchor="end" fill="#222">77.51</text>
<line x1="86" y1="330.0" x2="1046" y2="330.0" stroke="#E5E5E5"/>
<text x="76.0" y="334.0" font-size="12" text-anchor="end" fill="#222">155.03</text>
<line x1="86" y1="244.0" x2="1046" y2="244.0" stroke="#E5E5E5"/>
<text x="76.0" y="248.0" font-size="12" text-anchor="end" fill="#222">232.54</text>
<line x1="86" y1="158.0" x2="1046" y2="158.0" stroke="#E5E5E5"/>
<text x="76.0" y="162.0" font-size="12" text-anchor="end" fill="#222">310.06</text>
<line x1="86" y1="72.0" x2="1046" y2="72.0" stroke="#E5E5E5"/>
<text x="76.0" y="76.0" font-size="12" text-anchor="end" fill="#222">387.57</text>
<line x1="86" y1="72" x2="86" y2="502" stroke="#333"/>
<line x1="86" y1="502" x2="1046" y2="502" stroke="#333"/>
<rect x="127.0" y="416.4" width="34.0" height="85.6" fill="#4C78A8" rx="2"/>
<text x="144.0" y="411.4" font-size="10" text-anchor="middle" fill="#222">77.15</text>
<rect x="165.0" y="160.1" width="34.0" height="341.9" fill="#F58518" rx="2"/>
<text x="182.0" y="155.1" font-size="10" text-anchor="middle" fill="#222">308.21</text>
<rect x="203.0" y="254.7" width="34.0" height="247.3" fill="#54A24B" rx="2"/>
<text x="220.0" y="249.7" font-size="10" text-anchor="middle" fill="#222">222.89</text>
<text x="182.0" y="536.0" font-size="12" text-anchor="middle" fill="#222" transform="rotate(-25.0 182.0 536.0)">depth 12</text>
<rect x="319.0" y="391.8" width="34.0" height="110.2" fill="#4C78A8" rx="2"/>
<text x="336.0" y="386.8" font-size="10" text-anchor="middle" fill="#222">99.35</text>
<rect x="357.0" y="144.6" width="34.0" height="357.4" fill="#F58518" rx="2"/>
<text x="374.0" y="139.6" font-size="10" text-anchor="middle" fill="#222">322.12</text>
<rect x="395.0" y="266.3" width="34.0" height="235.7" fill="#54A24B" rx="2"/>
<text x="412.0" y="261.3" font-size="10" text-anchor="middle" fill="#222">212.42</text>
<text x="374.0" y="536.0" font-size="12" text-anchor="middle" fill="#222" transform="rotate(-25.0 374.0 536.0)">depth 14</text>
<rect x="511.0" y="395.1" width="34.0" height="106.9" fill="#4C78A8" rx="2"/>
<text x="528.0" y="390.1" font-size="10" text-anchor="middle" fill="#222">96.39</text>
<rect x="549.0" y="137.6" width="34.0" height="364.4" fill="#F58518" rx="2"/>
<text x="566.0" y="132.6" font-size="10" text-anchor="middle" fill="#222">328.45</text>
<rect x="587.0" y="283.8" width="34.0" height="218.2" fill="#54A24B" rx="2"/>
<text x="604.0" y="278.8" font-size="10" text-anchor="middle" fill="#222">196.68</text>
<text x="566.0" y="536.0" font-size="12" text-anchor="middle" fill="#222" transform="rotate(-25.0 566.0 536.0)">depth 16</text>
<rect x="703.0" y="391.7" width="34.0" height="110.3" fill="#4C78A8" rx="2"/>
<text x="720.0" y="386.7" font-size="10" text-anchor="middle" fill="#222">99.37</text>
<rect x="741.0" y="157.8" width="34.0" height="344.2" fill="#F58518" rx="2"/>
<text x="758.0" y="152.8" font-size="10" text-anchor="middle" fill="#222">310.23</text>
<rect x="779.0" y="253.9" width="34.0" height="248.1" fill="#54A24B" rx="2"/>
<text x="796.0" y="248.9" font-size="10" text-anchor="middle" fill="#222">223.66</text>
<text x="758.0" y="536.0" font-size="12" text-anchor="middle" fill="#222" transform="rotate(-25.0 758.0 536.0)">depth 18</text>
<rect x="895.0" y="396.4" width="34.0" height="105.6" fill="#4C78A8" rx="2"/>
<text x="912.0" y="391.4" font-size="10" text-anchor="middle" fill="#222">95.15</text>
<rect x="933.0" y="145.6" width="34.0" height="356.4" fill="#F58518" rx="2"/>
<text x="950.0" y="140.6" font-size="10" text-anchor="middle" fill="#222">321.28</text>
<rect x="971.0" y="269.2" width="34.0" height="232.8" fill="#54A24B" rx="2"/>
<text x="988.0" y="264.2" font-size="10" text-anchor="middle" fill="#222">209.83</text>
<text x="950.0" y="536.0" font-size="12" text-anchor="middle" fill="#222" transform="rotate(-25.0 950.0 536.0)">depth 20</text>
<rect x="86" y="574" width="14" height="14" fill="#4C78A8" rx="2"/>
<text x="106.0" y="586.0" font-size="12" text-anchor="start" fill="#222">Classic CPU ROAM</text>
<rect x="336" y="574" width="14" height="14" fill="#F58518" rx="2"/>
<text x="356.0" y="586.0" font-size="12" text-anchor="start" fill="#222">Data-Oriented CPU ROAM</text>
<rect x="586" y="574" width="14" height="14" fill="#54A24B" rx="2"/>
<text x="606.0" y="586.0" font-size="12" text-anchor="start" fill="#222">GPU ROAM-like</text>
</svg>