<svg xmlns="http://www.w3.org/2000/svg" width="1080" height="640" viewBox="0 0 1080 640">
<rect width="100%" height="100%" fill="white"/>
<style>text{font-family:Arial,"Microsoft YaHei",sans-serif;fill:#222}.small{font-size:12px}.axis{stroke:#333;stroke-width:1}.grid{stroke:#E5E5E5;stroke-width:1}</style>
<text x="540.0" y="34" font-size="22" text-anchor="middle">平均生成三角形数对比</text>
<line class="grid" x1="92" y1="510.0" x2="1040" y2="510.0"/>
<text class="small" x="82" y="514.0" text-anchor="end">0.00</text>
<line class="grid" x1="92" y1="423.6" x2="1040" y2="423.6"/>
<text class="small" x="82" y="427.6" text-anchor="end">12000.00</text>
<line class="grid" x1="92" y1="337.2" x2="1040" y2="337.2"/>
<text class="small" x="82" y="341.2" text-anchor="end">24000.00</text>
<line class="grid" x1="92" y1="250.8" x2="1040" y2="250.8"/>
<text class="small" x="82" y="254.8" text-anchor="end">36000.00</text>
<line class="grid" x1="92" y1="164.4" x2="1040" y2="164.4"/>
<text class="small" x="82" y="168.4" text-anchor="end">48000.00</text>
<line class="grid" x1="92" y1="78.0" x2="1040" y2="78.0"/>
<text class="small" x="82" y="82.0" text-anchor="end">60000.00</text>
<line class="axis" x1="92" y1="78" x2="92" y2="510"/>
<line class="axis" x1="92" y1="510" x2="1040" y2="510"/>
<text x="24" y="294.0" font-size="14" text-anchor="middle" transform="rotate(-90 24 294.0)">三角形数</text>
<rect x="123.8" y="451.6" width="35.7" height="58.4" fill="#4C78A8" rx="2"/>
<text class="small" x="141.7" y="445.6" text-anchor="middle">8116</text>
<rect x="165.8" y="451.6" width="35.7" height="58.4" fill="#F58518" rx="2"/>
<text class="small" x="183.7" y="445.6" text-anchor="middle">8117</text>
<rect x="207.8" y="451.6" width="35.7" height="58.4" fill="#54A24B" rx="2"/>
<text class="small" x="225.7" y="445.6" text-anchor="middle">8116</text>
<text class="small" x="186.8" y="546" text-anchor="middle">最大深度 12</text>
<rect x="313.4" y="322.1" width="35.7" height="187.9" fill="#4C78A8" rx="2"/>
<text class="small" x="331.2" y="316.1" text-anchor="middle">26100</text>
<rect x="355.4" y="322.1" width="35.7" height="187.9" fill="#F58518" rx="2"/>
<text class="small" x="373.2" y="316.1" text-anchor="middle">26102</text>
<rect x="397.4" y="322.0" width="35.7" height="188.0" fill="#54A24B" rx="2"/>
<text class="small" x="415.2" y="316.0" text-anchor="middle">26113</text>
<text class="small" x="376.4" y="546" text-anchor="middle">最大深度 14</text>
<rect x="503.0" y="285.7" width="35.7" height="224.3" fill="#4C78A8" rx="2"/>
<text class="small" x="520.9" y="279.7" text-anchor="middle">31156</text>
<rect x="545.0" y="283.5" width="35.7" height="226.5" fill="#F58518" rx="2"/>
<text class="small" x="562.9" y="277.5" text-anchor="middle">31459</text>
<rect x="587.0" y="284.7" width="35.7" height="225.3" fill="#54A24B" rx="2"/>
<text class="small" x="604.9" y="278.7" text-anchor="middle">31296</text>
<text class="small" x="566.0" y="546" text-anchor="middle">最大深度 16</text>
<rect x="692.6" y="284.5" width="35.7" height="225.5" fill="#4C78A8" rx="2"/>
<text class="small" x="710.5" y="278.5" text-anchor="middle">31315</text>
<rect x="734.6" y="283.6" width="35.7" height="226.4" fill="#F58518" rx="2"/>
<text class="small" x="752.5" y="277.6" text-anchor="middle">31447</text>
<rect x="776.6" y="284.1" width="35.7" height="225.9" fill="#54A24B" rx="2"/>
<text class="small" x="794.5" y="278.1" text-anchor="middle">31378</text>
<text class="small" x="755.6" y="546" text-anchor="middle">最大深度 18</text>
<rect x="882.2" y="284.1" width="35.7" height="225.9" fill="#4C78A8" rx="2"/>
<text class="small" x="900.0" y="278.1" text-anchor="middle">31376</text>
<rect x="924.2" y="283.6" width="35.7" height="226.4" fill="#F58518" rx="2"/>
<text class="small" x="942.0" y="277.6" text-anchor="middle">31441</text>
<rect x="966.2" y="284.1" width="35.7" height="225.9" fill="#54A24B" rx="2"/>
<text class="small" x="984.0" y="278.1" text-anchor="middle">31375</text>
<text class="small" x="945.2" y="546" text-anchor="middle">最大深度 20</text>
<rect x="92" y="580" width="14" height="14" fill="#4C78A8" rx="2"/>
<text class="small" x="112" y="592" text-anchor="start">经典 CPU ROAM</text>
<rect x="408" y="580" width="14" height="14" fill="#F58518" rx="2"/>
<text class="small" x="428" y="592" text-anchor="start">DOD CPU ROAM</text>
<rect x="724" y="580" width="14" height="14" fill="#54A24B" rx="2"/>
<text class="small" x="744" y="592" text-anchor="start">GPU 类 ROAM</text>
</svg>
