<svg xmlns="http://www.w3.org/2000/svg" width="1080" height="640" viewBox="0 0 1080 640">
<rect width="100%" height="100%" fill="white"/>
<style>text{font-family:Arial,"Microsoft YaHei",sans-serif;fill:#222}.small{font-size:12px}.axis{stroke:#333;stroke-width:1}.grid{stroke:#E5E5E5;stroke-width:1}</style>
<text x="540.0" y="34" font-size="22" text-anchor="middle">平均 LOD 耗时对比</text>
<line class="grid" x1="92" y1="510.0" x2="1040" y2="510.0"/>
<text class="small" x="82" y="514.0" text-anchor="end">0.00</text>
<line class="grid" x1="92" y1="423.6" x2="1040" y2="423.6"/>
<text class="small" x="82" y="427.6" text-anchor="end">6.00</text>
<line class="grid" x1="92" y1="337.2" x2="1040" y2="337.2"/>
<text class="small" x="82" y="341.2" text-anchor="end">12.00</text>
<line class="grid" x1="92" y1="250.8" x2="1040" y2="250.8"/>
<text class="small" x="82" y="254.8" text-anchor="end">18.00</text>
<line class="grid" x1="92" y1="164.4" x2="1040" y2="164.4"/>
<text class="small" x="82" y="168.4" text-anchor="end">24.00</text>
<line class="grid" x1="92" y1="78.0" x2="1040" y2="78.0"/>
<text class="small" x="82" y="82.0" text-anchor="end">30.00</text>
<line class="axis" x1="92" y1="78" x2="92" y2="510"/>
<line class="axis" x1="92" y1="510" x2="1040" y2="510"/>
<text x="24" y="294.0" font-size="14" text-anchor="middle" transform="rotate(-90 24 294.0)">平均 LOD 耗时（毫秒）</text>
<rect x="123.8" y="457.4" width="35.7" height="52.6" fill="#4C78A8" rx="2"/>
<text class="small" x="141.7" y="451.4" text-anchor="middle">3.65</text>
<rect x="165.8" y="477.7" width="35.7" height="32.3" fill="#F58518" rx="2"/>
<text class="small" x="183.7" y="471.7" text-anchor="middle">2.24</text>
<rect x="207.8" y="465.2" width="35.7" height="44.8" fill="#54A24B" rx="2"/>
<text class="small" x="225.7" y="459.2" text-anchor="middle">3.11</text>
<text class="small" x="186.8" y="546" text-anchor="middle">最大深度 12</text>
<rect x="313.4" y="266.9" width="35.7" height="243.1" fill="#4C78A8" rx="2"/>
<text class="small" x="331.2" y="260.9" text-anchor="middle">16.88</text>
<rect x="355.4" y="401.4" width="35.7" height="108.6" fill="#F58518" rx="2"/>
<text class="small" x="373.2" y="395.4" text-anchor="middle">7.54</text>
<rect x="397.4" y="364.7" width="35.7" height="145.3" fill="#54A24B" rx="2"/>
<text class="small" x="415.2" y="358.7" text-anchor="middle">10.09</text>
<text class="small" x="376.4" y="546" text-anchor="middle">最大深度 14</text>
<rect x="503.0" y="162.5" width="35.7" height="347.5" fill="#4C78A8" rx="2"/>
<text class="small" x="520.9" y="156.5" text-anchor="middle">24.13</text>
<rect x="545.0" y="368.9" width="35.7" height="141.1" fill="#F58518" rx="2"/>
<text class="small" x="562.9" y="362.9" text-anchor="middle">9.80</text>
<rect x="587.0" y="319.6" width="35.7" height="190.4" fill="#54A24B" rx="2"/>
<text class="small" x="604.9" y="313.6" text-anchor="middle">13.22</text>
<text class="small" x="566.0" y="546" text-anchor="middle">最大深度 16</text>
<rect x="692.6" y="146.2" width="35.7" height="363.8" fill="#4C78A8" rx="2"/>
<text class="small" x="710.5" y="140.2" text-anchor="middle">25.27</text>
<rect x="734.6" y="367.4" width="35.7" height="142.6" fill="#F58518" rx="2"/>
<text class="small" x="752.5" y="361.4" text-anchor="middle">9.90</text>
<rect x="776.6" y="314.3" width="35.7" height="195.7" fill="#54A24B" rx="2"/>
<text class="small" x="794.5" y="308.3" text-anchor="middle">13.59</text>
<text class="small" x="755.6" y="546" text-anchor="middle">最大深度 18</text>
<rect x="882.2" y="151.8" width="35.7" height="358.2" fill="#4C78A8" rx="2"/>
<text class="small" x="900.0" y="145.8" text-anchor="middle">24.87</text>
<rect x="924.2" y="369.3" width="35.7" height="140.7" fill="#F58518" rx="2"/>
<text class="small" x="942.0" y="363.3" text-anchor="middle">9.77</text>
<rect x="966.2" y="318.1" width="35.7" height="191.9" fill="#54A24B" rx="2"/>
<text class="small" x="984.0" y="312.1" text-anchor="middle">13.32</text>
<text class="small" x="945.2" y="546" text-anchor="middle">最大深度 20</text>
<rect x="92" y="580" width="14" height="14" fill="#4C78A8" rx="2"/>
<text class="small" x="112" y="592" text-anchor="start">经典 CPU ROAM</text>
<rect x="408" y="580" width="14" height="14" fill="#F58518" rx="2"/>
<text class="small" x="428" y="592" text-anchor="start">DOD CPU ROAM</text>
<rect x="724" y="580" width="14" height="14" fill="#54A24B" rx="2"/>
<text class="small" x="744" y="592" text-anchor="start">GPU 类 ROAM</text>
</svg>
