<svg xmlns="http://www.w3.org/2000/svg" width="1080" height="620" viewBox="0 0 1080 620">
<rect width="100%" height="100%" fill="white"/>
<text x="540.0" y="32.0" font-size="22" text-anchor="middle" fill="#222">Average generated triangles</text>
<text x="22.0" y="287.0" font-size="14" text-anchor="middle" fill="#222" transform="rotate(-90.0 22.0 287.0)">Triangles</text>
<line x1="86" y1="502.0" x2="1046" y2="502.0" stroke="#E5E5E5"/>
<text x="76.0" y="506.0" font-size="12" text-anchor="end" fill="#222">0.00</text>
<line x1="86" y1="416.0" x2="1046" y2="416.0" stroke="#E5E5E5"/>
<text x="76.0" y="420.0" font-size="12" text-anchor="end" fill="#222">7424.41</text>
<line x1="86" y1="330.0" x2="1046" y2="330.0" stroke="#E5E5E5"/>
<text x="76.0" y="334.0" font-size="12" text-anchor="end" fill="#222">14848.81</text>
<line x1="86" y1="244.0" x2="1046" y2="244.0" stroke="#E5E5E5"/>
<text x="76.0" y="248.0" font-size="12" text-anchor="end" fill="#222">22273.22</text>
<line x1="86" y1="158.0" x2="1046" y2="158.0" stroke="#E5E5E5"/>
<text x="76.0" y="162.0" font-size="12" text-anchor="end" fill="#222">29697.63</text>
<line x1="86" y1="72.0" x2="1046" y2="72.0" stroke="#E5E5E5"/>
<text x="76.0" y="76.0" font-size="12" text-anchor="end" fill="#222">37122.04</text>
<line x1="86" y1="72" x2="86" y2="502" stroke="#333"/>
<line x1="86" y1="502" x2="1046" y2="502" stroke="#333"/>
<rect x="127.0" y="408.0" width="34.0" height="94.0" fill="#4C78A8" rx="2"/>
<text x="144.0" y="403.0" font-size="10" text-anchor="middle" fill="#222">8116.32</text>
<rect x="165.0" y="408.0" width="34.0" height="94.0" fill="#F58518" rx="2"/>
<text x="182.0" y="403.0" font-size="10" text-anchor="middle" fill="#222">8117.30</text>
<rect x="203.0" y="408.0" width="34.0" height="94.0" fill="#54A24B" rx="2"/>
<text x="220.0" y="403.0" font-size="10" text-anchor="middle" fill="#222">8116.34</text>
<text x="182.0" y="536.0" font-size="12" text-anchor="middle" fill="#222" transform="rotate(-25.0 182.0 536.0)">depth 12</text>
<rect x="319.0" y="199.7" width="34.0" height="302.3" fill="#4C78A8" rx="2"/>
<text x="336.0" y="194.7" font-size="10" text-anchor="middle" fill="#222">26100.29</text>
<rect x="357.0" y="199.6" width="34.0" height="302.4" fill="#F58518" rx="2"/>
<text x="374.0" y="194.6" font-size="10" text-anchor="middle" fill="#222">26102.11</text>
<rect x="395.0" y="199.5" width="34.0" height="302.5" fill="#54A24B" rx="2"/>
<text x="412.0" y="194.5" font-size="10" text-anchor="middle" fill="#222">26112.72</text>
<text x="374.0" y="536.0" font-size="12" text-anchor="middle" fill="#222" transform="rotate(-25.0 374.0 536.0)">depth 14</text>
<rect x="511.0" y="141.1" width="34.0" height="360.9" fill="#4C78A8" rx="2"/>
<text x="528.0" y="136.1" font-size="10" text-anchor="middle" fill="#222">31156.50</text>
<rect x="549.0" y="137.6" width="34.0" height="364.4" fill="#F58518" rx="2"/>
<text x="566.0" y="132.6" font-size="10" text-anchor="middle" fill="#222">31459.35</text>
<rect x="587.0" y="139.5" width="34.0" height="362.5" fill="#54A24B" rx="2"/>
<text x="604.0" y="134.5" font-size="10" text-anchor="middle" fill="#222">31296.06</text>
<text x="566.0" y="536.0" font-size="12" text-anchor="middle" fill="#222" transform="rotate(-25.0 566.0 536.0)">depth 16</text>
<rect x="703.0" y="139.3" width="34.0" height="362.7" fill="#4C78A8" rx="2"/>
<text x="720.0" y="134.3" font-size="10" text-anchor="middle" fill="#222">31315.49</text>
<rect x="741.0" y="137.7" width="34.0" height="364.3" fill="#F58518" rx="2"/>
<text x="758.0" y="132.7" font-size="10" text-anchor="middle" fill="#222">31446.86</text>
<rect x="779.0" y="138.5" width="34.0" height="363.5" fill="#54A24B" rx="2"/>
<text x="796.0" y="133.5" font-size="10" text-anchor="middle" fill="#222">31378.00</text>
<text x="758.0" y="536.0" font-size="12" text-anchor="middle" fill="#222" transform="rotate(-25.0 758.0 536.0)">depth 18</text>
<rect x="895.0" y="138.6" width="34.0" height="363.4" fill="#4C78A8" rx="2"/>
<text x="912.0" y="133.6" font-size="10" text-anchor="middle" fill="#222">31375.89</text>
<rect x="933.0" y="137.8" width="34.0" height="364.2" fill="#F58518" rx="2"/>
<text x="950.0" y="132.8" font-size="10" text-anchor="middle" fill="#222">31441.04</text>
<rect x="971.0" y="138.6" width="34.0" height="363.4" fill="#54A24B" rx="2"/>
<text x="988.0" y="133.6" font-size="10" text-anchor="middle" fill="#222">31374.72</text>
<text x="950.0" y="536.0" font-size="12" text-anchor="middle" fill="#222" transform="rotate(-25.0 950.0 536.0)">depth 20</text>
<rect x="86" y="574" width="14" height="14" fill="#4C78A8" rx="2"/>
<text x="106.0" y="586.0" font-size="12" text-anchor="start" fill="#222">Classic CPU ROAM</text>
<rect x="336" y="574" width="14" height="14" fill="#F58518" rx="2"/>
<text x="356.0" y="586.0" font-size="12" text-anchor="start" fill="#222">Data-Oriented CPU ROAM</text>
<rect x="586" y="574" width="14" height="14" fill="#54A24B" rx="2"/>
<text x="606.0" y="586.0" font-size="12" text-anchor="start" fill="#222">GPU ROAM-like</text>
</svg>