<svg xmlns="http://www.w3.org/2000/svg" width="1080" height="620" viewBox="0 0 1080 620">
<rect width="100%" height="100%" fill="white"/>
<text x="540.0" y="32.0" font-size="22" text-anchor="middle" fill="#222">Average LOD cost by algorithm</text>
<text x="22.0" y="287.0" font-size="14" text-anchor="middle" fill="#222" transform="rotate(-90.0 22.0 287.0)">Avg LOD ms</text>
<line x1="86" y1="502.0" x2="1046" y2="502.0" stroke="#E5E5E5"/>
<text x="76.0" y="506.0" font-size="12" text-anchor="end" fill="#222">0.00</text>
<line x1="86" y1="416.0" x2="1046" y2="416.0" stroke="#E5E5E5"/>
<text x="76.0" y="420.0" font-size="12" text-anchor="end" fill="#222">5.96</text>
<line x1="86" y1="330.0" x2="1046" y2="330.0" stroke="#E5E5E5"/>
<text x="76.0" y="334.0" font-size="12" text-anchor="end" fill="#222">11.93</text>
<line x1="86" y1="244.0" x2="1046" y2="244.0" stroke="#E5E5E5"/>
<text x="76.0" y="248.0" font-size="12" text-anchor="end" fill="#222">17.89</text>
<line x1="86" y1="158.0" x2="1046" y2="158.0" stroke="#E5E5E5"/>
<text x="76.0" y="162.0" font-size="12" text-anchor="end" fill="#222">23.85</text>
<line x1="86" y1="72.0" x2="1046" y2="72.0" stroke="#E5E5E5"/>
<text x="76.0" y="76.0" font-size="12" text-anchor="end" fill="#222">29.81</text>
<line x1="86" y1="72" x2="86" y2="502" stroke="#333"/>
<line x1="86" y1="502" x2="1046" y2="502" stroke="#333"/>
<rect x="127.0" y="449.3" width="34.0" height="52.7" fill="#4C78A8" rx="2"/>
<text x="144.0" y="444.3" font-size="10" text-anchor="middle" fill="#222">3.65</text>
<rect x="165.0" y="469.7" width="34.0" height="32.3" fill="#F58518" rx="2"/>
<text x="182.0" y="464.7" font-size="10" text-anchor="middle" fill="#222">2.24</text>
<rect x="203.0" y="457.2" width="34.0" height="44.8" fill="#54A24B" rx="2"/>
<text x="220.0" y="452.2" font-size="10" text-anchor="middle" fill="#222">3.11</text>
<text x="182.0" y="536.0" font-size="12" text-anchor="middle" fill="#222" transform="rotate(-25.0 182.0 536.0)">depth 12</text>
<rect x="319.0" y="258.5" width="34.0" height="243.5" fill="#4C78A8" rx="2"/>
<text x="336.0" y="253.5" font-size="10" text-anchor="middle" fill="#222">16.88</text>
<rect x="357.0" y="393.2" width="34.0" height="108.8" fill="#F58518" rx="2"/>
<text x="374.0" y="388.2" font-size="10" text-anchor="middle" fill="#222">7.54</text>
<rect x="395.0" y="356.4" width="34.0" height="145.6" fill="#54A24B" rx="2"/>
<text x="412.0" y="351.4" font-size="10" text-anchor="middle" fill="#222">10.09</text>
<text x="374.0" y="536.0" font-size="12" text-anchor="middle" fill="#222" transform="rotate(-25.0 374.0 536.0)">depth 14</text>
<rect x="511.0" y="153.9" width="34.0" height="348.1" fill="#4C78A8" rx="2"/>
<text x="528.0" y="148.9" font-size="10" text-anchor="middle" fill="#222">24.13</text>
<rect x="549.0" y="360.7" width="34.0" height="141.3" fill="#F58518" rx="2"/>
<text x="566.0" y="355.7" font-size="10" text-anchor="middle" fill="#222">9.80</text>
<rect x="587.0" y="311.3" width="34.0" height="190.7" fill="#54A24B" rx="2"/>
<text x="604.0" y="306.3" font-size="10" text-anchor="middle" fill="#222">13.22</text>
<text x="566.0" y="536.0" font-size="12" text-anchor="middle" fill="#222" transform="rotate(-25.0 566.0 536.0)">depth 16</text>
<rect x="703.0" y="137.6" width="34.0" height="364.4" fill="#4C78A8" rx="2"/>
<text x="720.0" y="132.6" font-size="10" text-anchor="middle" fill="#222">25.27</text>
<rect x="741.0" y="359.2" width="34.0" height="142.8" fill="#F58518" rx="2"/>
<text x="758.0" y="354.2" font-size="10" text-anchor="middle" fill="#222">9.90</text>
<rect x="779.0" y="306.0" width="34.0" height="196.0" fill="#54A24B" rx="2"/>
<text x="796.0" y="301.0" font-size="10" text-anchor="middle" fill="#222">13.59</text>
<text x="758.0" y="536.0" font-size="12" text-anchor="middle" fill="#222" transform="rotate(-25.0 758.0 536.0)">depth 18</text>
<rect x="895.0" y="143.3" width="34.0" height="358.7" fill="#4C78A8" rx="2"/>
<text x="912.0" y="138.3" font-size="10" text-anchor="middle" fill="#222">24.87</text>
<rect x="933.0" y="361.0" width="34.0" height="141.0" fill="#F58518" rx="2"/>
<text x="950.0" y="356.0" font-size="10" text-anchor="middle" fill="#222">9.77</text>
<rect x="971.0" y="309.8" width="34.0" height="192.2" fill="#54A24B" rx="2"/>
<text x="988.0" y="304.8" font-size="10" text-anchor="middle" fill="#222">13.32</text>
<text x="950.0" y="536.0" font-size="12" text-anchor="middle" fill="#222" transform="rotate(-25.0 950.0 536.0)">depth 20</text>
<rect x="86" y="574" width="14" height="14" fill="#4C78A8" rx="2"/>
<text x="106.0" y="586.0" font-size="12" text-anchor="start" fill="#222">Classic CPU ROAM</text>
<rect x="336" y="574" width="14" height="14" fill="#F58518" rx="2"/>
<text x="356.0" y="586.0" font-size="12" text-anchor="start" fill="#222">Data-Oriented CPU ROAM</text>
<rect x="586" y="574" width="14" height="14" fill="#54A24B" rx="2"/>
<text x="606.0" y="586.0" font-size="12" text-anchor="start" fill="#222">GPU ROAM-like</text>
</svg>