<svg xmlns="http://www.w3.org/2000/svg" width="1080" height="640" viewBox="0 0 1080 640">
<rect width="100%" height="100%" fill="white"/>
<style>text{font-family:Arial,"Microsoft YaHei",sans-serif;fill:#222}.small{font-size:12px}.axis{stroke:#333;stroke-width:1}.grid{stroke:#E5E5E5;stroke-width:1}</style>
<text x="540.0" y="34" font-size="22" text-anchor="middle">实验2：最大深度下的单位三角形 LOD 耗时</text>
<line class="grid" x1="92" y1="510.0" x2="1040" y2="510.0"/>
<text class="small" x="82" y="514.0" text-anchor="end">0.00</text>
<line class="grid" x1="92" y1="423.6" x2="1040" y2="423.6"/>
<text class="small" x="82" y="427.6" text-anchor="end">2.00</text>
<line class="grid" x1="92" y1="337.2" x2="1040" y2="337.2"/>
<text class="small" x="82" y="341.2" text-anchor="end">4.00</text>
<line class="grid" x1="92" y1="250.8" x2="1040" y2="250.8"/>
<text class="small" x="82" y="254.8" text-anchor="end">6.00</text>
<line class="grid" x1="92" y1="164.4" x2="1040" y2="164.4"/>
<text class="small" x="82" y="168.4" text-anchor="end">8.00</text>
<line class="grid" x1="92" y1="78.0" x2="1040" y2="78.0"/>
<text class="small" x="82" y="82.0" text-anchor="end">10.00</text>
<line class="axis" x1="92" y1="78" x2="92" y2="510"/>
<line class="axis" x1="92" y1="510" x2="1040" y2="510"/>
<text x="24" y="294.0" font-size="14" text-anchor="middle" transform="rotate(-90 24 294.0)">毫秒 / 1 万三角形</text>
<line class="grid" x1="92.0" y1="510" x2="92.0" y2="515"/>
<text class="small" x="92.0" y="544" text-anchor="middle">12</text>
<line class="grid" x1="329.0" y1="510" x2="329.0" y2="515"/>
<text class="small" x="329.0" y="544" text-anchor="middle">14</text>
<line class="grid" x1="566.0" y1="510" x2="566.0" y2="515"/>
<text class="small" x="566.0" y="544" text-anchor="middle">16</text>
<line class="grid" x1="803.0" y1="510" x2="803.0" y2="515"/>
<text class="small" x="803.0" y="544" text-anchor="middle">18</text>
<line class="grid" x1="1040.0" y1="510" x2="1040.0" y2="515"/>
<text class="small" x="1040.0" y="544" text-anchor="middle">20</text>
<polyline points="92.0,315.5 329.0,230.6 566.0,175.4 803.0,161.4 1040.0,167.5" fill="none" stroke="#4C78A8" stroke-width="3"/>
<circle cx="92.0" cy="315.5" r="4" fill="#4C78A8"/>
<text class="small" x="92.0" y="307.5" text-anchor="middle">4.5</text>
<circle cx="329.0" cy="230.6" r="4" fill="#4C78A8"/>
<text class="small" x="329.0" y="222.6" text-anchor="middle">6.5</text>
<circle cx="566.0" cy="175.4" r="4" fill="#4C78A8"/>
<text class="small" x="566.0" y="167.4" text-anchor="middle">7.7</text>
<circle cx="803.0" cy="161.4" r="4" fill="#4C78A8"/>
<text class="small" x="803.0" y="153.4" text-anchor="middle">8.1</text>
<circle cx="1040.0" cy="167.5" r="4" fill="#4C78A8"/>
<text class="small" x="1040.0" y="159.5" text-anchor="middle">7.9</text>
<polyline points="92.0,390.7 329.0,385.2 566.0,375.5 803.0,373.9 1040.0,375.7" fill="none" stroke="#F58518" stroke-width="3"/>
<circle cx="92.0" cy="390.7" r="4" fill="#F58518"/>
<text class="small" x="92.0" y="382.7" text-anchor="middle">2.8</text>
<circle cx="329.0" cy="385.2" r="4" fill="#F58518"/>
<text class="small" x="329.0" y="377.2" text-anchor="middle">2.9</text>
<circle cx="566.0" cy="375.5" r="4" fill="#F58518"/>
<text class="small" x="566.0" y="367.5" text-anchor="middle">3.1</text>
<circle cx="803.0" cy="373.9" r="4" fill="#F58518"/>
<text class="small" x="803.0" y="365.9" text-anchor="middle">3.1</text>
<circle cx="1040.0" cy="375.7" r="4" fill="#F58518"/>
<text class="small" x="1040.0" y="367.7" text-anchor="middle">3.1</text>
<polyline points="92.0,344.5 329.0,343.0 566.0,327.5 803.0,322.9 1040.0,326.6" fill="none" stroke="#54A24B" stroke-width="3"/>
<circle cx="92.0" cy="344.5" r="4" fill="#54A24B"/>
<text class="small" x="92.0" y="336.5" text-anchor="middle">3.8</text>
<circle cx="329.0" cy="343.0" r="4" fill="#54A24B"/>
<text class="small" x="329.0" y="335.0" text-anchor="middle">3.9</text>
<circle cx="566.0" cy="327.5" r="4" fill="#54A24B"/>
<text class="small" x="566.0" y="319.5" text-anchor="middle">4.2</text>
<circle cx="803.0" cy="322.9" r="4" fill="#54A24B"/>
<text class="small" x="803.0" y="314.9" text-anchor="middle">4.3</text>
<circle cx="1040.0" cy="326.6" r="4" fill="#54A24B"/>
<text class="small" x="1040.0" y="318.6" text-anchor="middle">4.2</text>
<rect x="92" y="580" width="14" height="14" fill="#4C78A8" rx="2"/>
<text class="small" x="112" y="592" text-anchor="start">经典 CPU ROAM</text>
<rect x="408" y="580" width="14" height="14" fill="#F58518" rx="2"/>
<text class="small" x="428" y="592" text-anchor="start">DOD CPU ROAM</text>
<rect x="724" y="580" width="14" height="14" fill="#54A24B" rx="2"/>
<text class="small" x="744" y="592" text-anchor="start">GPU 类 ROAM</text>
</svg>
