<svg xmlns="http://www.w3.org/2000/svg" width="1080" height="620" viewBox="0 0 1080 620">
<rect width="100%" height="100%" fill="white"/>
<text x="540.0" y="32.0" font-size="22" text-anchor="middle" fill="#222">Average process CPU utilization</text>
<text x="22.0" y="287.0" font-size="14" text-anchor="middle" fill="#222" transform="rotate(-90.0 22.0 287.0)">CPU %</text>
<line x1="86" y1="502.0" x2="1046" y2="502.0" stroke="#E5E5E5"/>
<text x="76.0" y="506.0" font-size="12" text-anchor="end" fill="#222">0.00</text>
<line x1="86" y1="416.0" x2="1046" y2="416.0" stroke="#E5E5E5"/>
<text x="76.0" y="420.0" font-size="12" text-anchor="end" fill="#222">80.81</text>
<line x1="86" y1="330.0" x2="1046" y2="330.0" stroke="#E5E5E5"/>
<text x="76.0" y="334.0" font-size="12" text-anchor="end" fill="#222">161.63</text>
<line x1="86" y1="244.0" x2="1046" y2="244.0" stroke="#E5E5E5"/>
<text x="76.0" y="248.0" font-size="12" text-anchor="end" fill="#222">242.44</text>
<line x1="86" y1="158.0" x2="1046" y2="158.0" stroke="#E5E5E5"/>
<text x="76.0" y="162.0" font-size="12" text-anchor="end" fill="#222">323.26</text>
<line x1="86" y1="72.0" x2="1046" y2="72.0" stroke="#E5E5E5"/>
<text x="76.0" y="76.0" font-size="12" text-anchor="end" fill="#222">404.07</text>
<line x1="86" y1="72" x2="86" y2="502" stroke="#333"/>
<line x1="86" y1="502" x2="1046" y2="502" stroke="#333"/>
<rect x="151.0" y="407.8" width="34.0" height="94.2" fill="#4C78A8" rx="2"/>
<text x="168.0" y="402.8" font-size="10" text-anchor="middle" fill="#222">88.56</text>
<rect x="189.0" y="137.6" width="34.0" height="364.4" fill="#F58518" rx="2"/>
<text x="206.0" y="132.6" font-size="10" text-anchor="middle" fill="#222">342.43</text>
<rect x="227.0" y="248.5" width="34.0" height="253.5" fill="#54A24B" rx="2"/>
<text x="244.0" y="243.5" font-size="10" text-anchor="middle" fill="#222">238.24</text>
<text x="206.0" y="536.0" font-size="12" text-anchor="middle" fill="#222" transform="rotate(-25.0 206.0 536.0)">distance 20</text>
<rect x="391.0" y="400.4" width="34.0" height="101.6" fill="#4C78A8" rx="2"/>
<text x="408.0" y="395.4" font-size="10" text-anchor="middle" fill="#222">95.50</text>
<rect x="429.0" y="159.3" width="34.0" height="342.7" fill="#F58518" rx="2"/>
<text x="446.0" y="154.3" font-size="10" text-anchor="middle" fill="#222">322.00</text>
<rect x="467.0" y="260.4" width="34.0" height="241.6" fill="#54A24B" rx="2"/>
<text x="484.0" y="255.4" font-size="10" text-anchor="middle" fill="#222">227.07</text>
<text x="446.0" y="536.0" font-size="12" text-anchor="middle" fill="#222" transform="rotate(-25.0 446.0 536.0)">distance 40</text>
<rect x="631.0" y="398.7" width="34.0" height="103.3" fill="#4C78A8" rx="2"/>
<text x="648.0" y="393.7" font-size="10" text-anchor="middle" fill="#222">97.08</text>
<rect x="669.0" y="168.7" width="34.0" height="333.3" fill="#F58518" rx="2"/>
<text x="686.0" y="163.7" font-size="10" text-anchor="middle" fill="#222">313.19</text>
<rect x="707.0" y="270.2" width="34.0" height="231.8" fill="#54A24B" rx="2"/>
<text x="724.0" y="265.2" font-size="10" text-anchor="middle" fill="#222">217.84</text>
<text x="686.0" y="536.0" font-size="12" text-anchor="middle" fill="#222" transform="rotate(-25.0 686.0 536.0)">distance 60</text>
<rect x="871.0" y="396.9" width="34.0" height="105.1" fill="#4C78A8" rx="2"/>
<text x="888.0" y="391.9" font-size="10" text-anchor="middle" fill="#222">98.81</text>
<rect x="909.0" y="151.8" width="34.0" height="350.2" fill="#F58518" rx="2"/>
<text x="926.0" y="146.8" font-size="10" text-anchor="middle" fill="#222">329.08</text>
<rect x="947.0" y="290.4" width="34.0" height="211.6" fill="#54A24B" rx="2"/>
<text x="964.0" y="285.4" font-size="10" text-anchor="middle" fill="#222">198.82</text>
<text x="926.0" y="536.0" font-size="12" text-anchor="middle" fill="#222" transform="rotate(-25.0 926.0 536.0)">distance 80</text>
<rect x="86" y="574" width="14" height="14" fill="#4C78A8" rx="2"/>
<text x="106.0" y="586.0" font-size="12" text-anchor="start" fill="#222">Classic CPU ROAM</text>
<rect x="336" y="574" width="14" height="14" fill="#F58518" rx="2"/>
<text x="356.0" y="586.0" font-size="12" text-anchor="start" fill="#222">Data-Oriented CPU ROAM</text>
<rect x="586" y="574" width="14" height="14" fill="#54A24B" rx="2"/>
<text x="606.0" y="586.0" font-size="12" text-anchor="start" fill="#222">GPU ROAM-like</text>
</svg>