<svg xmlns="http://www.w3.org/2000/svg" width="1080" height="640" viewBox="0 0 1080 640">
<rect width="100%" height="100%" fill="white"/>
<style>text{font-family:Arial,"Microsoft YaHei",sans-serif;fill:#222}.small{font-size:12px}.axis{stroke:#333;stroke-width:1}.grid{stroke:#E5E5E5;stroke-width:1}</style>
<text x="540.0" y="34" font-size="22" text-anchor="middle">实验3：距离权重对平均三角形数的影响</text>
<line class="grid" x1="92" y1="510.0" x2="1040" y2="510.0"/>
<text class="small" x="82" y="514.0" text-anchor="end">0.00</text>
<line class="grid" x1="92" y1="423.6" x2="1040" y2="423.6"/>
<text class="small" x="82" y="427.6" text-anchor="end">12000.00</text>
<line class="grid" x1="92" y1="337.2" x2="1040" y2="337.2"/>
<text class="small" x="82" y="341.2" text-anchor="end">24000.00</text>
<line class="grid" x1="92" y1="250.8" x2="1040" y2="250.8"/>
<text class="small" x="82" y="254.8" text-anchor="end">36000.00</text>
<line class="grid" x1="92" y1="164.4" x2="1040" y2="164.4"/>
<text class="small" x="82" y="168.4" text-anchor="end">48000.00</text>
<line class="grid" x1="92" y1="78.0" x2="1040" y2="78.0"/>
<text class="small" x="82" y="82.0" text-anchor="end">60000.00</text>
<line class="axis" x1="92" y1="78" x2="92" y2="510"/>
<line class="axis" x1="92" y1="510" x2="1040" y2="510"/>
<text x="24" y="294.0" font-size="14" text-anchor="middle" transform="rotate(-90 24 294.0)">三角形数</text>
<line class="grid" x1="92.0" y1="510" x2="92.0" y2="515"/>
<text class="small" x="92.0" y="544" text-anchor="middle">20</text>
<line class="grid" x1="408.0" y1="510" x2="408.0" y2="515"/>
<text class="small" x="408.0" y="544" text-anchor="middle">40</text>
<line class="grid" x1="724.0" y1="510" x2="724.0" y2="515"/>
<text class="small" x="724.0" y="544" text-anchor="middle">60</text>
<line class="grid" x1="1040.0" y1="510" x2="1040.0" y2="515"/>
<text class="small" x="1040.0" y="544" text-anchor="middle">80</text>
<polyline points="92.0,457.2 408.0,392.8 724.0,330.0 1040.0,285.0" fill="none" stroke="#4C78A8" stroke-width="3"/>
<circle cx="92.0" cy="457.2" r="4" fill="#4C78A8"/>
<text class="small" x="92.0" y="449.2" text-anchor="middle">7336</text>
<circle cx="408.0" cy="392.8" r="4" fill="#4C78A8"/>
<text class="small" x="408.0" y="384.8" text-anchor="middle">16283</text>
<circle cx="724.0" cy="330.0" r="4" fill="#4C78A8"/>
<text class="small" x="724.0" y="322.0" text-anchor="middle">24998</text>
<circle cx="1040.0" cy="285.0" r="4" fill="#4C78A8"/>
<text class="small" x="1040.0" y="277.0" text-anchor="middle">31251</text>
<polyline points="92.0,457.5 408.0,392.5 724.0,328.6 1040.0,283.5" fill="none" stroke="#F58518" stroke-width="3"/>
<circle cx="92.0" cy="457.5" r="4" fill="#F58518"/>
<text class="small" x="92.0" y="449.5" text-anchor="middle">7293</text>
<circle cx="408.0" cy="392.5" r="4" fill="#F58518"/>
<text class="small" x="408.0" y="384.5" text-anchor="middle">16316</text>
<circle cx="724.0" cy="328.6" r="4" fill="#F58518"/>
<text class="small" x="724.0" y="320.6" text-anchor="middle">25193</text>
<circle cx="1040.0" cy="283.5" r="4" fill="#F58518"/>
<text class="small" x="1040.0" y="275.5" text-anchor="middle">31463</text>
<polyline points="92.0,456.7 408.0,392.6 724.0,329.7 1040.0,284.3" fill="none" stroke="#54A24B" stroke-width="3"/>
<circle cx="92.0" cy="456.7" r="4" fill="#54A24B"/>
<text class="small" x="92.0" y="448.7" text-anchor="middle">7409</text>
<circle cx="408.0" cy="392.6" r="4" fill="#54A24B"/>
<text class="small" x="408.0" y="384.6" text-anchor="middle">16301</text>
<circle cx="724.0" cy="329.7" r="4" fill="#54A24B"/>
<text class="small" x="724.0" y="321.7" text-anchor="middle">25042</text>
<circle cx="1040.0" cy="284.3" r="4" fill="#54A24B"/>
<text class="small" x="1040.0" y="276.3" text-anchor="middle">31352</text>
<rect x="92" y="580" width="14" height="14" fill="#4C78A8" rx="2"/>
<text class="small" x="112" y="592" text-anchor="start">经典 CPU ROAM</text>
<rect x="408" y="580" width="14" height="14" fill="#F58518" rx="2"/>
<text class="small" x="428" y="592" text-anchor="start">DOD CPU ROAM</text>
<rect x="724" y="580" width="14" height="14" fill="#54A24B" rx="2"/>
<text class="small" x="744" y="592" text-anchor="start">GPU 类 ROAM</text>
</svg>
