<svg xmlns="http://www.w3.org/2000/svg" width="1080" height="620" viewBox="0 0 1080 620">
<rect width="100%" height="100%" fill="white"/>
<text x="540.0" y="32.0" font-size="22" text-anchor="middle" fill="#222">GPU ROAM-like fine-grained average timing</text>
<text x="22.0" y="287.0" font-size="14" text-anchor="middle" fill="#222" transform="rotate(-90.0 22.0 287.0)">Milliseconds</text>
<line x1="86" y1="502.0" x2="1046" y2="502.0" stroke="#E5E5E5"/>
<text x="76.0" y="506.0" font-size="12" text-anchor="end" fill="#222">0.00</text>
<line x1="86" y1="416.0" x2="1046" y2="416.0" stroke="#E5E5E5"/>
<text x="76.0" y="420.0" font-size="12" text-anchor="end" fill="#222">0.47</text>
<line x1="86" y1="330.0" x2="1046" y2="330.0" stroke="#E5E5E5"/>
<text x="76.0" y="334.0" font-size="12" text-anchor="end" fill="#222">0.93</text>
<line x1="86" y1="244.0" x2="1046" y2="244.0" stroke="#E5E5E5"/>
<text x="76.0" y="248.0" font-size="12" text-anchor="end" fill="#222">1.40</text>
<line x1="86" y1="158.0" x2="1046" y2="158.0" stroke="#E5E5E5"/>
<text x="76.0" y="162.0" font-size="12" text-anchor="end" fill="#222">1.87</text>
<line x1="86" y1="72.0" x2="1046" y2="72.0" stroke="#E5E5E5"/>
<text x="76.0" y="76.0" font-size="12" text-anchor="end" fill="#222">2.34</text>
<line x1="86" y1="72" x2="86" y2="502" stroke="#333"/>
<line x1="86" y1="502" x2="1046" y2="502" stroke="#333"/>
<rect x="119.6" y="429.4" width="25.5" height="72.6" fill="#4C78A8" rx="2"/>
<text x="132.3" y="424.4" font-size="10" text-anchor="middle" fill="#222">0.39</text>
<rect x="149.1" y="502.0" width="25.5" height="0.0" fill="#F58518" rx="2"/>
<text x="161.8" y="497.0" font-size="10" text-anchor="middle" fill="#222">0.00</text>
<rect x="178.5" y="477.1" width="25.5" height="24.9" fill="#E45756" rx="2"/>
<text x="191.3" y="472.1" font-size="10" text-anchor="middle" fill="#222">0.14</text>
<rect x="208.0" y="502.0" width="25.5" height="0.0" fill="#72B7B2" rx="2"/>
<text x="220.7" y="497.0" font-size="10" text-anchor="middle" fill="#222">0.00</text>
<rect x="237.5" y="429.4" width="25.5" height="72.6" fill="#B279A2" rx="2"/>
<text x="250.2" y="424.4" font-size="10" text-anchor="middle" fill="#222">0.39</text>
<rect x="266.9" y="449.5" width="25.5" height="52.5" fill="#54A24B" rx="2"/>
<text x="279.7" y="444.5" font-size="10" text-anchor="middle" fill="#222">0.28</text>
<text x="206.0" y="536.0" font-size="12" text-anchor="middle" fill="#222" transform="rotate(-25.0 206.0 536.0)">distance 20</text>
<rect x="359.6" y="341.3" width="25.5" height="160.7" fill="#4C78A8" rx="2"/>
<text x="372.3" y="336.3" font-size="10" text-anchor="middle" fill="#222">0.87</text>
<rect x="389.1" y="501.9" width="25.5" height="0.1" fill="#F58518" rx="2"/>
<text x="401.8" y="496.9" font-size="10" text-anchor="middle" fill="#222">0.00</text>
<rect x="418.5" y="469.0" width="25.5" height="33.0" fill="#E45756" rx="2"/>
<text x="431.3" y="464.0" font-size="10" text-anchor="middle" fill="#222">0.18</text>
<rect x="448.0" y="502.0" width="25.5" height="0.0" fill="#72B7B2" rx="2"/>
<text x="460.7" y="497.0" font-size="10" text-anchor="middle" fill="#222">0.00</text>
<rect x="477.5" y="323.3" width="25.5" height="178.7" fill="#B279A2" rx="2"/>
<text x="490.2" y="318.3" font-size="10" text-anchor="middle" fill="#222">0.97</text>
<rect x="506.9" y="420.6" width="25.5" height="81.4" fill="#54A24B" rx="2"/>
<text x="519.7" y="415.6" font-size="10" text-anchor="middle" fill="#222">0.44</text>
<text x="446.0" y="536.0" font-size="12" text-anchor="middle" fill="#222" transform="rotate(-25.0 446.0 536.0)">distance 40</text>
<rect x="599.6" y="261.1" width="25.5" height="240.9" fill="#4C78A8" rx="2"/>
<text x="612.3" y="256.1" font-size="10" text-anchor="middle" fill="#222">1.31</text>
<rect x="629.1" y="501.9" width="25.5" height="0.1" fill="#F58518" rx="2"/>
<text x="641.8" y="496.9" font-size="10" text-anchor="middle" fill="#222">0.00</text>
<rect x="658.5" y="455.8" width="25.5" height="46.2" fill="#E45756" rx="2"/>
<text x="671.3" y="450.8" font-size="10" text-anchor="middle" fill="#222">0.25</text>
<rect x="688.0" y="502.0" width="25.5" height="0.0" fill="#72B7B2" rx="2"/>
<text x="700.7" y="497.0" font-size="10" text-anchor="middle" fill="#222">0.00</text>
<rect x="717.5" y="208.3" width="25.5" height="293.7" fill="#B279A2" rx="2"/>
<text x="730.2" y="203.3" font-size="10" text-anchor="middle" fill="#222">1.60</text>
<rect x="746.9" y="392.9" width="25.5" height="109.1" fill="#54A24B" rx="2"/>
<text x="759.7" y="387.9" font-size="10" text-anchor="middle" fill="#222">0.59</text>
<text x="686.0" y="536.0" font-size="12" text-anchor="middle" fill="#222" transform="rotate(-25.0 686.0 536.0)">distance 60</text>
<rect x="839.6" y="185.6" width="25.5" height="316.4" fill="#4C78A8" rx="2"/>
<text x="852.3" y="180.6" font-size="10" text-anchor="middle" fill="#222">1.72</text>
<rect x="869.1" y="501.8" width="25.5" height="0.2" fill="#F58518" rx="2"/>
<text x="881.8" y="496.8" font-size="10" text-anchor="middle" fill="#222">0.00</text>
<rect x="898.5" y="455.5" width="25.5" height="46.5" fill="#E45756" rx="2"/>
<text x="911.3" y="450.5" font-size="10" text-anchor="middle" fill="#222">0.25</text>
<rect x="928.0" y="501.9" width="25.5" height="0.1" fill="#72B7B2" rx="2"/>
<text x="940.7" y="496.9" font-size="10" text-anchor="middle" fill="#222">0.00</text>
<rect x="957.5" y="137.6" width="25.5" height="364.4" fill="#B279A2" rx="2"/>
<text x="970.2" y="132.6" font-size="10" text-anchor="middle" fill="#222">1.98</text>
<rect x="986.9" y="382.1" width="25.5" height="119.9" fill="#54A24B" rx="2"/>
<text x="999.7" y="377.1" font-size="10" text-anchor="middle" fill="#222">0.65</text>
<text x="926.0" y="536.0" font-size="12" text-anchor="middle" fill="#222" transform="rotate(-25.0 926.0 536.0)">distance 80</text>
<rect x="86" y="574" width="14" height="14" fill="#4C78A8" rx="2"/>
<text x="106.0" y="586.0" font-size="12" text-anchor="start" fill="#222">Snapshot</text>
<rect x="336" y="574" width="14" height="14" fill="#F58518" rx="2"/>
<text x="356.0" y="586.0" font-size="12" text-anchor="start" fill="#222">Buffer alloc</text>
<rect x="586" y="574" width="14" height="14" fill="#E45756" rx="2"/>
<text x="606.0" y="586.0" font-size="12" text-anchor="start" fill="#222">Dispatch wall</text>
<rect x="836" y="574" width="14" height="14" fill="#72B7B2" rx="2"/>
<text x="856.0" y="586.0" font-size="12" text-anchor="start" fill="#222">Query wait</text>
<rect x="1086" y="574" width="14" height="14" fill="#B279A2" rx="2"/>
<text x="1106.0" y="586.0" font-size="12" text-anchor="start" fill="#222">Readback wait</text>
<rect x="1336" y="574" width="14" height="14" fill="#54A24B" rx="2"/>
<text x="1356.0" y="586.0" font-size="12" text-anchor="start" fill="#222">GPU compute</text>
</svg>