<svg xmlns="http://www.w3.org/2000/svg" width="1080" height="640" viewBox="0 0 1080 640">
<rect width="100%" height="100%" fill="white"/>
<style>text{font-family:Arial,"Microsoft YaHei",sans-serif;fill:#222}.small{font-size:12px}.axis{stroke:#333;stroke-width:1}.grid{stroke:#E5E5E5;stroke-width:1}</style>
<text x="540.0" y="34" font-size="22" text-anchor="middle">平均帧耗时对比</text>
<line class="grid" x1="92" y1="510.0" x2="1040" y2="510.0"/>
<text class="small" x="82" y="514.0" text-anchor="end">0.00</text>
<line class="grid" x1="92" y1="423.6" x2="1040" y2="423.6"/>
<text class="small" x="82" y="427.6" text-anchor="end">6.00</text>
<line class="grid" x1="92" y1="337.2" x2="1040" y2="337.2"/>
<text class="small" x="82" y="341.2" text-anchor="end">12.00</text>
<line class="grid" x1="92" y1="250.8" x2="1040" y2="250.8"/>
<text class="small" x="82" y="254.8" text-anchor="end">18.00</text>
<line class="grid" x1="92" y1="164.4" x2="1040" y2="164.4"/>
<text class="small" x="82" y="168.4" text-anchor="end">24.00</text>
<line class="grid" x1="92" y1="78.0" x2="1040" y2="78.0"/>
<text class="small" x="82" y="82.0" text-anchor="end">30.00</text>
<line class="axis" x1="92" y1="78" x2="92" y2="510"/>
<line class="axis" x1="92" y1="510" x2="1040" y2="510"/>
<text x="24" y="294.0" font-size="14" text-anchor="middle" transform="rotate(-90 24 294.0)">平均帧耗时（毫秒）</text>
<rect x="147.5" y="448.2" width="35.7" height="61.8" fill="#4C78A8" rx="2"/>
<text class="small" x="165.3" y="442.2" text-anchor="middle">4.29</text>
<rect x="189.5" y="477.2" width="35.7" height="32.8" fill="#F58518" rx="2"/>
<text class="small" x="207.3" y="471.2" text-anchor="middle">2.28</text>
<rect x="231.5" y="464.4" width="35.7" height="45.6" fill="#54A24B" rx="2"/>
<text class="small" x="249.3" y="458.4" text-anchor="middle">3.16</text>
<text class="small" x="210.5" y="546" text-anchor="middle">距离权重 20</text>
<rect x="384.5" y="353.1" width="35.7" height="156.9" fill="#4C78A8" rx="2"/>
<text class="small" x="402.4" y="347.1" text-anchor="middle">10.90</text>
<rect x="426.5" y="430.6" width="35.7" height="79.4" fill="#F58518" rx="2"/>
<text class="small" x="444.4" y="424.6" text-anchor="middle">5.51</text>
<rect x="468.5" y="415.4" width="35.7" height="94.6" fill="#54A24B" rx="2"/>
<text class="small" x="486.4" y="409.4" text-anchor="middle">6.57</text>
<text class="small" x="447.5" y="546" text-anchor="middle">距离权重 40</text>
<rect x="621.5" y="222.5" width="35.7" height="287.5" fill="#4C78A8" rx="2"/>
<text class="small" x="639.4" y="216.5" text-anchor="middle">19.97</text>
<rect x="663.5" y="390.0" width="35.7" height="120.0" fill="#F58518" rx="2"/>
<text class="small" x="681.4" y="384.0" text-anchor="middle">8.33</text>
<rect x="705.5" y="360.2" width="35.7" height="149.8" fill="#54A24B" rx="2"/>
<text class="small" x="723.4" y="354.2" text-anchor="middle">10.40</text>
<text class="small" x="684.5" y="546" text-anchor="middle">距离权重 60</text>
<rect x="858.5" y="121.2" width="35.7" height="388.8" fill="#4C78A8" rx="2"/>
<text class="small" x="876.4" y="115.2" text-anchor="middle">27.00</text>
<rect x="900.5" y="351.2" width="35.7" height="158.8" fill="#F58518" rx="2"/>
<text class="small" x="918.4" y="345.2" text-anchor="middle">11.03</text>
<rect x="942.5" y="308.9" width="35.7" height="201.1" fill="#54A24B" rx="2"/>
<text class="small" x="960.4" y="302.9" text-anchor="middle">13.96</text>
<text class="small" x="921.5" y="546" text-anchor="middle">距离权重 80</text>
<rect x="92" y="580" width="14" height="14" fill="#4C78A8" rx="2"/>
<text class="small" x="112" y="592" text-anchor="start">经典 CPU ROAM</text>
<rect x="408" y="580" width="14" height="14" fill="#F58518" rx="2"/>
<text class="small" x="428" y="592" text-anchor="start">DOD CPU ROAM</text>
<rect x="724" y="580" width="14" height="14" fill="#54A24B" rx="2"/>
<text class="small" x="744" y="592" text-anchor="start">GPU 类 ROAM</text>
</svg>
