<svg xmlns="http://www.w3.org/2000/svg" width="1080" height="660" viewBox="0 0 1080 660">
<rect width="100%" height="100%" fill="white"/>
<style>text{font-family:Arial,"Microsoft YaHei",sans-serif;fill:#222}.small{font-size:12px}.axis{stroke:#333;stroke-width:1}.grid{stroke:#E5E5E5;stroke-width:1}</style>
<text x="540.0" y="34" font-size="22" text-anchor="middle">GPU 类 ROAM 分项平均耗时</text>
<line class="grid" x1="92" y1="520.0" x2="1040" y2="520.0"/>
<text class="small" x="82" y="524.0" text-anchor="end">0.00</text>
<line class="grid" x1="92" y1="431.6" x2="1040" y2="431.6"/>
<text class="small" x="82" y="435.6" text-anchor="end">1.20</text>
<line class="grid" x1="92" y1="343.2" x2="1040" y2="343.2"/>
<text class="small" x="82" y="347.2" text-anchor="end">2.40</text>
<line class="grid" x1="92" y1="254.8" x2="1040" y2="254.8"/>
<text class="small" x="82" y="258.8" text-anchor="end">3.60</text>
<line class="grid" x1="92" y1="166.4" x2="1040" y2="166.4"/>
<text class="small" x="82" y="170.4" text-anchor="end">4.80</text>
<line class="grid" x1="92" y1="78.0" x2="1040" y2="78.0"/>
<text class="small" x="82" y="82.0" text-anchor="end">6.00</text>
<line class="axis" x1="92" y1="78" x2="92" y2="520"/>
<line class="axis" x1="92" y1="520" x2="1040" y2="520"/>
<text x="24" y="299.0" font-size="14" text-anchor="middle" transform="rotate(-90 24 299.0)">毫秒</text>
<rect x="163.5" y="491.0" width="94.0" height="29.0" fill="#B279A2" rx="1"/>
<rect x="163.5" y="491.0" width="94.0" height="0.0" fill="#FF9DA6" rx="1"/>
<rect x="163.5" y="481.0" width="94.0" height="10.0" fill="#E45756" rx="1"/>
<rect x="163.5" y="481.0" width="94.0" height="0.0" fill="#BAB0AC" rx="1"/>
<rect x="163.5" y="452.0" width="94.0" height="29.0" fill="#72B7B2" rx="1"/>
<rect x="163.5" y="431.0" width="94.0" height="21.0" fill="#54A24B" rx="1"/>
<text class="small" x="210.5" y="423.0" text-anchor="middle">1.21</text>
<text class="small" x="210.5" y="556" text-anchor="middle">距离权重 20</text>
<rect x="400.5" y="455.7" width="94.0" height="64.3" fill="#B279A2" rx="1"/>
<rect x="400.5" y="455.7" width="94.0" height="0.0" fill="#FF9DA6" rx="1"/>
<rect x="400.5" y="442.5" width="94.0" height="13.2" fill="#E45756" rx="1"/>
<rect x="400.5" y="442.5" width="94.0" height="0.0" fill="#BAB0AC" rx="1"/>
<rect x="400.5" y="371.0" width="94.0" height="71.5" fill="#72B7B2" rx="1"/>
<rect x="400.5" y="338.4" width="94.0" height="32.5" fill="#54A24B" rx="1"/>
<text class="small" x="447.5" y="330.4" text-anchor="middle">2.46</text>
<text class="small" x="447.5" y="556" text-anchor="middle">距离权重 40</text>
<rect x="637.5" y="423.6" width="94.0" height="96.4" fill="#B279A2" rx="1"/>
<rect x="637.5" y="423.6" width="94.0" height="0.1" fill="#FF9DA6" rx="1"/>
<rect x="637.5" y="405.1" width="94.0" height="18.5" fill="#E45756" rx="1"/>
<rect x="637.5" y="405.1" width="94.0" height="0.0" fill="#BAB0AC" rx="1"/>
<rect x="637.5" y="287.5" width="94.0" height="117.5" fill="#72B7B2" rx="1"/>
<rect x="637.5" y="243.9" width="94.0" height="43.6" fill="#54A24B" rx="1"/>
<text class="small" x="684.5" y="235.9" text-anchor="middle">3.75</text>
<text class="small" x="684.5" y="556" text-anchor="middle">距离权重 60</text>
<rect x="874.5" y="393.4" width="94.0" height="126.6" fill="#B279A2" rx="1"/>
<rect x="874.5" y="393.3" width="94.0" height="0.1" fill="#FF9DA6" rx="1"/>
<rect x="874.5" y="374.7" width="94.0" height="18.6" fill="#E45756" rx="1"/>
<rect x="874.5" y="374.7" width="94.0" height="0.0" fill="#BAB0AC" rx="1"/>
<rect x="874.5" y="228.9" width="94.0" height="145.8" fill="#72B7B2" rx="1"/>
<rect x="874.5" y="180.9" width="94.0" height="48.0" fill="#54A24B" rx="1"/>
<text class="small" x="921.5" y="172.9" text-anchor="middle">4.60</text>
<text class="small" x="921.5" y="556" text-anchor="middle">距离权重 80</text>
<rect x="92" y="600" width="14" height="14" fill="#B279A2" rx="2"/>
<text class="small" x="112" y="612" text-anchor="start">GPU 快照</text>
<rect x="250" y="600" width="14" height="14" fill="#FF9DA6" rx="2"/>
<text class="small" x="270" y="612" text-anchor="start">GPU 分配</text>
<rect x="408" y="600" width="14" height="14" fill="#E45756" rx="2"/>
<text class="small" x="428" y="612" text-anchor="start">GPU 调度</text>
<rect x="566" y="600" width="14" height="14" fill="#BAB0AC" rx="2"/>
<text class="small" x="586" y="612" text-anchor="start">GPU 查询等待</text>
<rect x="724" y="600" width="14" height="14" fill="#72B7B2" rx="2"/>
<text class="small" x="744" y="612" text-anchor="start">GPU 读回</text>
<rect x="882" y="600" width="14" height="14" fill="#54A24B" rx="2"/>
<text class="small" x="902" y="612" text-anchor="start">GPU 计算</text>
</svg>
