<svg xmlns="http://www.w3.org/2000/svg" width="1080" height="620" viewBox="0 0 1080 620">
<rect width="100%" height="100%" fill="white"/>
<text x="540.0" y="32.0" font-size="22" text-anchor="middle" fill="#222">Average LOD cost by algorithm</text>
<text x="22.0" y="287.0" font-size="14" text-anchor="middle" fill="#222" transform="rotate(-90.0 22.0 287.0)">Avg LOD ms</text>
<line x1="86" y1="502.0" x2="1046" y2="502.0" stroke="#E5E5E5"/>
<text x="76.0" y="506.0" font-size="12" text-anchor="end" fill="#222">0.00</text>
<line x1="86" y1="416.0" x2="1046" y2="416.0" stroke="#E5E5E5"/>
<text x="76.0" y="420.0" font-size="12" text-anchor="end" fill="#222">5.97</text>
<line x1="86" y1="330.0" x2="1046" y2="330.0" stroke="#E5E5E5"/>
<text x="76.0" y="334.0" font-size="12" text-anchor="end" fill="#222">11.94</text>
<line x1="86" y1="244.0" x2="1046" y2="244.0" stroke="#E5E5E5"/>
<text x="76.0" y="248.0" font-size="12" text-anchor="end" fill="#222">17.91</text>
<line x1="86" y1="158.0" x2="1046" y2="158.0" stroke="#E5E5E5"/>
<text x="76.0" y="162.0" font-size="12" text-anchor="end" fill="#222">23.88</text>
<line x1="86" y1="72.0" x2="1046" y2="72.0" stroke="#E5E5E5"/>
<text x="76.0" y="76.0" font-size="12" text-anchor="end" fill="#222">29.84</text>
<line x1="86" y1="72" x2="86" y2="502" stroke="#333"/>
<line x1="86" y1="502" x2="1046" y2="502" stroke="#333"/>
<rect x="151.0" y="446.1" width="34.0" height="55.9" fill="#4C78A8" rx="2"/>
<text x="168.0" y="441.1" font-size="10" text-anchor="middle" fill="#222">3.88</text>
<rect x="189.0" y="472.5" width="34.0" height="29.5" fill="#F58518" rx="2"/>
<text x="206.0" y="467.5" font-size="10" text-anchor="middle" fill="#222">2.05</text>
<rect x="227.0" y="458.3" width="34.0" height="43.7" fill="#54A24B" rx="2"/>
<text x="244.0" y="453.3" font-size="10" text-anchor="middle" fill="#222">3.04</text>
<text x="206.0" y="536.0" font-size="12" text-anchor="middle" fill="#222" transform="rotate(-25.0 206.0 536.0)">distance 20</text>
<rect x="391.0" y="359.2" width="34.0" height="142.8" fill="#4C78A8" rx="2"/>
<text x="408.0" y="354.2" font-size="10" text-anchor="middle" fill="#222">9.91</text>
<rect x="429.0" y="430.0" width="34.0" height="72.0" fill="#F58518" rx="2"/>
<text x="446.0" y="425.0" font-size="10" text-anchor="middle" fill="#222">5.00</text>
<rect x="467.0" y="410.5" width="34.0" height="91.5" fill="#54A24B" rx="2"/>
<text x="484.0" y="405.5" font-size="10" text-anchor="middle" fill="#222">6.35</text>
<text x="446.0" y="536.0" font-size="12" text-anchor="middle" fill="#222" transform="rotate(-25.0 446.0 536.0)">distance 40</text>
<rect x="631.0" y="235.0" width="34.0" height="267.0" fill="#4C78A8" rx="2"/>
<text x="648.0" y="230.0" font-size="10" text-anchor="middle" fill="#222">18.53</text>
<rect x="669.0" y="392.9" width="34.0" height="109.1" fill="#F58518" rx="2"/>
<text x="686.0" y="387.9" font-size="10" text-anchor="middle" fill="#222">7.57</text>
<rect x="707.0" y="356.4" width="34.0" height="145.6" fill="#54A24B" rx="2"/>
<text x="724.0" y="351.4" font-size="10" text-anchor="middle" fill="#222">10.11</text>
<text x="686.0" y="536.0" font-size="12" text-anchor="middle" fill="#222" transform="rotate(-25.0 686.0 536.0)">distance 60</text>
<rect x="871.0" y="137.6" width="34.0" height="364.4" fill="#4C78A8" rx="2"/>
<text x="888.0" y="132.6" font-size="10" text-anchor="middle" fill="#222">25.29</text>
<rect x="909.0" y="357.1" width="34.0" height="144.9" fill="#F58518" rx="2"/>
<text x="926.0" y="352.1" font-size="10" text-anchor="middle" fill="#222">10.06</text>
<rect x="947.0" y="305.4" width="34.0" height="196.6" fill="#54A24B" rx="2"/>
<text x="964.0" y="300.4" font-size="10" text-anchor="middle" fill="#222">13.65</text>
<text x="926.0" y="536.0" font-size="12" text-anchor="middle" fill="#222" transform="rotate(-25.0 926.0 536.0)">distance 80</text>
<rect x="86" y="574" width="14" height="14" fill="#4C78A8" rx="2"/>
<text x="106.0" y="586.0" font-size="12" text-anchor="start" fill="#222">Classic CPU ROAM</text>
<rect x="336" y="574" width="14" height="14" fill="#F58518" rx="2"/>
<text x="356.0" y="586.0" font-size="12" text-anchor="start" fill="#222">Data-Oriented CPU ROAM</text>
<rect x="586" y="574" width="14" height="14" fill="#54A24B" rx="2"/>
<text x="606.0" y="586.0" font-size="12" text-anchor="start" fill="#222">GPU ROAM-like</text>
</svg>