<svg xmlns="http://www.w3.org/2000/svg" width="1080" height="620" viewBox="0 0 1080 620">
<rect width="100%" height="100%" fill="white"/>
<text x="540.0" y="32.0" font-size="22" text-anchor="middle" fill="#222">Average generated triangles</text>
<text x="22.0" y="287.0" font-size="14" text-anchor="middle" fill="#222" transform="rotate(-90.0 22.0 287.0)">Triangles</text>
<line x1="86" y1="502.0" x2="1046" y2="502.0" stroke="#E5E5E5"/>
<text x="76.0" y="506.0" font-size="12" text-anchor="end" fill="#222">0.00</text>
<line x1="86" y1="416.0" x2="1046" y2="416.0" stroke="#E5E5E5"/>
<text x="76.0" y="420.0" font-size="12" text-anchor="end" fill="#222">7425.35</text>
<line x1="86" y1="330.0" x2="1046" y2="330.0" stroke="#E5E5E5"/>
<text x="76.0" y="334.0" font-size="12" text-anchor="end" fill="#222">14850.70</text>
<line x1="86" y1="244.0" x2="1046" y2="244.0" stroke="#E5E5E5"/>
<text x="76.0" y="248.0" font-size="12" text-anchor="end" fill="#222">22276.05</text>
<line x1="86" y1="158.0" x2="1046" y2="158.0" stroke="#E5E5E5"/>
<text x="76.0" y="162.0" font-size="12" text-anchor="end" fill="#222">29701.39</text>
<line x1="86" y1="72.0" x2="1046" y2="72.0" stroke="#E5E5E5"/>
<text x="76.0" y="76.0" font-size="12" text-anchor="end" fill="#222">37126.74</text>
<line x1="86" y1="72" x2="86" y2="502" stroke="#333"/>
<line x1="86" y1="502" x2="1046" y2="502" stroke="#333"/>
<rect x="151.0" y="417.0" width="34.0" height="85.0" fill="#4C78A8" rx="2"/>
<text x="168.0" y="412.0" font-size="10" text-anchor="middle" fill="#222">7336.09</text>
<rect x="189.0" y="417.5" width="34.0" height="84.5" fill="#F58518" rx="2"/>
<text x="206.0" y="412.5" font-size="10" text-anchor="middle" fill="#222">7293.17</text>
<rect x="227.0" y="416.2" width="34.0" height="85.8" fill="#54A24B" rx="2"/>
<text x="244.0" y="411.2" font-size="10" text-anchor="middle" fill="#222">7409.32</text>
<text x="206.0" y="536.0" font-size="12" text-anchor="middle" fill="#222" transform="rotate(-25.0 206.0 536.0)">distance 20</text>
<rect x="391.0" y="313.4" width="34.0" height="188.6" fill="#4C78A8" rx="2"/>
<text x="408.0" y="308.4" font-size="10" text-anchor="middle" fill="#222">16282.74</text>
<rect x="429.0" y="313.0" width="34.0" height="189.0" fill="#F58518" rx="2"/>
<text x="446.0" y="308.0" font-size="10" text-anchor="middle" fill="#222">16316.37</text>
<rect x="467.0" y="313.2" width="34.0" height="188.8" fill="#54A24B" rx="2"/>
<text x="484.0" y="308.2" font-size="10" text-anchor="middle" fill="#222">16300.85</text>
<text x="446.0" y="536.0" font-size="12" text-anchor="middle" fill="#222" transform="rotate(-25.0 446.0 536.0)">distance 40</text>
<rect x="631.0" y="212.5" width="34.0" height="289.5" fill="#4C78A8" rx="2"/>
<text x="648.0" y="207.5" font-size="10" text-anchor="middle" fill="#222">24997.80</text>
<rect x="669.0" y="210.2" width="34.0" height="291.8" fill="#F58518" rx="2"/>
<text x="686.0" y="205.2" font-size="10" text-anchor="middle" fill="#222">25192.88</text>
<rect x="707.0" y="212.0" width="34.0" height="290.0" fill="#54A24B" rx="2"/>
<text x="724.0" y="207.0" font-size="10" text-anchor="middle" fill="#222">25041.73</text>
<text x="686.0" y="536.0" font-size="12" text-anchor="middle" fill="#222" transform="rotate(-25.0 686.0 536.0)">distance 60</text>
<rect x="871.0" y="140.1" width="34.0" height="361.9" fill="#4C78A8" rx="2"/>
<text x="888.0" y="135.1" font-size="10" text-anchor="middle" fill="#222">31251.10</text>
<rect x="909.0" y="137.6" width="34.0" height="364.4" fill="#F58518" rx="2"/>
<text x="926.0" y="132.6" font-size="10" text-anchor="middle" fill="#222">31463.34</text>
<rect x="947.0" y="138.9" width="34.0" height="363.1" fill="#54A24B" rx="2"/>
<text x="964.0" y="133.9" font-size="10" text-anchor="middle" fill="#222">31352.00</text>
<text x="926.0" y="536.0" font-size="12" text-anchor="middle" fill="#222" transform="rotate(-25.0 926.0 536.0)">distance 80</text>
<rect x="86" y="574" width="14" height="14" fill="#4C78A8" rx="2"/>
<text x="106.0" y="586.0" font-size="12" text-anchor="start" fill="#222">Classic CPU ROAM</text>
<rect x="336" y="574" width="14" height="14" fill="#F58518" rx="2"/>
<text x="356.0" y="586.0" font-size="12" text-anchor="start" fill="#222">Data-Oriented CPU ROAM</text>
<rect x="586" y="574" width="14" height="14" fill="#54A24B" rx="2"/>
<text x="606.0" y="586.0" font-size="12" text-anchor="start" fill="#222">GPU ROAM-like</text>
</svg>