<svg xmlns="http://www.w3.org/2000/svg" width="1080" height="640" viewBox="0 0 1080 640">
<rect width="100%" height="100%" fill="white"/>
<style>text{font-family:Arial,"Microsoft YaHei",sans-serif;fill:#222}.small{font-size:12px}.axis{stroke:#333;stroke-width:1}.grid{stroke:#E5E5E5;stroke-width:1}</style>
<text x="540.0" y="34" font-size="22" text-anchor="middle">实验3：距离权重下的单位三角形 LOD 耗时</text>
<line class="grid" x1="92" y1="510.0" x2="1040" y2="510.0"/>
<text class="small" x="82" y="514.0" text-anchor="end">0.00</text>
<line class="grid" x1="92" y1="423.6" x2="1040" y2="423.6"/>
<text class="small" x="82" y="427.6" text-anchor="end">2.00</text>
<line class="grid" x1="92" y1="337.2" x2="1040" y2="337.2"/>
<text class="small" x="82" y="341.2" text-anchor="end">4.00</text>
<line class="grid" x1="92" y1="250.8" x2="1040" y2="250.8"/>
<text class="small" x="82" y="254.8" text-anchor="end">6.00</text>
<line class="grid" x1="92" y1="164.4" x2="1040" y2="164.4"/>
<text class="small" x="82" y="168.4" text-anchor="end">8.00</text>
<line class="grid" x1="92" y1="78.0" x2="1040" y2="78.0"/>
<text class="small" x="82" y="82.0" text-anchor="end">10.00</text>
<line class="axis" x1="92" y1="78" x2="92" y2="510"/>
<line class="axis" x1="92" y1="510" x2="1040" y2="510"/>
<text x="24" y="294.0" font-size="14" text-anchor="middle" transform="rotate(-90 24 294.0)">毫秒 / 1 万三角形</text>
<line class="grid" x1="92.0" y1="510" x2="92.0" y2="515"/>
<text class="small" x="92.0" y="544" text-anchor="middle">20</text>
<line class="grid" x1="408.0" y1="510" x2="408.0" y2="515"/>
<text class="small" x="408.0" y="544" text-anchor="middle">40</text>
<line class="grid" x1="724.0" y1="510" x2="724.0" y2="515"/>
<text class="small" x="724.0" y="544" text-anchor="middle">60</text>
<line class="grid" x1="1040.0" y1="510" x2="1040.0" y2="515"/>
<text class="small" x="1040.0" y="544" text-anchor="middle">80</text>
<polyline points="92.0,281.5 408.0,247.1 724.0,189.8 1040.0,160.4" fill="none" stroke="#4C78A8" stroke-width="3"/>
<circle cx="92.0" cy="281.5" r="4" fill="#4C78A8"/>
<text class="small" x="92.0" y="273.5" text-anchor="middle">5.3</text>
<circle cx="408.0" cy="247.1" r="4" fill="#4C78A8"/>
<text class="small" x="408.0" y="239.1" text-anchor="middle">6.1</text>
<circle cx="724.0" cy="189.8" r="4" fill="#4C78A8"/>
<text class="small" x="724.0" y="181.8" text-anchor="middle">7.4</text>
<circle cx="1040.0" cy="160.4" r="4" fill="#4C78A8"/>
<text class="small" x="1040.0" y="152.4" text-anchor="middle">8.1</text>
<polyline points="92.0,388.9 408.0,377.6 724.0,380.1 1040.0,371.9" fill="none" stroke="#F58518" stroke-width="3"/>
<circle cx="92.0" cy="388.9" r="4" fill="#F58518"/>
<text class="small" x="92.0" y="380.9" text-anchor="middle">2.8</text>
<circle cx="408.0" cy="377.6" r="4" fill="#F58518"/>
<text class="small" x="408.0" y="369.6" text-anchor="middle">3.1</text>
<circle cx="724.0" cy="380.1" r="4" fill="#F58518"/>
<text class="small" x="724.0" y="372.1" text-anchor="middle">3.0</text>
<circle cx="1040.0" cy="371.9" r="4" fill="#F58518"/>
<text class="small" x="1040.0" y="363.9" text-anchor="middle">3.2</text>
<polyline points="92.0,333.0 408.0,341.6 724.0,335.6 1040.0,322.0" fill="none" stroke="#54A24B" stroke-width="3"/>
<circle cx="92.0" cy="333.0" r="4" fill="#54A24B"/>
<text class="small" x="92.0" y="325.0" text-anchor="middle">4.1</text>
<circle cx="408.0" cy="341.6" r="4" fill="#54A24B"/>
<text class="small" x="408.0" y="333.6" text-anchor="middle">3.9</text>
<circle cx="724.0" cy="335.6" r="4" fill="#54A24B"/>
<text class="small" x="724.0" y="327.6" text-anchor="middle">4.0</text>
<circle cx="1040.0" cy="322.0" r="4" fill="#54A24B"/>
<text class="small" x="1040.0" y="314.0" text-anchor="middle">4.4</text>
<rect x="92" y="580" width="14" height="14" fill="#4C78A8" rx="2"/>
<text class="small" x="112" y="592" text-anchor="start">经典 CPU ROAM</text>
<rect x="408" y="580" width="14" height="14" fill="#F58518" rx="2"/>
<text class="small" x="428" y="592" text-anchor="start">DOD CPU ROAM</text>
<rect x="724" y="580" width="14" height="14" fill="#54A24B" rx="2"/>
<text class="small" x="744" y="592" text-anchor="start">GPU 类 ROAM</text>
</svg>
