<svg xmlns="http://www.w3.org/2000/svg" width="1080" height="640" viewBox="0 0 1080 640">
<rect width="100%" height="100%" fill="white"/>
<style>text{font-family:Arial,"Microsoft YaHei",sans-serif;fill:#222}.small{font-size:12px}.axis{stroke:#333;stroke-width:1}.grid{stroke:#E5E5E5;stroke-width:1}</style>
<text x="540.0" y="34" font-size="22" text-anchor="middle">平均生成三角形数对比</text>
<line class="grid" x1="92" y1="510.0" x2="1040" y2="510.0"/>
<text class="small" x="82" y="514.0" text-anchor="end">0.00</text>
<line class="grid" x1="92" y1="423.6" x2="1040" y2="423.6"/>
<text class="small" x="82" y="427.6" text-anchor="end">12000.00</text>
<line class="grid" x1="92" y1="337.2" x2="1040" y2="337.2"/>
<text class="small" x="82" y="341.2" text-anchor="end">24000.00</text>
<line class="grid" x1="92" y1="250.8" x2="1040" y2="250.8"/>
<text class="small" x="82" y="254.8" text-anchor="end">36000.00</text>
<line class="grid" x1="92" y1="164.4" x2="1040" y2="164.4"/>
<text class="small" x="82" y="168.4" text-anchor="end">48000.00</text>
<line class="grid" x1="92" y1="78.0" x2="1040" y2="78.0"/>
<text class="small" x="82" y="82.0" text-anchor="end">60000.00</text>
<line class="axis" x1="92" y1="78" x2="92" y2="510"/>
<line class="axis" x1="92" y1="510" x2="1040" y2="510"/>
<text x="24" y="294.0" font-size="14" text-anchor="middle" transform="rotate(-90 24 294.0)">三角形数</text>
<rect x="147.5" y="457.2" width="35.7" height="52.8" fill="#4C78A8" rx="2"/>
<text class="small" x="165.3" y="451.2" text-anchor="middle">7336</text>
<rect x="189.5" y="457.5" width="35.7" height="52.5" fill="#F58518" rx="2"/>
<text class="small" x="207.3" y="451.5" text-anchor="middle">7293</text>
<rect x="231.5" y="456.7" width="35.7" height="53.3" fill="#54A24B" rx="2"/>
<text class="small" x="249.3" y="450.7" text-anchor="middle">7409</text>
<text class="small" x="210.5" y="546" text-anchor="middle">距离权重 20</text>
<rect x="384.5" y="392.8" width="35.7" height="117.2" fill="#4C78A8" rx="2"/>
<text class="small" x="402.4" y="386.8" text-anchor="middle">16283</text>
<rect x="426.5" y="392.5" width="35.7" height="117.5" fill="#F58518" rx="2"/>
<text class="small" x="444.4" y="386.5" text-anchor="middle">16316</text>
<rect x="468.5" y="392.6" width="35.7" height="117.4" fill="#54A24B" rx="2"/>
<text class="small" x="486.4" y="386.6" text-anchor="middle">16301</text>
<text class="small" x="447.5" y="546" text-anchor="middle">距离权重 40</text>
<rect x="621.5" y="330.0" width="35.7" height="180.0" fill="#4C78A8" rx="2"/>
<text class="small" x="639.4" y="324.0" text-anchor="middle">24998</text>
<rect x="663.5" y="328.6" width="35.7" height="181.4" fill="#F58518" rx="2"/>
<text class="small" x="681.4" y="322.6" text-anchor="middle">25193</text>
<rect x="705.5" y="329.7" width="35.7" height="180.3" fill="#54A24B" rx="2"/>
<text class="small" x="723.4" y="323.7" text-anchor="middle">25042</text>
<text class="small" x="684.5" y="546" text-anchor="middle">距离权重 60</text>
<rect x="858.5" y="285.0" width="35.7" height="225.0" fill="#4C78A8" rx="2"/>
<text class="small" x="876.4" y="279.0" text-anchor="middle">31251</text>
<rect x="900.5" y="283.5" width="35.7" height="226.5" fill="#F58518" rx="2"/>
<text class="small" x="918.4" y="277.5" text-anchor="middle">31463</text>
<rect x="942.5" y="284.3" width="35.7" height="225.7" fill="#54A24B" rx="2"/>
<text class="small" x="960.4" y="278.3" text-anchor="middle">31352</text>
<text class="small" x="921.5" y="546" text-anchor="middle">距离权重 80</text>
<rect x="92" y="580" width="14" height="14" fill="#4C78A8" rx="2"/>
<text class="small" x="112" y="592" text-anchor="start">经典 CPU ROAM</text>
<rect x="408" y="580" width="14" height="14" fill="#F58518" rx="2"/>
<text class="small" x="428" y="592" text-anchor="start">DOD CPU ROAM</text>
<rect x="724" y="580" width="14" height="14" fill="#54A24B" rx="2"/>
<text class="small" x="744" y="592" text-anchor="start">GPU 类 ROAM</text>
</svg>
