<svg xmlns="http://www.w3.org/2000/svg" width="1080" height="640" viewBox="0 0 1080 640">
<rect width="100%" height="100%" fill="white"/>
<style>text{font-family:Arial,"Microsoft YaHei",sans-serif;fill:#222}.small{font-size:12px}.axis{stroke:#333;stroke-width:1}.grid{stroke:#E5E5E5;stroke-width:1}</style>
<text x="540.0" y="34" font-size="22" text-anchor="middle">平均进程 CPU 利用率对比</text>
<line class="grid" x1="92" y1="510.0" x2="1040" y2="510.0"/>
<text class="small" x="82" y="514.0" text-anchor="end">0.00</text>
<line class="grid" x1="92" y1="423.6" x2="1040" y2="423.6"/>
<text class="small" x="82" y="427.6" text-anchor="end">120.00</text>
<line class="grid" x1="92" y1="337.2" x2="1040" y2="337.2"/>
<text class="small" x="82" y="341.2" text-anchor="end">240.00</text>
<line class="grid" x1="92" y1="250.8" x2="1040" y2="250.8"/>
<text class="small" x="82" y="254.8" text-anchor="end">360.00</text>
<line class="grid" x1="92" y1="164.4" x2="1040" y2="164.4"/>
<text class="small" x="82" y="168.4" text-anchor="end">480.00</text>
<line class="grid" x1="92" y1="78.0" x2="1040" y2="78.0"/>
<text class="small" x="82" y="82.0" text-anchor="end">600.00</text>
<line class="axis" x1="92" y1="78" x2="92" y2="510"/>
<line class="axis" x1="92" y1="510" x2="1040" y2="510"/>
<text x="24" y="294.0" font-size="14" text-anchor="middle" transform="rotate(-90 24 294.0)">CPU 利用率（%）</text>
<rect x="147.5" y="446.2" width="35.7" height="63.8" fill="#4C78A8" rx="2"/>
<text class="small" x="165.3" y="440.2" text-anchor="middle">88.56</text>
<rect x="189.5" y="263.4" width="35.7" height="246.6" fill="#F58518" rx="2"/>
<text class="small" x="207.3" y="257.4" text-anchor="middle">342.43</text>
<rect x="231.5" y="338.5" width="35.7" height="171.5" fill="#54A24B" rx="2"/>
<text class="small" x="249.3" y="332.5" text-anchor="middle">238.24</text>
<text class="small" x="210.5" y="546" text-anchor="middle">距离权重 20</text>
<rect x="384.5" y="441.2" width="35.7" height="68.8" fill="#4C78A8" rx="2"/>
<text class="small" x="402.4" y="435.2" text-anchor="middle">95.50</text>
<rect x="426.5" y="278.2" width="35.7" height="231.8" fill="#F58518" rx="2"/>
<text class="small" x="444.4" y="272.2" text-anchor="middle">322.00</text>
<rect x="468.5" y="346.5" width="35.7" height="163.5" fill="#54A24B" rx="2"/>
<text class="small" x="486.4" y="340.5" text-anchor="middle">227.07</text>
<text class="small" x="447.5" y="546" text-anchor="middle">距离权重 40</text>
<rect x="621.5" y="440.1" width="35.7" height="69.9" fill="#4C78A8" rx="2"/>
<text class="small" x="639.4" y="434.1" text-anchor="middle">97.08</text>
<rect x="663.5" y="284.5" width="35.7" height="225.5" fill="#F58518" rx="2"/>
<text class="small" x="681.4" y="278.5" text-anchor="middle">313.19</text>
<rect x="705.5" y="353.2" width="35.7" height="156.8" fill="#54A24B" rx="2"/>
<text class="small" x="723.4" y="347.2" text-anchor="middle">217.84</text>
<text class="small" x="684.5" y="546" text-anchor="middle">距离权重 60</text>
<rect x="858.5" y="438.9" width="35.7" height="71.1" fill="#4C78A8" rx="2"/>
<text class="small" x="876.4" y="432.9" text-anchor="middle">98.81</text>
<rect x="900.5" y="273.1" width="35.7" height="236.9" fill="#F58518" rx="2"/>
<text class="small" x="918.4" y="267.1" text-anchor="middle">329.08</text>
<rect x="942.5" y="366.8" width="35.7" height="143.2" fill="#54A24B" rx="2"/>
<text class="small" x="960.4" y="360.8" text-anchor="middle">198.82</text>
<text class="small" x="921.5" y="546" text-anchor="middle">距离权重 80</text>
<rect x="92" y="580" width="14" height="14" fill="#4C78A8" rx="2"/>
<text class="small" x="112" y="592" text-anchor="start">经典 CPU ROAM</text>
<rect x="408" y="580" width="14" height="14" fill="#F58518" rx="2"/>
<text class="small" x="428" y="592" text-anchor="start">DOD CPU ROAM</text>
<rect x="724" y="580" width="14" height="14" fill="#54A24B" rx="2"/>
<text class="small" x="744" y="592" text-anchor="start">GPU 类 ROAM</text>
</svg>
