<svg xmlns="http://www.w3.org/2000/svg" width="1080" height="640" viewBox="0 0 1080 640">
<rect width="100%" height="100%" fill="white"/>
<style>text{font-family:Arial,"Microsoft YaHei",sans-serif;fill:#222}.small{font-size:12px}.axis{stroke:#333;stroke-width:1}.grid{stroke:#E5E5E5;stroke-width:1}</style>
<text x="540.0" y="34" font-size="22" text-anchor="middle">实验5：GPU 类 ROAM 阶段耗时变化</text>
<line class="grid" x1="92" y1="510.0" x2="1040" y2="510.0"/>
<text class="small" x="82" y="514.0" text-anchor="end">0.00</text>
<line class="grid" x1="92" y1="423.6" x2="1040" y2="423.6"/>
<text class="small" x="82" y="427.6" text-anchor="end">2.00</text>
<line class="grid" x1="92" y1="337.2" x2="1040" y2="337.2"/>
<text class="small" x="82" y="341.2" text-anchor="end">4.00</text>
<line class="grid" x1="92" y1="250.8" x2="1040" y2="250.8"/>
<text class="small" x="82" y="254.8" text-anchor="end">6.00</text>
<line class="grid" x1="92" y1="164.4" x2="1040" y2="164.4"/>
<text class="small" x="82" y="168.4" text-anchor="end">8.00</text>
<line class="grid" x1="92" y1="78.0" x2="1040" y2="78.0"/>
<text class="small" x="82" y="82.0" text-anchor="end">10.00</text>
<line class="axis" x1="92" y1="78" x2="92" y2="510"/>
<line class="axis" x1="92" y1="510" x2="1040" y2="510"/>
<text x="24" y="294.0" font-size="14" text-anchor="middle" transform="rotate(-90 24 294.0)">毫秒</text>
<text class="small" x="92.0" y="544" text-anchor="middle">0.0s</text>
<text class="small" x="281.6" y="544" text-anchor="middle">2.0s</text>
<text class="small" x="471.2" y="544" text-anchor="middle">4.0s</text>
<text class="small" x="660.8" y="544" text-anchor="middle">6.0s</text>
<text class="small" x="850.4" y="544" text-anchor="middle">8.0s</text>
<text class="small" x="1040.0" y="544" text-anchor="middle">10.0s</text>
<polyline points="92.0,216.5 95.1,387.9 97.2,421.1 99.3,463.7 101.1,436.4 103.0,443.1 104.9,441.0 106.7,435.8 108.6,435.9 110.6,432.0 112.9,452.8 114.9,439.3 116.8,442.2 118.6,431.9 120.5,450.7 122.5,439.1 124.4,428.9 126.4,434.7 128.3,440.3 130.3,433.8 132.2,434.6 134.2,430.9 136.3,439.8 138.3,437.1 140.4,443.6 142.5,452.4 144.4,423.9 146.4,417.0 148.5,436.1 150.3,445.8 152.2,442.3 154.1,430.5 156.1,429.6 158.3,430.4 160.5,440.8 162.6,439.8 164.7,416.5 166.8,428.6 168.7,421.1 170.8,443.2 172.8,447.7 175.0,432.2 177.0,441.4 179.1,436.9 181.1,425.1 183.2,430.6 185.4,441.0 187.5,429.9 189.6,441.7 191.6,437.5 193.6,415.9 195.7,421.0 197.7,428.2 199.7,449.0 201.8,427.3 203.9,436.9 205.9,437.3 208.1,421.1 210.1,421.5 212.1,408.3 214.3,423.8 216.3,451.7 218.2,431.5 220.2,429.3 222.3,434.4 224.4,440.0 226.4,435.5 228.4,436.8 230.4,439.1 232.6,423.5 234.9,437.8 237.1,440.1 239.1,452.0 241.1,425.2 243.3,434.2 245.6,439.3 247.7,431.7 249.8,429.3 251.9,431.3 254.0,438.4 256.1,435.0 258.2,442.7 260.3,433.1 262.4,437.3 264.3,428.8 266.4,430.2 268.4,440.9 270.7,418.3 272.9,430.2 275.0,433.8 277.3,439.8 279.4,416.9 281.6,428.4 283.8,431.5 285.9,426.3 288.1,426.3 290.3,432.8 292.5,420.9 294.6,421.4 296.6,433.5 298.6,438.7 300.7,439.3 303.0,440.1 305.2,427.9 307.4,426.7 309.6,436.0 311.7,423.6 313.9,439.0 316.1,434.0 318.3,441.8 320.3,418.7 322.6,435.7 324.8,456.6 326.9,415.9 329.1,418.8 331.3,432.6 333.6,423.6 335.6,421.7 337.8,433.1 340.1,436.9 342.4,434.2 344.7,419.5 346.8,433.7 349.0,431.9 351.1,433.3 353.3,438.7 355.4,439.9 357.7,434.5 359.9,439.8 362.3,432.3 364.5,416.3 366.9,431.4 369.1,435.5 371.4,431.5 373.6,430.0 375.8,438.5 377.9,431.0 380.1,431.7 382.3,437.9 384.5,436.4 386.8,407.5 389.1,431.5 391.4,415.3 393.8,430.0 396.0,427.9 398.5,432.5 400.7,415.3 403.0,433.5 405.2,416.7 407.6,451.5 409.7,419.7 412.1,419.4 414.5,414.0 416.9,442.2 419.1,416.7 421.5,431.9 423.9,434.7 426.2,424.8 428.5,422.4 430.9,430.7 433.2,431.0 435.5,407.7 438.1,398.4 440.8,452.4 443.0,407.4 445.4,412.2 447.9,429.0 450.2,398.0 452.6,413.8 455.2,432.9 457.7,430.7 460.1,404.1 462.6,422.6 465.1,439.2 467.8,407.8 470.4,426.8 472.7,430.2 475.1,421.2 477.7,442.2 480.1,424.8 482.6,420.2 485.1,395.4 487.6,432.3 490.2,404.4 493.1,425.3 495.9,428.8 498.4,422.2 500.9,413.4 503.6,391.4 506.1,400.6 509.0,428.6 511.9,409.1 514.6,433.1 517.4,411.2 520.1,401.5 522.9,436.6 525.7,411.8 528.4,400.8 531.2,398.0 533.7,406.1 536.4,410.0 539.2,390.8 541.9,420.4 544.7,427.6 547.5,394.2 550.4,440.7 553.2,413.2 556.4,418.3 559.6,408.6 562.8,396.6 565.6,432.5 568.4,443.3 571.2,441.1 574.0,403.0 576.6,421.7 579.3,408.9 581.9,396.6 584.7,398.0 587.8,411.5 590.6,399.1 593.3,389.2 596.4,391.5 599.0,398.7 601.7,418.2 604.3,415.9 607.0,438.4 609.6,404.6 612.3,393.4 615.1,415.8 618.0,419.0 620.9,395.0 623.9,403.9 626.8,397.0 629.9,408.4 633.0,434.7 636.1,428.5 639.1,387.4 642.3,403.5 645.4,439.8 648.5,403.2 651.8,390.2 655.1,382.4 658.4,410.2 661.4,411.1 664.5,411.0 667.6,402.2 670.6,414.5 673.7,412.2 676.8,400.3 679.9,408.0 683.5,435.2 686.4,420.2 689.5,415.4 692.8,407.5 695.6,416.1 698.8,406.8 702.0,397.8 705.2,403.0 708.6,395.1 711.8,411.1 715.1,398.2 718.4,396.0 721.8,396.3 725.0,396.0 728.2,389.6 731.5,408.0 734.4,405.6 737.6,402.0 741.0,410.2 744.3,433.6 747.5,400.1 750.8,425.8 753.9,427.7 757.3,391.7 760.6,426.9 763.5,389.9 766.7,417.5 769.9,410.0 772.7,415.5 775.9,354.8 779.2,423.9 781.9,397.0 785.2,411.4 788.2,424.6 791.3,415.4 794.4,399.7 797.5,383.4 800.6,382.3 803.7,409.0 806.9,410.4 809.9,391.5 813.2,427.3 816.3,406.7 819.5,431.0 822.7,412.5 825.8,407.7 828.9,423.8 831.9,437.2 835.1,393.4 838.2,386.8 841.4,407.4 844.5,402.8 847.7,409.3 850.9,406.6 854.0,422.5 857.0,395.0 860.3,423.7 863.3,397.8 866.4,412.6 869.5,406.4 873.0,395.3 876.2,396.3 879.6,412.9 882.8,400.3 886.1,406.0 889.3,409.5 892.7,394.4 896.0,414.2 899.2,411.8 902.6,401.7 905.9,431.2 909.3,403.3 912.6,412.5 915.8,430.6 919.0,431.1 922.3,414.1 925.6,430.9 928.9,395.3 932.1,405.7 935.4,400.7 938.6,391.2 941.9,405.6 945.3,413.0 948.4,398.3 951.3,388.1 954.0,383.4 957.1,436.2 960.0,435.7 963.1,404.5 966.6,408.8 969.7,408.0 972.7,407.5 975.5,421.1 978.2,397.6 981.1,414.1 984.0,417.8 986.9,409.3 989.9,414.6 992.8,408.2 995.5,438.1 998.4,377.0 1001.5,408.3 1004.5,396.2 1007.6,376.3 1010.7,393.4 1013.9,417.6 1016.7,387.9 1019.7,379.2 1022.9,387.1 1025.9,411.0 1028.4,429.6 1031.1,384.5 1033.8,413.9 1036.9,390.1 1040.0,387.4" fill="none" stroke="#4C78A8" stroke-width="2.5"/>
<polyline points="92.0,509.9 95.1,479.1 97.2,476.5 99.3,476.3 101.1,478.0 103.0,458.0 104.9,477.5 106.7,464.9 108.6,477.9 110.6,459.3 112.9,475.5 114.9,455.0 116.8,475.1 118.6,475.7 120.5,476.3 122.5,476.3 124.4,464.8 126.4,476.7 128.3,464.6 130.3,465.8 132.2,454.6 134.2,458.0 136.3,465.2 138.3,463.3 140.4,476.6 142.5,476.6 144.4,476.9 146.4,474.1 148.5,477.2 150.3,475.6 152.2,474.7 154.1,477.1 156.1,475.7 158.3,474.3 160.5,461.7 162.6,474.4 164.7,459.8 166.8,459.6 168.7,458.0 170.8,475.7 172.8,461.7 175.0,476.0 177.0,477.3 179.1,474.7 181.1,458.5 183.2,466.1 185.4,464.9 187.5,475.5 189.6,475.0 191.6,476.5 193.6,454.6 195.7,469.2 197.7,475.7 199.7,474.5 201.8,469.6 203.9,475.4 205.9,467.0 208.1,474.7 210.1,461.0 212.1,460.4 214.3,475.7 216.3,475.1 218.2,467.1 220.2,476.2 222.3,474.2 224.4,476.2 226.4,474.6 228.4,475.1 230.4,473.5 232.6,457.5 234.9,475.1 237.1,473.8 239.1,475.5 241.1,467.2 243.3,474.7 245.6,463.1 247.7,476.0 249.8,473.9 251.9,450.6 254.0,473.4 256.1,476.1 258.2,474.4 260.3,474.9 262.4,473.9 264.3,467.0 266.4,469.5 268.4,475.2 270.7,474.3 272.9,474.2 275.0,456.6 277.3,475.4 279.4,474.2 281.6,474.6 283.8,474.1 285.9,455.4 288.1,463.9 290.3,472.4 292.5,464.0 294.6,453.5 296.6,465.3 298.6,473.7 300.7,472.4 303.0,473.5 305.2,472.8 307.4,474.4 309.6,472.5 311.7,473.2 313.9,458.1 316.1,473.6 318.3,474.2 320.3,474.6 322.6,473.5 324.8,474.6 326.9,466.0 329.1,463.8 331.3,474.4 333.6,473.0 335.6,459.8 337.8,469.8 340.1,472.8 342.4,463.6 344.7,471.9 346.8,471.9 349.0,473.3 351.1,473.8 353.3,473.0 355.4,471.0 357.7,471.4 359.9,453.6 362.3,472.2 364.5,472.9 366.9,472.9 369.1,471.1 371.4,471.7 373.6,464.2 375.8,471.7 377.9,454.5 380.1,471.1 382.3,469.7 384.5,472.3 386.8,471.2 389.1,472.1 391.4,470.6 393.8,461.9 396.0,471.9 398.5,470.5 400.7,452.1 403.0,471.4 405.2,471.6 407.6,471.7 409.7,470.9 412.1,470.2 414.5,471.1 416.9,471.3 419.1,466.6 421.5,469.7 423.9,470.6 426.2,470.9 428.5,465.5 430.9,468.9 433.2,467.8 435.5,470.0 438.1,469.1 440.8,469.8 443.0,464.5 445.4,470.6 447.9,470.3 450.2,461.8 452.6,469.3 455.2,470.5 457.7,469.4 460.1,460.2 462.6,457.3 465.1,467.6 467.8,468.3 470.4,469.7 472.7,467.9 475.1,468.7 477.7,468.9 480.1,469.6 482.6,463.5 485.1,465.6 487.6,464.6 490.2,466.5 493.1,469.0 495.9,468.1 498.4,452.4 500.9,468.7 503.6,467.7 506.1,465.2 509.0,444.6 511.9,466.8 514.6,460.0 517.4,467.2 520.1,465.2 522.9,466.5 525.7,462.7 528.4,468.8 531.2,467.3 533.7,467.8 536.4,465.2 539.2,466.8 541.9,459.5 544.7,465.4 547.5,466.9 550.4,462.5 553.2,466.5 556.4,464.9 559.6,461.8 562.8,459.2 565.6,464.3 568.4,465.8 571.2,465.1 574.0,446.9 576.6,467.0 579.3,465.5 581.9,467.1 584.7,454.7 587.8,437.9 590.6,459.5 593.3,463.0 596.4,466.6 599.0,456.6 601.7,465.5 604.3,464.1 607.0,466.0 609.6,465.2 612.3,464.8 615.1,443.1 618.0,465.6 620.9,464.4 623.9,466.4 626.8,455.5 629.9,464.7 633.0,452.9 636.1,458.4 639.1,456.9 642.3,452.2 645.4,439.4 648.5,465.5 651.8,464.8 655.1,444.7 658.4,452.5 661.4,464.8 664.5,448.6 667.6,441.4 670.6,464.4 673.7,443.9 676.8,463.6 679.9,464.4 683.5,462.6 686.4,464.2 689.5,455.7 692.8,463.5 695.6,464.6 698.8,456.9 702.0,443.8 705.2,463.5 708.6,461.9 711.8,463.0 715.1,439.0 718.4,463.9 721.8,462.3 725.0,461.9 728.2,460.7 731.5,462.7 734.4,456.7 737.6,460.1 741.0,446.4 744.3,447.3 747.5,456.1 750.8,440.8 753.9,452.3 757.3,459.3 760.6,459.0 763.5,462.1 766.7,448.9 769.9,457.5 772.7,462.4 775.9,445.6 779.2,461.8 781.9,462.0 785.2,462.2 788.2,461.3 791.3,462.2 794.4,442.8 797.5,461.5 800.6,453.7 803.7,462.4 806.9,438.5 809.9,462.0 813.2,463.4 816.3,442.1 819.5,462.5 822.7,460.1 825.8,460.1 828.9,463.7 831.9,449.0 835.1,455.4 838.2,462.4 841.4,456.7 844.5,459.7 847.7,461.7 850.9,461.5 854.0,460.9 857.0,442.7 860.3,457.6 863.3,461.2 866.4,462.5 869.5,448.1 873.0,452.8 876.2,462.6 879.6,460.3 882.8,448.4 886.1,462.8 889.3,454.0 892.7,460.6 896.0,461.6 899.2,459.8 902.6,462.4 905.9,441.2 909.3,461.0 912.6,457.7 915.8,447.0 919.0,461.0 922.3,455.9 925.6,445.2 928.9,448.7 932.1,461.1 935.4,462.4 938.6,459.9 941.9,458.3 945.3,454.7 948.4,460.5 951.3,461.9 954.0,455.5 957.1,462.5 960.0,463.0 963.1,461.3 966.6,462.7 969.7,443.4 972.7,460.1 975.5,461.5 978.2,462.4 981.1,463.6 984.0,457.5 986.9,461.4 989.9,461.5 992.8,456.9 995.5,461.4 998.4,458.5 1001.5,460.6 1004.5,463.6 1007.6,461.1 1010.7,433.8 1013.9,460.7 1016.7,460.9 1019.7,461.0 1022.9,461.2 1025.9,460.7 1028.4,453.5 1031.1,458.9 1033.8,463.3 1036.9,443.6 1040.0,440.5" fill="none" stroke="#F58518" stroke-width="2.5"/>
<polyline points="92.0,510.0 95.1,510.0 97.2,510.0 99.3,510.0 101.1,510.0 103.0,510.0 104.9,510.0 106.7,510.0 108.6,510.0 110.6,510.0 112.9,510.0 114.9,510.0 116.8,510.0 118.6,510.0 120.5,510.0 122.5,510.0 124.4,510.0 126.4,510.0 128.3,510.0 130.3,510.0 132.2,510.0 134.2,510.0 136.3,510.0 138.3,510.0 140.4,510.0 142.5,510.0 144.4,510.0 146.4,510.0 148.5,510.0 150.3,510.0 152.2,510.0 154.1,510.0 156.1,510.0 158.3,510.0 160.5,510.0 162.6,510.0 164.7,510.0 166.8,510.0 168.7,510.0 170.8,510.0 172.8,510.0 175.0,510.0 177.0,510.0 179.1,510.0 181.1,510.0 183.2,510.0 185.4,510.0 187.5,510.0 189.6,510.0 191.6,510.0 193.6,510.0 195.7,510.0 197.7,510.0 199.7,510.0 201.8,510.0 203.9,510.0 205.9,510.0 208.1,510.0 210.1,510.0 212.1,510.0 214.3,510.0 216.3,510.0 218.2,510.0 220.2,510.0 222.3,510.0 224.4,510.0 226.4,510.0 228.4,510.0 230.4,510.0 232.6,510.0 234.9,510.0 237.1,510.0 239.1,510.0 241.1,510.0 243.3,510.0 245.6,510.0 247.7,510.0 249.8,510.0 251.9,510.0 254.0,510.0 256.1,510.0 258.2,510.0 260.3,510.0 262.4,510.0 264.3,510.0 266.4,510.0 268.4,510.0 270.7,510.0 272.9,510.0 275.0,510.0 277.3,510.0 279.4,510.0 281.6,510.0 283.8,510.0 285.9,510.0 288.1,510.0 290.3,510.0 292.5,510.0 294.6,510.0 296.6,510.0 298.6,510.0 300.7,510.0 303.0,510.0 305.2,510.0 307.4,510.0 309.6,510.0 311.7,510.0 313.9,510.0 316.1,510.0 318.3,510.0 320.3,510.0 322.6,510.0 324.8,510.0 326.9,510.0 329.1,510.0 331.3,510.0 333.6,510.0 335.6,510.0 337.8,510.0 340.1,510.0 342.4,510.0 344.7,510.0 346.8,510.0 349.0,510.0 351.1,510.0 353.3,510.0 355.4,510.0 357.7,510.0 359.9,510.0 362.3,510.0 364.5,510.0 366.9,510.0 369.1,510.0 371.4,510.0 373.6,510.0 375.8,510.0 377.9,510.0 380.1,510.0 382.3,510.0 384.5,510.0 386.8,510.0 389.1,510.0 391.4,510.0 393.8,510.0 396.0,510.0 398.5,510.0 400.7,510.0 403.0,510.0 405.2,510.0 407.6,510.0 409.7,510.0 412.1,510.0 414.5,510.0 416.9,510.0 419.1,510.0 421.5,510.0 423.9,510.0 426.2,510.0 428.5,510.0 430.9,510.0 433.2,510.0 435.5,510.0 438.1,510.0 440.8,510.0 443.0,510.0 445.4,510.0 447.9,510.0 450.2,510.0 452.6,510.0 455.2,510.0 457.7,510.0 460.1,510.0 462.6,510.0 465.1,510.0 467.8,510.0 470.4,510.0 472.7,510.0 475.1,510.0 477.7,510.0 480.1,510.0 482.6,510.0 485.1,510.0 487.6,510.0 490.2,510.0 493.1,510.0 495.9,510.0 498.4,510.0 500.9,510.0 503.6,510.0 506.1,510.0 509.0,510.0 511.9,510.0 514.6,510.0 517.4,510.0 520.1,510.0 522.9,510.0 525.7,510.0 528.4,510.0 531.2,510.0 533.7,510.0 536.4,510.0 539.2,510.0 541.9,510.0 544.7,510.0 547.5,510.0 550.4,510.0 553.2,510.0 556.4,510.0 559.6,510.0 562.8,510.0 565.6,510.0 568.4,510.0 571.2,510.0 574.0,510.0 576.6,510.0 579.3,510.0 581.9,510.0 584.7,510.0 587.8,510.0 590.6,510.0 593.3,510.0 596.4,510.0 599.0,510.0 601.7,510.0 604.3,510.0 607.0,510.0 609.6,510.0 612.3,510.0 615.1,510.0 618.0,510.0 620.9,510.0 623.9,510.0 626.8,510.0 629.9,510.0 633.0,510.0 636.1,510.0 639.1,510.0 642.3,510.0 645.4,510.0 648.5,510.0 651.8,510.0 655.1,510.0 658.4,510.0 661.4,510.0 664.5,510.0 667.6,510.0 670.6,510.0 673.7,510.0 676.8,510.0 679.9,510.0 683.5,510.0 686.4,510.0 689.5,510.0 692.8,510.0 695.6,510.0 698.8,510.0 702.0,510.0 705.2,510.0 708.6,510.0 711.8,510.0 715.1,510.0 718.4,510.0 721.8,510.0 725.0,510.0 728.2,510.0 731.5,510.0 734.4,510.0 737.6,510.0 741.0,510.0 744.3,510.0 747.5,510.0 750.8,510.0 753.9,510.0 757.3,510.0 760.6,510.0 763.5,510.0 766.7,510.0 769.9,510.0 772.7,510.0 775.9,510.0 779.2,510.0 781.9,510.0 785.2,510.0 788.2,510.0 791.3,510.0 794.4,510.0 797.5,510.0 800.6,510.0 803.7,510.0 806.9,510.0 809.9,510.0 813.2,510.0 816.3,510.0 819.5,510.0 822.7,510.0 825.8,510.0 828.9,510.0 831.9,510.0 835.1,510.0 838.2,510.0 841.4,510.0 844.5,510.0 847.7,510.0 850.9,510.0 854.0,510.0 857.0,510.0 860.3,510.0 863.3,510.0 866.4,510.0 869.5,510.0 873.0,510.0 876.2,510.0 879.6,510.0 882.8,510.0 886.1,510.0 889.3,510.0 892.7,510.0 896.0,510.0 899.2,510.0 902.6,510.0 905.9,510.0 909.3,510.0 912.6,510.0 915.8,510.0 919.0,510.0 922.3,510.0 925.6,510.0 928.9,510.0 932.1,510.0 935.4,510.0 938.6,510.0 941.9,510.0 945.3,510.0 948.4,510.0 951.3,510.0 954.0,510.0 957.1,510.0 960.0,510.0 963.1,510.0 966.6,510.0 969.7,510.0 972.7,510.0 975.5,510.0 978.2,510.0 981.1,510.0 984.0,510.0 986.9,510.0 989.9,510.0 992.8,510.0 995.5,510.0 998.4,510.0 1001.5,510.0 1004.5,510.0 1007.6,510.0 1010.7,510.0 1013.9,510.0 1016.7,510.0 1019.7,510.0 1022.9,510.0 1025.9,510.0 1028.4,510.0 1031.1,510.0 1033.8,510.0 1036.9,510.0 1040.0,510.0" fill="none" stroke="#54A24B" stroke-width="2.5"/>
<polyline points="92.0,510.0 95.1,510.0 97.2,510.0 99.3,510.0 101.1,510.0 103.0,510.0 104.9,510.0 106.7,510.0 108.6,510.0 110.6,510.0 112.9,510.0 114.9,510.0 116.8,510.0 118.6,510.0 120.5,510.0 122.5,510.0 124.4,510.0 126.4,510.0 128.3,510.0 130.3,510.0 132.2,510.0 134.2,510.0 136.3,510.0 138.3,510.0 140.4,510.0 142.5,510.0 144.4,510.0 146.4,510.0 148.5,510.0 150.3,510.0 152.2,510.0 154.1,510.0 156.1,510.0 158.3,510.0 160.5,510.0 162.6,510.0 164.7,510.0 166.8,510.0 168.7,510.0 170.8,510.0 172.8,510.0 175.0,510.0 177.0,510.0 179.1,510.0 181.1,510.0 183.2,510.0 185.4,510.0 187.5,510.0 189.6,510.0 191.6,510.0 193.6,510.0 195.7,510.0 197.7,510.0 199.7,510.0 201.8,510.0 203.9,510.0 205.9,510.0 208.1,510.0 210.1,510.0 212.1,510.0 214.3,510.0 216.3,510.0 218.2,510.0 220.2,510.0 222.3,510.0 224.4,510.0 226.4,510.0 228.4,510.0 230.4,510.0 232.6,510.0 234.9,510.0 237.1,510.0 239.1,510.0 241.1,510.0 243.3,510.0 245.6,510.0 247.7,510.0 249.8,510.0 251.9,510.0 254.0,510.0 256.1,510.0 258.2,510.0 260.3,510.0 262.4,510.0 264.3,510.0 266.4,510.0 268.4,510.0 270.7,510.0 272.9,510.0 275.0,510.0 277.3,510.0 279.4,510.0 281.6,510.0 283.8,510.0 285.9,510.0 288.1,510.0 290.3,510.0 292.5,510.0 294.6,510.0 296.6,510.0 298.6,510.0 300.7,510.0 303.0,510.0 305.2,510.0 307.4,510.0 309.6,510.0 311.7,510.0 313.9,510.0 316.1,510.0 318.3,510.0 320.3,510.0 322.6,510.0 324.8,510.0 326.9,510.0 329.1,510.0 331.3,510.0 333.6,510.0 335.6,510.0 337.8,510.0 340.1,510.0 342.4,510.0 344.7,510.0 346.8,510.0 349.0,510.0 351.1,510.0 353.3,510.0 355.4,510.0 357.7,510.0 359.9,510.0 362.3,510.0 364.5,510.0 366.9,510.0 369.1,510.0 371.4,510.0 373.6,510.0 375.8,510.0 377.9,510.0 380.1,510.0 382.3,510.0 384.5,510.0 386.8,510.0 389.1,510.0 391.4,510.0 393.8,510.0 396.0,510.0 398.5,510.0 400.7,510.0 403.0,510.0 405.2,510.0 407.6,510.0 409.7,510.0 412.1,510.0 414.5,510.0 416.9,510.0 419.1,510.0 421.5,510.0 423.9,510.0 426.2,510.0 428.5,510.0 430.9,510.0 433.2,510.0 435.5,510.0 438.1,510.0 440.8,510.0 443.0,510.0 445.4,510.0 447.9,510.0 450.2,510.0 452.6,510.0 455.2,510.0 457.7,510.0 460.1,510.0 462.6,510.0 465.1,510.0 467.8,510.0 470.4,510.0 472.7,510.0 475.1,510.0 477.7,510.0 480.1,510.0 482.6,510.0 485.1,510.0 487.6,510.0 490.2,510.0 493.1,510.0 495.9,510.0 498.4,510.0 500.9,510.0 503.6,510.0 506.1,510.0 509.0,510.0 511.9,510.0 514.6,510.0 517.4,510.0 520.1,510.0 522.9,510.0 525.7,510.0 528.4,510.0 531.2,510.0 533.7,510.0 536.4,510.0 539.2,510.0 541.9,510.0 544.7,510.0 547.5,510.0 550.4,510.0 553.2,510.0 556.4,510.0 559.6,510.0 562.8,510.0 565.6,510.0 568.4,510.0 571.2,510.0 574.0,510.0 576.6,510.0 579.3,510.0 581.9,510.0 584.7,510.0 587.8,510.0 590.6,510.0 593.3,510.0 596.4,510.0 599.0,510.0 601.7,510.0 604.3,510.0 607.0,510.0 609.6,510.0 612.3,510.0 615.1,510.0 618.0,510.0 620.9,510.0 623.9,510.0 626.8,510.0 629.9,510.0 633.0,510.0 636.1,510.0 639.1,510.0 642.3,510.0 645.4,510.0 648.5,510.0 651.8,510.0 655.1,510.0 658.4,510.0 661.4,510.0 664.5,510.0 667.6,510.0 670.6,510.0 673.7,510.0 676.8,510.0 679.9,510.0 683.5,510.0 686.4,510.0 689.5,510.0 692.8,510.0 695.6,510.0 698.8,510.0 702.0,510.0 705.2,510.0 708.6,510.0 711.8,510.0 715.1,510.0 718.4,510.0 721.8,510.0 725.0,510.0 728.2,510.0 731.5,510.0 734.4,510.0 737.6,510.0 741.0,510.0 744.3,510.0 747.5,510.0 750.8,510.0 753.9,510.0 757.3,510.0 760.6,510.0 763.5,510.0 766.7,510.0 769.9,510.0 772.7,510.0 775.9,510.0 779.2,510.0 781.9,510.0 785.2,510.0 788.2,510.0 791.3,510.0 794.4,510.0 797.5,510.0 800.6,510.0 803.7,510.0 806.9,510.0 809.9,510.0 813.2,510.0 816.3,510.0 819.5,510.0 822.7,510.0 825.8,510.0 828.9,510.0 831.9,510.0 835.1,510.0 838.2,510.0 841.4,510.0 844.5,510.0 847.7,510.0 850.9,510.0 854.0,510.0 857.0,510.0 860.3,510.0 863.3,510.0 866.4,510.0 869.5,510.0 873.0,510.0 876.2,510.0 879.6,510.0 882.8,510.0 886.1,510.0 889.3,510.0 892.7,510.0 896.0,510.0 899.2,510.0 902.6,510.0 905.9,510.0 909.3,510.0 912.6,510.0 915.8,510.0 919.0,510.0 922.3,510.0 925.6,510.0 928.9,510.0 932.1,510.0 935.4,510.0 938.6,510.0 941.9,510.0 945.3,510.0 948.4,510.0 951.3,510.0 954.0,510.0 957.1,510.0 960.0,510.0 963.1,510.0 966.6,510.0 969.7,510.0 972.7,510.0 975.5,510.0 978.2,510.0 981.1,510.0 984.0,510.0 986.9,510.0 989.9,510.0 992.8,510.0 995.5,510.0 998.4,510.0 1001.5,510.0 1004.5,510.0 1007.6,510.0 1010.7,510.0 1013.9,510.0 1016.7,510.0 1019.7,510.0 1022.9,510.0 1025.9,510.0 1028.4,510.0 1031.1,510.0 1033.8,510.0 1036.9,510.0 1040.0,510.0" fill="none" stroke="#E45756" stroke-width="2.5"/>
<rect x="92" y="580" width="14" height="14" fill="#4C78A8" rx="2"/>
<text class="small" x="112" y="592" text-anchor="start">分裂</text>
<rect x="329" y="580" width="14" height="14" fill="#F58518" rx="2"/>
<text class="small" x="349" y="592" text-anchor="start">合并</text>
<rect x="566" y="580" width="14" height="14" fill="#54A24B" rx="2"/>
<text class="small" x="586" y="592" text-anchor="start">网格输出</text>
<rect x="803" y="580" width="14" height="14" fill="#E45756" rx="2"/>
<text class="small" x="823" y="592" text-anchor="start">拓扑验证</text>
</svg>
