<svg xmlns="http://www.w3.org/2000/svg" width="900" height="620" viewBox="0 0 900 620">
<rect width="100%" height="100%" fill="white"/>
<style>text{font-family:Arial,"Microsoft YaHei",sans-serif;fill:#222}.small{font-size:12px}.axis{stroke:#333;stroke-width:1}.grid{stroke:#E5E5E5;stroke-width:1}</style>
<text x="450.0" y="34" font-size="22" text-anchor="middle">实验5：GPU 类 ROAM 的 LOD 时间占比</text>
<path d="M330.0,130.0 A190,190 0 0 1 443.5,472.4 L392.7,404.2 A105,105 0 0 0 330.0,215.0 Z" fill="#4C78A8"/>
<text class="small" x="536.9" y="251.4" text-anchor="middle">39.8%</text>
<path d="M443.5,472.4 A190,190 0 0 1 375.1,504.6 L354.9,422.0 A105,105 0 0 0 392.7,404.2 Z" fill="#F58518"/>
<text class="small" x="422.9" y="517.2" text-anchor="middle">6.4%</text>
<path d="M375.1,504.6 A190,190 0 0 1 231.1,482.2 L275.3,409.7 A105,105 0 0 0 354.9,422.0 Z" fill="#B279A2"/>
<text class="small" x="296.6" y="535.4" text-anchor="middle">12.5%</text>
<path d="M231.1,482.2 A190,190 0 0 1 212.3,469.1 L264.9,402.4 A105,105 0 0 0 275.3,409.7 Z" fill="#E45756"/>
<path d="M212.3,469.1 A190,190 0 0 1 171.7,425.0 L242.5,378.0 A105,105 0 0 0 264.9,402.4 Z" fill="#54A24B"/>
<text class="small" x="169.6" y="467.7" text-anchor="middle">5.0%</text>
<path d="M171.7,425.0 A190,190 0 0 1 151.3,255.6 L231.2,284.4 A105,105 0 0 0 242.5,378.0 Z" fill="#72B7B2"/>
<text class="small" x="113.6" y="346.1" text-anchor="middle">14.8%</text>
<path d="M151.3,255.6 A190,190 0 0 1 330.0,130.0 L330.0,215.0 A105,105 0 0 0 231.2,284.4 Z" fill="#9D755D"/>
<text class="small" x="204.7" y="141.6" text-anchor="middle">19.5%</text>
<text x="330" y="316" font-size="18" text-anchor="middle">LOD 总耗时</text>
<text x="330" y="344" font-size="18" text-anchor="middle">13.42 ms</text>
<rect x="610" y="136" width="16" height="16" fill="#4C78A8" rx="2"/>
<text class="small" x="636" y="150" text-anchor="start">CPU 更新: 5.34 ms / 39.8%</text>
<rect x="610" y="178" width="16" height="16" fill="#F58518" rx="2"/>
<text class="small" x="636" y="192" text-anchor="start">CPU 上传: 0.86 ms / 6.4%</text>
<rect x="610" y="220" width="16" height="16" fill="#B279A2" rx="2"/>
<text class="small" x="636" y="234" text-anchor="start">GPU 快照: 1.68 ms / 12.5%</text>
<rect x="610" y="262" width="16" height="16" fill="#E45756" rx="2"/>
<text class="small" x="636" y="276" text-anchor="start">GPU 调度: 0.26 ms / 1.9%</text>
<rect x="610" y="304" width="16" height="16" fill="#54A24B" rx="2"/>
<text class="small" x="636" y="318" text-anchor="start">GPU 计算: 0.68 ms / 5.0%</text>
<rect x="610" y="346" width="16" height="16" fill="#72B7B2" rx="2"/>
<text class="small" x="636" y="360" text-anchor="start">GPU 读回: 1.99 ms / 14.8%</text>
<rect x="610" y="388" width="16" height="16" fill="#9D755D" rx="2"/>
<text class="small" x="636" y="402" text-anchor="start">其他 LOD: 2.62 ms / 19.5%</text>
</svg>
