<svg xmlns="http://www.w3.org/2000/svg" width="1080" height="640" viewBox="0 0 1080 640">
<rect width="100%" height="100%" fill="white"/>
<style>text{font-family:Arial,"Microsoft YaHei",sans-serif;fill:#222}.small{font-size:12px}.axis{stroke:#333;stroke-width:1}.grid{stroke:#E5E5E5;stroke-width:1}</style>
<text x="540.0" y="34" font-size="22" text-anchor="middle">实验5：GPU 类 ROAM 沿相机路径的耗时变化</text>
<line class="grid" x1="92" y1="510.0" x2="1040" y2="510.0"/>
<text class="small" x="82" y="514.0" text-anchor="end">0.00</text>
<line class="grid" x1="92" y1="423.6" x2="1040" y2="423.6"/>
<text class="small" x="82" y="427.6" text-anchor="end">6.00</text>
<line class="grid" x1="92" y1="337.2" x2="1040" y2="337.2"/>
<text class="small" x="82" y="341.2" text-anchor="end">12.00</text>
<line class="grid" x1="92" y1="250.8" x2="1040" y2="250.8"/>
<text class="small" x="82" y="254.8" text-anchor="end">18.00</text>
<line class="grid" x1="92" y1="164.4" x2="1040" y2="164.4"/>
<text class="small" x="82" y="168.4" text-anchor="end">24.00</text>
<line class="grid" x1="92" y1="78.0" x2="1040" y2="78.0"/>
<text class="small" x="82" y="82.0" text-anchor="end">30.00</text>
<line class="axis" x1="92" y1="78" x2="92" y2="510"/>
<line class="axis" x1="92" y1="510" x2="1040" y2="510"/>
<text x="24" y="294.0" font-size="14" text-anchor="middle" transform="rotate(-90 24 294.0)">毫秒</text>
<text class="small" x="92.0" y="544" text-anchor="middle">0.0s</text>
<text class="small" x="281.6" y="544" text-anchor="middle">2.0s</text>
<text class="small" x="471.2" y="544" text-anchor="middle">4.0s</text>
<text class="small" x="660.8" y="544" text-anchor="middle">6.0s</text>
<text class="small" x="850.4" y="544" text-anchor="middle">8.0s</text>
<text class="small" x="1040.0" y="544" text-anchor="middle">10.0s</text>
<polyline points="92.0,332.1 95.1,343.8 97.2,355.3 99.3,392.1 101.1,381.6 103.0,368.6 104.9,369.1 106.7,369.5 108.6,369.2 110.6,354.3 112.9,368.7 114.9,351.4 116.8,374.5 118.6,343.0 120.5,358.4 122.5,347.7 124.4,349.3 126.4,350.0 128.3,369.7 130.3,354.9 132.2,369.0 134.2,349.0 136.3,355.3 138.3,343.7 140.4,348.0 142.5,371.5 144.4,353.6 146.4,346.0 148.5,370.6 150.3,370.4 152.2,367.0 154.1,358.2 156.1,339.6 158.3,347.8 160.5,355.9 162.6,367.8 164.7,341.9 166.8,361.7 168.7,344.7 170.8,364.3 172.8,354.5 175.0,362.7 177.0,371.4 179.1,356.8 181.1,340.4 183.2,343.9 185.4,351.7 187.5,362.8 189.6,359.2 191.6,365.5 193.6,351.6 195.7,344.9 197.7,347.1 199.7,350.5 201.8,352.1 203.9,354.7 205.9,337.6 208.1,354.0 210.1,366.2 212.1,340.6 214.3,355.9 216.3,363.4 218.2,354.4 220.2,346.7 222.3,357.1 224.4,359.1 226.4,370.6 228.4,366.9 230.4,350.0 232.6,347.3 234.9,364.8 237.1,361.5 239.1,364.3 241.1,337.8 243.3,343.4 245.6,360.9 247.7,345.4 249.8,349.6 251.9,346.5 254.0,350.4 256.1,355.8 258.2,360.5 260.3,348.8 262.4,381.4 264.3,347.8 266.4,349.7 268.4,351.4 270.7,337.6 272.9,346.3 275.0,349.8 277.3,357.2 279.4,344.9 281.6,353.9 283.8,350.8 285.9,339.6 288.1,352.5 290.3,351.9 292.5,350.2 294.6,342.2 296.6,358.2 298.6,356.1 300.7,329.6 303.0,353.4 305.2,346.5 307.4,350.2 309.6,352.6 311.7,346.2 313.9,340.5 316.1,361.2 318.3,351.7 320.3,338.3 322.6,358.0 324.8,361.4 326.9,341.1 329.1,343.3 331.3,344.9 333.6,346.2 335.6,340.8 337.8,342.2 340.1,339.0 342.4,351.1 344.7,346.1 346.8,350.4 349.0,360.5 351.1,351.1 353.3,350.3 355.4,345.3 357.7,333.9 359.9,347.3 362.3,350.7 364.5,342.5 366.9,348.1 369.1,341.7 371.4,349.6 373.6,334.6 375.8,355.2 377.9,336.1 380.1,348.8 382.3,347.5 384.5,352.2 386.8,328.4 389.1,341.6 391.4,328.2 393.8,347.9 396.0,307.1 398.5,344.4 400.7,339.4 403.0,346.5 405.2,324.5 407.6,346.1 409.7,325.1 412.1,332.9 414.5,328.4 416.9,344.0 419.1,325.8 421.5,344.0 423.9,343.7 426.2,331.3 428.5,336.6 430.9,321.4 433.2,333.6 435.5,325.4 438.1,306.4 440.8,351.0 443.0,331.9 445.4,324.1 447.9,346.0 450.2,325.0 452.6,330.6 455.2,340.8 457.7,330.2 460.1,327.5 462.6,316.6 465.1,315.1 467.8,313.8 470.4,329.2 472.7,330.6 475.1,326.6 477.7,327.8 480.1,330.6 482.6,330.2 485.1,313.9 487.6,324.2 490.2,277.2 493.1,315.5 495.9,328.5 498.4,319.5 500.9,323.0 503.6,304.5 506.1,285.8 509.0,295.8 511.9,303.1 514.6,305.7 517.4,309.4 520.1,304.6 522.9,309.7 525.7,293.7 528.4,304.9 531.2,311.7 533.7,312.6 536.4,313.2 539.2,299.5 541.9,303.7 544.7,316.4 547.5,288.3 550.4,317.7 553.2,237.1 556.4,296.8 559.6,293.6 562.8,277.9 565.6,308.2 568.4,311.4 571.2,302.4 574.0,312.8 576.6,315.7 579.3,308.3 581.9,302.5 584.7,282.4 587.8,298.6 590.6,301.9 593.3,303.7 596.4,308.5 599.0,306.5 601.7,317.0 604.3,315.4 607.0,329.9 609.6,316.7 612.3,305.8 615.1,295.4 618.0,289.9 620.9,291.4 623.9,285.2 626.8,287.2 629.9,273.4 633.0,255.9 636.1,299.8 639.1,280.6 642.3,267.9 645.4,289.4 648.5,283.7 651.8,266.5 655.1,264.7 658.4,287.7 661.4,260.4 664.5,286.1 667.6,277.8 670.6,278.9 673.7,277.3 676.8,282.5 679.9,239.9 683.5,297.6 686.4,265.9 689.5,283.4 692.8,292.1 695.6,267.3 698.8,283.0 702.0,270.4 705.2,271.7 708.6,272.7 711.8,275.0 715.1,269.9 718.4,266.8 721.8,275.8 725.0,279.4 728.2,277.7 731.5,284.8 734.4,280.1 737.6,271.0 741.0,256.0 744.3,282.8 747.5,266.6 750.8,277.7 753.9,269.0 757.3,270.3 760.6,287.9 763.5,262.6 766.7,258.7 769.9,295.3 772.7,272.2 775.9,242.5 779.2,305.4 781.9,263.4 785.2,296.7 788.2,285.6 791.3,277.3 794.4,281.7 797.5,277.0 800.6,274.0 803.7,267.1 806.9,284.7 809.9,282.2 813.2,255.5 816.3,261.0 819.5,274.9 822.7,287.7 825.8,282.4 828.9,282.3 831.9,289.6 835.1,276.9 838.2,271.3 841.4,274.6 844.5,285.7 847.7,282.1 850.9,278.3 854.0,290.1 857.0,246.4 860.3,291.6 863.3,279.5 866.4,274.0 869.5,248.3 873.0,254.7 876.2,260.3 879.6,253.1 882.8,244.9 886.1,255.2 889.3,256.2 892.7,249.7 896.0,258.8 899.2,251.3 902.6,247.9 905.9,255.2 909.3,259.5 912.6,260.0 915.8,251.4 919.0,269.3 922.3,281.1 925.6,246.4 928.9,249.9 932.1,284.9 935.4,276.3 938.6,278.9 941.9,246.8 945.3,286.6 948.4,284.1 951.3,316.3 954.0,266.3 957.1,298.5 960.0,298.0 963.1,280.2 966.6,256.7 969.7,284.5 972.7,310.9 975.5,317.4 978.2,295.4 981.1,283.7 984.0,301.0 986.9,291.4 989.9,298.4 992.8,309.9 995.5,287.6 998.4,286.6 1001.5,268.1 1004.5,282.3 1007.6,293.6 1010.7,251.8 1013.9,315.3 1016.7,264.6 1019.7,278.5 1022.9,280.9 1025.9,320.1 1028.4,308.8 1031.1,307.5 1033.8,285.8 1036.9,281.8 1040.0,292.3" fill="none" stroke="#333333" stroke-width="2.5"/>
<polyline points="92.0,406.2 95.1,437.9 97.2,445.2 99.3,466.4 101.1,458.6 103.0,452.6 104.9,452.4 106.7,453.6 108.6,455.7 110.6,445.6 112.9,452.5 114.9,442.9 116.8,453.4 118.6,447.9 120.5,451.5 122.5,449.2 124.4,441.4 126.4,448.7 128.3,448.3 130.3,448.1 132.2,440.1 134.2,438.4 136.3,449.3 138.3,447.4 140.4,452.9 142.5,452.7 144.4,446.2 146.4,442.5 148.5,455.1 150.3,458.3 152.2,453.7 154.1,449.8 156.1,443.3 158.3,437.0 160.5,446.0 162.6,454.6 164.7,442.4 166.8,447.7 168.7,444.0 170.8,457.0 172.8,451.4 175.0,453.2 177.0,457.4 179.1,447.4 181.1,445.6 183.2,450.6 185.4,447.6 187.5,450.0 189.6,451.3 191.6,453.2 193.6,440.4 195.7,448.2 197.7,452.9 199.7,458.8 201.8,450.5 203.9,447.6 205.9,447.0 208.1,446.2 210.1,443.1 212.1,439.4 214.3,447.7 216.3,456.7 218.2,450.8 220.2,449.7 222.3,451.9 224.4,454.8 226.4,454.4 228.4,453.5 230.4,446.6 232.6,442.8 234.9,454.3 237.1,453.6 239.1,452.1 241.1,447.3 243.3,448.2 245.6,451.4 247.7,443.5 249.8,447.6 251.9,442.0 254.0,450.8 256.1,450.1 258.2,451.7 260.3,451.0 262.4,454.5 264.3,447.8 266.4,448.3 268.4,449.8 270.7,439.0 272.9,450.4 275.0,443.0 277.3,449.4 279.4,445.8 281.6,449.4 283.8,447.7 285.9,443.3 288.1,447.1 290.3,450.5 292.5,440.0 294.6,440.9 296.6,449.1 298.6,452.2 300.7,448.8 303.0,445.1 305.2,448.8 307.4,444.5 309.6,442.9 311.7,444.7 313.9,443.2 316.1,450.2 318.3,450.6 320.3,446.7 322.6,451.8 324.8,449.3 326.9,442.3 329.1,439.2 331.3,448.0 333.6,447.4 335.6,436.1 337.8,442.1 340.1,447.6 342.4,446.9 344.7,445.9 346.8,446.2 349.0,451.0 351.1,445.7 353.3,453.3 355.4,448.2 357.7,440.9 359.9,445.7 362.3,444.6 364.5,441.7 366.9,447.9 369.1,450.1 371.4,447.1 373.6,439.8 375.8,451.3 377.9,436.6 380.1,446.4 382.3,450.3 384.5,448.5 386.8,437.9 389.1,445.3 391.4,440.3 393.8,443.7 396.0,441.5 398.5,438.6 400.7,437.2 403.0,444.1 405.2,437.3 407.6,445.5 409.7,436.4 412.1,440.1 414.5,439.2 416.9,450.3 419.1,439.7 421.5,445.0 423.9,446.8 426.2,439.7 428.5,440.2 430.9,438.2 433.2,438.8 435.5,437.6 438.1,428.7 440.8,452.2 443.0,435.9 445.4,438.5 447.9,445.1 450.2,431.4 452.6,439.1 455.2,446.4 457.7,441.4 460.1,433.9 462.6,434.9 465.1,438.1 467.8,430.7 470.4,437.3 472.7,437.7 475.1,441.9 477.7,441.2 480.1,440.7 482.6,437.4 485.1,429.3 487.6,441.6 490.2,427.7 493.1,424.3 495.9,436.9 498.4,427.9 500.9,434.0 503.6,428.3 506.1,422.0 509.0,421.4 511.9,421.9 514.6,433.5 517.4,432.4 520.1,421.0 522.9,439.0 525.7,418.6 528.4,425.7 531.2,426.6 533.7,430.2 536.4,427.6 539.2,420.5 541.9,424.2 544.7,430.2 547.5,414.3 550.4,440.8 553.2,427.3 556.4,430.5 559.6,421.5 562.8,418.4 565.6,434.4 568.4,429.9 571.2,428.7 574.0,424.1 576.6,433.9 579.3,428.7 581.9,423.5 584.7,417.6 587.8,417.0 590.6,425.2 593.3,420.7 596.4,422.3 599.0,421.7 601.7,434.8 604.3,436.1 607.0,443.2 609.6,430.1 612.3,426.6 615.1,424.5 618.0,417.7 620.9,424.2 623.9,426.1 626.8,417.4 629.9,417.7 633.0,417.3 636.1,429.1 639.1,414.2 642.3,407.3 645.4,421.7 648.5,425.7 651.8,417.7 655.1,408.8 658.4,422.4 661.4,415.7 664.5,420.3 667.6,415.2 670.6,417.2 673.7,419.0 676.8,420.6 679.9,416.4 683.5,432.0 686.4,417.4 689.5,422.4 692.8,424.8 695.6,409.8 698.8,417.2 702.0,411.0 705.2,420.1 708.6,418.4 711.8,421.0 715.1,409.6 718.4,417.0 721.8,418.8 725.0,418.3 728.2,416.9 731.5,416.2 734.4,422.8 737.6,421.8 741.0,417.9 744.3,426.9 747.5,417.3 750.8,420.1 753.9,421.9 757.3,416.3 760.6,428.4 763.5,401.1 766.7,420.7 769.9,425.5 772.7,417.5 775.9,389.3 779.2,431.4 781.9,408.1 785.2,424.4 788.2,426.8 791.3,416.2 794.4,413.6 797.5,415.6 800.6,409.0 803.7,413.1 806.9,416.5 809.9,420.8 813.2,414.3 816.3,400.8 819.5,422.4 822.7,421.0 825.8,421.9 828.9,423.5 831.9,427.9 835.1,416.2 838.2,413.0 841.4,412.1 844.5,419.6 847.7,420.1 850.9,422.4 854.0,421.7 857.0,397.7 860.3,426.5 863.3,419.0 866.4,419.5 869.5,416.0 873.0,401.2 876.2,403.5 879.6,405.7 882.8,395.8 886.1,413.8 889.3,417.1 892.7,402.2 896.0,419.4 899.2,416.1 902.6,405.1 905.9,400.5 909.3,411.1 912.6,416.4 915.8,406.5 919.0,414.5 922.3,423.9 925.6,415.6 928.9,409.9 932.1,424.1 935.4,418.7 938.6,415.8 941.9,414.9 945.3,424.1 948.4,419.8 951.3,421.1 954.0,400.9 957.1,432.9 960.0,429.4 963.1,422.8 966.6,407.3 969.7,416.2 972.7,422.2 975.5,430.3 978.2,422.2 981.1,423.3 984.0,426.4 986.9,424.0 989.9,425.3 992.8,421.3 995.5,430.8 998.4,414.2 1001.5,413.7 1004.5,419.8 1007.6,410.3 1010.7,403.8 1013.9,424.5 1016.7,400.7 1019.7,413.7 1022.9,412.7 1025.9,426.0 1028.4,421.5 1031.1,416.6 1033.8,424.8 1036.9,409.0 1040.0,410.5" fill="none" stroke="#4C78A8" stroke-width="2.5"/>
<polyline points="92.0,503.0 95.1,492.3 97.2,492.6 99.3,492.0 101.1,486.1 103.0,481.5 104.9,482.8 106.7,491.4 108.6,491.9 110.6,489.6 112.9,490.4 114.9,483.0 116.8,492.5 118.6,492.8 120.5,492.4 122.5,492.8 124.4,491.9 126.4,491.0 128.3,490.3 130.3,492.4 132.2,492.3 134.2,492.0 136.3,492.0 138.3,492.2 140.4,491.1 142.5,484.5 144.4,491.6 146.4,489.2 148.5,491.1 150.3,491.1 152.2,491.7 154.1,492.0 156.1,491.1 158.3,491.4 160.5,492.0 162.6,491.0 164.7,490.9 166.8,491.8 168.7,492.0 170.8,486.0 172.8,482.3 175.0,490.4 177.0,491.1 179.1,491.2 181.1,490.2 183.2,489.9 185.4,482.4 187.5,492.1 189.6,492.3 191.6,491.7 193.6,491.9 195.7,491.6 197.7,492.0 199.7,491.7 201.8,490.3 203.9,484.0 205.9,490.5 208.1,491.8 210.1,492.6 212.1,492.6 214.3,492.8 216.3,492.3 218.2,492.3 220.2,491.9 222.3,491.7 224.4,482.0 226.4,491.3 228.4,491.8 230.4,491.2 232.6,491.1 234.9,484.6 237.1,492.0 239.1,491.1 241.1,490.4 243.3,481.7 245.6,491.9 247.7,490.5 249.8,490.9 251.9,483.7 254.0,490.9 256.1,491.9 258.2,491.6 260.3,491.6 262.4,489.8 264.3,489.0 266.4,491.4 268.4,480.9 270.7,491.0 272.9,491.4 275.0,488.6 277.3,491.3 279.4,490.7 281.6,488.2 283.8,490.9 285.9,490.4 288.1,491.5 290.3,490.5 292.5,491.3 294.6,491.7 296.6,490.4 298.6,490.7 300.7,482.0 303.0,490.6 305.2,491.7 307.4,487.6 309.6,490.7 311.7,491.8 313.9,482.6 316.1,491.5 318.3,491.2 320.3,491.3 322.6,489.8 324.8,490.7 326.9,489.4 329.1,490.5 331.3,491.1 333.6,491.5 335.6,483.3 337.8,491.4 340.1,490.3 342.4,490.1 344.7,491.2 346.8,484.0 349.0,491.2 351.1,489.8 353.3,491.2 355.4,485.6 357.7,490.0 359.9,487.8 362.3,490.2 364.5,487.7 366.9,490.8 369.1,490.9 371.4,490.2 373.6,490.2 375.8,491.0 377.9,488.3 380.1,490.3 382.3,489.5 384.5,489.4 386.8,490.0 389.1,486.5 391.4,489.2 393.8,489.5 396.0,473.7 398.5,491.2 400.7,489.1 403.0,489.7 405.2,489.8 407.6,482.4 409.7,490.0 412.1,489.0 414.5,489.8 416.9,488.1 419.1,489.5 421.5,488.9 423.9,489.7 426.2,488.3 428.5,480.1 430.9,489.4 433.2,480.1 435.5,488.8 438.1,488.5 440.8,488.7 443.0,480.7 445.4,488.6 447.9,489.4 450.2,485.3 452.6,488.7 455.2,488.7 457.7,487.6 460.1,479.2 462.6,488.9 465.1,489.4 467.8,489.2 470.4,489.5 472.7,480.8 475.1,488.6 477.7,489.1 480.1,487.5 482.6,479.3 485.1,483.3 487.6,487.9 490.2,487.4 493.1,486.8 495.9,487.7 498.4,480.5 500.9,487.6 503.6,479.3 506.1,485.7 509.0,487.4 511.9,487.5 514.6,488.3 517.4,482.3 520.1,487.0 522.9,484.7 525.7,487.1 528.4,487.2 531.2,485.2 533.7,487.8 536.4,487.5 539.2,475.8 541.9,488.1 544.7,484.9 547.5,487.7 550.4,479.0 553.2,487.6 556.4,483.3 559.6,485.7 562.8,482.6 565.6,479.5 568.4,486.6 571.2,485.7 574.0,487.3 576.6,487.3 579.3,485.1 581.9,477.9 584.7,486.5 587.8,481.6 590.6,478.2 593.3,488.3 596.4,487.5 599.0,487.6 601.7,487.2 604.3,485.9 607.0,487.1 609.6,487.0 612.3,478.8 615.1,486.4 618.0,486.9 620.9,477.1 623.9,486.2 626.8,479.6 629.9,475.3 633.0,485.3 636.1,485.8 639.1,474.7 642.3,484.6 645.4,485.2 648.5,475.8 651.8,483.9 655.1,481.6 658.4,473.8 661.4,485.1 664.5,485.2 667.6,473.0 670.6,484.8 673.7,482.5 676.8,474.6 679.9,483.2 683.5,475.3 686.4,485.8 689.5,486.0 692.8,474.1 695.6,485.6 698.8,484.7 702.0,485.0 705.2,484.1 708.6,484.7 711.8,473.4 715.1,484.5 718.4,483.7 721.8,483.6 725.0,476.8 728.2,473.4 731.5,482.6 734.4,483.7 737.6,484.2 741.0,484.9 744.3,483.6 747.5,483.5 750.8,484.2 753.9,479.5 757.3,484.0 760.6,477.8 763.5,484.5 766.7,484.6 769.9,474.9 772.7,485.4 775.9,485.4 779.2,477.2 781.9,486.1 785.2,485.3 788.2,474.8 791.3,484.3 794.4,485.1 797.5,474.0 800.6,484.4 803.7,484.5 806.9,483.9 809.9,472.7 813.2,472.5 816.3,483.8 819.5,483.0 822.7,484.5 825.8,472.0 828.9,483.3 831.9,484.5 835.1,473.8 838.2,472.6 841.4,484.8 844.5,483.5 847.7,483.4 850.9,473.1 854.0,484.6 857.0,484.6 860.3,484.3 863.3,472.9 866.4,483.8 869.5,482.5 873.0,479.8 876.2,485.8 879.6,485.3 882.8,484.3 886.1,483.0 889.3,484.0 892.7,483.3 896.0,483.8 899.2,483.4 902.6,483.7 905.9,484.2 909.3,483.8 912.6,480.6 915.8,480.3 919.0,484.1 922.3,482.7 925.6,483.6 928.9,483.4 932.1,483.5 935.4,483.8 938.6,480.5 941.9,479.3 945.3,482.3 948.4,473.6 951.3,484.5 954.0,484.0 957.1,473.7 960.0,484.2 963.1,483.2 966.6,485.3 969.7,485.5 972.7,480.2 975.5,475.9 978.2,475.7 981.1,485.4 984.0,482.7 986.9,483.9 989.9,483.6 992.8,484.6 995.5,484.2 998.4,481.1 1001.5,484.7 1004.5,473.6 1007.6,474.1 1010.7,483.4 1013.9,484.1 1016.7,484.4 1019.7,483.1 1022.9,475.3 1025.9,484.3 1028.4,484.8 1031.1,483.5 1033.8,482.9 1036.9,482.6 1040.0,473.8" fill="none" stroke="#B279A2" stroke-width="2.5"/>
<polyline points="92.0,510.0 95.1,510.0 97.2,509.3 99.3,509.4 101.1,503.1 103.0,503.8 104.9,503.6 106.7,503.9 108.6,503.5 110.6,490.8 112.9,498.1 114.9,500.5 116.8,503.4 118.6,503.4 120.5,503.3 122.5,501.3 124.4,491.6 126.4,499.0 128.3,501.2 130.3,500.6 132.2,499.2 134.2,500.1 136.3,503.8 138.3,499.1 140.4,501.0 142.5,503.4 144.4,503.3 146.4,503.8 148.5,502.7 150.3,503.8 152.2,503.7 154.1,501.1 156.1,501.0 158.3,502.5 160.5,502.8 162.6,503.0 164.7,500.9 166.8,498.2 168.7,502.8 170.8,503.4 172.8,502.2 175.0,503.8 177.0,503.5 179.1,500.1 181.1,503.0 183.2,500.5 185.4,500.8 187.5,503.0 189.6,503.4 191.6,503.4 193.6,503.3 195.7,498.4 197.7,493.9 199.7,495.5 201.8,503.0 203.9,500.6 205.9,502.7 208.1,503.5 210.1,493.0 212.1,497.5 214.3,497.5 216.3,503.0 218.2,503.3 220.2,501.6 222.3,503.8 224.4,501.3 226.4,503.1 228.4,503.4 230.4,503.5 232.6,503.2 234.9,496.3 237.1,503.2 239.1,503.8 241.1,499.7 243.3,497.8 245.6,498.1 247.7,503.4 249.8,504.0 251.9,492.1 254.0,503.1 256.1,503.6 258.2,497.6 260.3,501.0 262.4,491.1 264.3,493.8 266.4,499.1 268.4,502.1 270.7,503.6 272.9,502.9 275.0,491.7 277.3,500.6 279.4,503.5 281.6,495.7 283.8,503.2 285.9,503.4 288.1,498.7 290.3,503.3 292.5,502.8 294.6,501.5 296.6,492.0 298.6,502.0 300.7,503.1 303.0,503.5 305.2,493.2 307.4,491.3 309.6,499.9 311.7,503.0 313.9,490.8 316.1,503.3 318.3,503.3 320.3,501.0 322.6,496.7 324.8,503.4 326.9,503.4 329.1,497.4 331.3,503.0 333.6,503.6 335.6,490.5 337.8,503.6 340.1,503.4 342.4,500.0 344.7,503.6 346.8,500.3 349.0,499.6 351.1,502.8 353.3,503.6 355.4,502.4 357.7,502.1 359.9,500.1 362.3,495.4 364.5,503.2 366.9,499.9 369.1,503.1 371.4,502.8 373.6,500.8 375.8,503.5 377.9,498.2 380.1,503.2 382.3,500.1 384.5,497.9 386.8,503.4 389.1,503.9 391.4,500.9 393.8,501.6 396.0,503.2 398.5,503.3 400.7,501.1 403.0,496.8 405.2,500.4 407.6,503.5 409.7,503.3 412.1,503.3 414.5,489.6 416.9,501.8 419.1,503.1 421.5,504.0 423.9,503.2 426.2,502.3 428.5,500.8 430.9,499.4 433.2,503.5 435.5,502.9 438.1,499.6 440.8,502.9 443.0,501.2 445.4,502.0 447.9,502.0 450.2,503.3 452.6,504.1 455.2,503.2 457.7,494.3 460.1,503.6 462.6,502.9 465.1,503.0 467.8,499.4 470.4,500.5 472.7,503.0 475.1,498.0 477.7,500.3 480.1,503.0 482.6,500.2 485.1,501.5 487.6,502.8 490.2,502.9 493.1,500.6 495.9,485.0 498.4,502.1 500.9,502.3 503.6,502.8 506.1,502.0 509.0,500.4 511.9,502.4 514.6,497.3 517.4,502.6 520.1,502.1 522.9,502.0 525.7,501.3 528.4,501.6 531.2,502.3 533.7,500.9 536.4,502.1 539.2,502.4 541.9,502.0 544.7,499.6 547.5,502.8 550.4,501.5 553.2,500.7 556.4,502.4 559.6,500.8 562.8,480.9 565.6,489.3 568.4,501.8 571.2,502.5 574.0,501.8 576.6,501.2 579.3,501.8 581.9,502.7 584.7,499.7 587.8,503.0 590.6,501.6 593.3,502.2 596.4,499.4 599.0,501.6 601.7,502.4 604.3,502.6 607.0,502.7 609.6,499.8 612.3,502.8 615.1,503.2 618.0,502.5 620.9,501.3 623.9,502.3 626.8,500.7 629.9,502.9 633.0,501.4 636.1,501.8 639.1,499.5 642.3,501.6 645.4,502.1 648.5,502.4 651.8,488.2 655.1,501.8 658.4,501.9 661.4,501.2 664.5,499.2 667.6,501.6 670.6,496.6 673.7,501.9 676.8,502.0 679.9,485.0 683.5,502.1 686.4,493.4 689.5,502.2 692.8,498.9 695.6,488.7 698.8,501.6 702.0,501.8 705.2,489.8 708.6,500.9 711.8,499.3 715.1,489.0 718.4,498.0 721.8,501.1 725.0,501.2 728.2,501.3 731.5,499.6 734.4,498.5 737.6,502.2 741.0,491.2 744.3,495.3 747.5,499.7 750.8,491.7 753.9,485.9 757.3,486.0 760.6,500.9 763.5,498.9 766.7,502.3 769.9,501.5 772.7,496.9 775.9,501.7 779.2,497.2 781.9,501.7 785.2,502.1 788.2,502.2 791.3,499.4 794.4,499.0 797.5,502.2 800.6,496.6 803.7,501.8 806.9,501.9 809.9,500.6 813.2,499.3 816.3,498.4 819.5,501.4 822.7,501.1 825.8,499.6 828.9,488.8 831.9,502.2 835.1,502.0 838.2,488.2 841.4,502.3 844.5,498.9 847.7,502.2 850.9,488.1 854.0,493.7 857.0,501.7 860.3,501.7 863.3,502.1 866.4,497.3 869.5,502.1 873.0,499.6 876.2,484.1 879.6,498.8 882.8,501.2 886.1,501.2 889.3,501.7 892.7,502.0 896.0,500.2 899.2,500.6 902.6,501.2 905.9,502.0 909.3,501.0 912.6,501.2 915.8,497.6 919.0,501.1 922.3,501.6 925.6,501.4 928.9,493.7 932.1,501.2 935.4,501.9 938.6,498.5 941.9,501.3 945.3,500.5 948.4,491.3 951.3,489.6 954.0,502.1 957.1,502.4 960.0,502.1 963.1,498.9 966.6,495.3 969.7,500.7 972.7,502.2 975.5,490.2 978.2,501.9 981.1,502.2 984.0,502.7 986.9,499.4 989.9,502.4 992.8,490.2 995.5,502.0 998.4,502.2 1001.5,494.5 1004.5,502.3 1007.6,500.5 1010.7,502.1 1013.9,501.0 1016.7,501.9 1019.7,502.4 1022.9,502.0 1025.9,501.4 1028.4,502.3 1031.1,503.4 1033.8,501.9 1036.9,502.3 1040.0,502.0" fill="none" stroke="#54A24B" stroke-width="2.5"/>
<polyline points="92.0,510.0 95.1,510.0 97.2,488.3 99.3,497.6 101.1,499.1 103.0,499.4 104.9,499.3 106.7,489.2 108.6,489.0 110.6,487.6 112.9,489.5 114.9,490.4 116.8,498.6 118.6,477.5 120.5,486.2 122.5,480.8 124.4,493.6 126.4,495.9 128.3,497.6 130.3,488.1 132.2,501.5 134.2,486.4 136.3,484.1 138.3,475.6 140.4,474.3 142.5,499.1 144.4,485.4 146.4,488.4 148.5,489.5 150.3,485.8 152.2,497.1 154.1,487.2 156.1,477.7 158.3,487.3 160.5,487.9 162.6,488.3 164.7,474.2 166.8,487.2 168.7,473.3 170.8,487.3 172.8,488.4 175.0,490.6 177.0,490.3 179.1,486.8 181.1,479.2 183.2,474.2 185.4,488.5 187.5,489.7 189.6,483.7 191.6,486.6 193.6,488.8 195.7,478.6 197.7,480.6 199.7,477.1 201.8,477.8 203.9,489.7 205.9,474.6 208.1,486.5 210.1,498.0 212.1,477.1 214.3,481.8 216.3,484.2 218.2,474.5 220.2,479.6 222.3,479.9 224.4,487.7 226.4,488.6 228.4,489.2 230.4,490.3 232.6,479.4 234.9,490.5 237.1,489.6 239.1,486.2 241.1,482.3 243.3,487.9 245.6,483.8 247.7,484.5 249.8,484.2 251.9,488.6 254.0,485.2 256.1,484.3 258.2,482.6 260.3,482.2 262.4,501.2 264.3,481.0 266.4,484.6 268.4,487.1 270.7,482.4 272.9,477.3 275.0,489.5 277.3,486.8 279.4,477.1 281.6,486.0 283.8,483.4 285.9,475.7 288.1,481.9 290.3,488.7 292.5,484.8 294.6,477.7 296.6,495.4 298.6,482.7 300.7,473.9 303.0,484.1 305.2,479.8 307.4,489.8 309.6,486.3 311.7,481.6 313.9,488.1 316.1,488.6 318.3,482.2 320.3,470.3 322.6,485.9 324.8,489.2 326.9,479.1 329.1,487.7 331.3,480.9 333.6,475.9 335.6,489.4 337.8,484.4 340.1,474.3 342.4,488.9 344.7,484.7 346.8,487.8 349.0,485.4 351.1,483.0 353.3,477.9 355.4,484.7 357.7,479.7 359.9,486.8 362.3,488.2 364.5,484.0 366.9,480.2 369.1,479.6 371.4,486.7 373.6,477.5 375.8,482.1 377.9,488.2 380.1,484.6 382.3,479.0 384.5,488.2 386.8,478.7 389.1,485.6 391.4,475.8 393.8,488.8 396.0,482.5 398.5,484.0 400.7,487.1 403.0,487.6 405.2,472.6 407.6,488.0 409.7,481.1 412.1,486.0 414.5,473.0 416.9,483.4 419.1,467.7 421.5,485.3 423.9,481.6 426.2,484.1 428.5,485.1 430.9,479.3 433.2,487.3 435.5,473.0 438.1,477.0 440.8,484.6 443.0,486.2 445.4,470.6 447.9,485.9 450.2,484.1 452.6,481.4 455.2,481.2 457.7,481.5 460.1,487.8 462.6,472.6 465.1,474.1 467.8,471.1 470.4,483.1 472.7,486.3 475.1,470.7 477.7,479.8 480.1,481.1 482.6,486.1 485.1,485.7 487.6,474.9 490.2,461.8 493.1,486.2 495.9,483.8 498.4,485.6 500.9,483.5 503.6,481.8 506.1,483.8 509.0,476.7 511.9,480.2 514.6,464.1 517.4,479.2 520.1,482.0 522.9,483.3 525.7,473.7 528.4,478.0 531.2,483.9 533.7,481.2 536.4,481.6 539.2,484.3 541.9,478.9 544.7,484.9 547.5,475.9 550.4,474.6 553.2,434.3 556.4,471.8 559.6,475.8 562.8,463.3 565.6,473.6 568.4,478.8 571.2,470.9 574.0,479.3 576.6,477.3 579.3,482.7 581.9,481.9 584.7,478.6 587.8,484.8 590.6,484.5 593.3,482.3 596.4,478.8 599.0,482.9 601.7,477.9 604.3,481.5 607.0,476.4 609.6,480.3 612.3,480.4 615.1,480.4 618.0,473.2 620.9,475.9 623.9,464.7 626.8,481.5 629.9,481.9 633.0,461.3 636.1,480.4 639.1,478.8 642.3,470.9 645.4,480.8 648.5,479.6 651.8,481.8 655.1,474.4 658.4,481.8 661.4,469.6 664.5,476.1 667.6,478.3 670.6,471.2 673.7,479.6 676.8,478.1 679.9,458.0 683.5,481.8 686.4,464.5 689.5,477.9 692.8,480.8 695.6,468.2 698.8,481.7 702.0,479.4 705.2,474.5 708.6,481.3 711.8,475.9 715.1,476.5 718.4,477.6 721.8,476.1 725.0,475.9 728.2,481.5 731.5,481.2 734.4,477.3 737.6,476.1 741.0,466.0 744.3,476.0 747.5,472.5 750.8,478.7 753.9,477.6 757.3,477.1 760.6,472.8 763.5,472.4 766.7,473.8 769.9,481.9 772.7,474.9 775.9,463.6 779.2,482.7 781.9,474.3 785.2,479.1 788.2,481.1 791.3,474.9 794.4,478.1 797.5,473.7 800.6,475.3 803.7,468.7 806.9,480.0 809.9,479.8 813.2,477.7 816.3,479.0 819.5,472.2 822.7,480.5 825.8,480.9 828.9,467.8 831.9,475.2 835.1,478.4 838.2,481.9 841.4,472.4 844.5,479.9 847.7,482.2 850.9,475.8 854.0,472.4 857.0,474.9 860.3,481.7 863.3,480.9 866.4,469.6 869.5,463.1 873.0,480.4 876.2,469.9 879.6,473.1 882.8,473.4 886.1,470.8 889.3,471.4 892.7,479.4 896.0,469.3 899.2,465.4 902.6,464.1 905.9,476.5 909.3,479.7 912.6,469.5 915.8,481.0 919.0,476.8 922.3,473.3 925.6,462.7 928.9,470.5 932.1,475.1 935.4,480.3 938.6,480.7 941.9,476.6 945.3,480.0 948.4,482.0 951.3,498.3 954.0,472.9 957.1,481.3 960.0,479.2 963.1,480.8 966.6,464.1 969.7,481.5 972.7,498.4 975.5,497.7 978.2,481.8 981.1,475.3 984.0,481.5 986.9,475.9 989.9,474.1 992.8,496.6 995.5,480.1 998.4,479.7 1001.5,476.6 1004.5,480.9 1007.6,497.2 1010.7,470.4 1013.9,497.9 1016.7,470.1 1019.7,477.6 1022.9,481.9 1025.9,496.3 1028.4,497.2 1031.1,496.6 1033.8,485.7 1036.9,497.2 1040.0,497.6" fill="none" stroke="#72B7B2" stroke-width="2.5"/>
<rect x="92" y="580" width="14" height="14" fill="#333333" rx="2"/>
<text class="small" x="112" y="592" text-anchor="start">LOD 总耗时</text>
<rect x="281" y="580" width="14" height="14" fill="#4C78A8" rx="2"/>
<text class="small" x="301" y="592" text-anchor="start">CPU 更新</text>
<rect x="470" y="580" width="14" height="14" fill="#B279A2" rx="2"/>
<text class="small" x="490" y="592" text-anchor="start">GPU 快照</text>
<rect x="659" y="580" width="14" height="14" fill="#54A24B" rx="2"/>
<text class="small" x="679" y="592" text-anchor="start">GPU 计算</text>
<rect x="848" y="580" width="14" height="14" fill="#72B7B2" rx="2"/>
<text class="small" x="868" y="592" text-anchor="start">GPU 读回</text>
</svg>
