<svg xmlns="http://www.w3.org/2000/svg" width="1080" height="620" viewBox="0 0 1080 620">
<rect width="100%" height="100%" fill="white"/>
<text x="540.0" y="32.0" font-size="22" text-anchor="middle" fill="#222">GPU ROAM-like fine-grained average timing</text>
<text x="22.0" y="287.0" font-size="14" text-anchor="middle" fill="#222" transform="rotate(-90.0 22.0 287.0)">Milliseconds</text>
<line x1="86" y1="502.0" x2="1046" y2="502.0" stroke="#E5E5E5"/>
<text x="76.0" y="506.0" font-size="12" text-anchor="end" fill="#222">0.00</text>
<line x1="86" y1="416.0" x2="1046" y2="416.0" stroke="#E5E5E5"/>
<text x="76.0" y="420.0" font-size="12" text-anchor="end" fill="#222">0.47</text>
<line x1="86" y1="330.0" x2="1046" y2="330.0" stroke="#E5E5E5"/>
<text x="76.0" y="334.0" font-size="12" text-anchor="end" fill="#222">0.94</text>
<line x1="86" y1="244.0" x2="1046" y2="244.0" stroke="#E5E5E5"/>
<text x="76.0" y="248.0" font-size="12" text-anchor="end" fill="#222">1.41</text>
<line x1="86" y1="158.0" x2="1046" y2="158.0" stroke="#E5E5E5"/>
<text x="76.0" y="162.0" font-size="12" text-anchor="end" fill="#222">1.88</text>
<line x1="86" y1="72.0" x2="1046" y2="72.0" stroke="#E5E5E5"/>
<text x="76.0" y="76.0" font-size="12" text-anchor="end" fill="#222">2.35</text>
<line x1="86" y1="72" x2="86" y2="502" stroke="#333"/>
<line x1="86" y1="502" x2="1046" y2="502" stroke="#333"/>
<rect x="454.0" y="194.1" width="34.0" height="307.9" fill="#4C78A8" rx="2"/>
<text x="471.0" y="189.1" font-size="10" text-anchor="middle" fill="#222">1.68</text>
<rect x="492.0" y="501.7" width="34.0" height="0.3" fill="#F58518" rx="2"/>
<text x="509.0" y="496.7" font-size="10" text-anchor="middle" fill="#222">0.00</text>
<rect x="530.0" y="454.7" width="34.0" height="47.3" fill="#E45756" rx="2"/>
<text x="547.0" y="449.7" font-size="10" text-anchor="middle" fill="#222">0.26</text>
<rect x="568.0" y="501.9" width="34.0" height="0.1" fill="#72B7B2" rx="2"/>
<text x="585.0" y="496.9" font-size="10" text-anchor="middle" fill="#222">0.00</text>
<rect x="606.0" y="137.6" width="34.0" height="364.4" fill="#B279A2" rx="2"/>
<text x="623.0" y="132.6" font-size="10" text-anchor="middle" fill="#222">1.99</text>
<rect x="644.0" y="378.1" width="34.0" height="123.9" fill="#54A24B" rx="2"/>
<text x="661.0" y="373.1" font-size="10" text-anchor="middle" fill="#222">0.68</text>
<text x="566.0" y="536.0" font-size="12" text-anchor="middle" fill="#222" transform="rotate(-25.0 566.0 536.0)">baseline</text>
<rect x="86" y="574" width="14" height="14" fill="#4C78A8" rx="2"/>
<text x="106.0" y="586.0" font-size="12" text-anchor="start" fill="#222">Snapshot</text>
<rect x="336" y="574" width="14" height="14" fill="#F58518" rx="2"/>
<text x="356.0" y="586.0" font-size="12" text-anchor="start" fill="#222">Buffer alloc</text>
<rect x="586" y="574" width="14" height="14" fill="#E45756" rx="2"/>
<text x="606.0" y="586.0" font-size="12" text-anchor="start" fill="#222">Dispatch wall</text>
<rect x="836" y="574" width="14" height="14" fill="#72B7B2" rx="2"/>
<text x="856.0" y="586.0" font-size="12" text-anchor="start" fill="#222">Query wait</text>
<rect x="1086" y="574" width="14" height="14" fill="#B279A2" rx="2"/>
<text x="1106.0" y="586.0" font-size="12" text-anchor="start" fill="#222">Readback wait</text>
<rect x="1336" y="574" width="14" height="14" fill="#54A24B" rx="2"/>
<text x="1356.0" y="586.0" font-size="12" text-anchor="start" fill="#222">GPU compute</text>
</svg>